<?xml version="1.0" encoding="UTF-8"?>
<svg xmlns="http://www.w3.org/2000/svg" version="1.1" viewBox="0 0 460.4 453.7">
  <!-- Generator: Adobe Illustrator 29.0.0, SVG Export Plug-In . SVG Version: 2.1.0 Build 186)  -->
  <defs>
    <style>
      .st0, .st1, .st2, .st3, .st4, .st5, .st6, .st7 {
        stroke-miterlimit: 10;
      }

      .st0, .st1, .st2, .st8, .st9, .st4, .st10, .st11, .st12, .st6, .st7 {
        stroke: #263238;
      }

      .st0, .st3, .st8, .st5, .st11, .st13 {
        fill: none;
      }

      .st1 {
        fill: #bdbdbd;
      }

      .st14, .st4, .st12 {
        fill: #263238;
      }

      .st15, .st10, .st6, .st16 {
        fill: #fff;
      }

      .st2 {
        fill: #6b6b6b;
      }

      .st3, .st5, .st13 {
        stroke: #fff;
      }

      .st8, .st9, .st10, .st11, .st13, .st12 {
        stroke-linecap: round;
        stroke-linejoin: round;
      }

      .st8, .st5 {
        stroke-width: 2px;
      }

      .st17, .st9 {
        fill: #92e3a9;
      }

      .st18, .st7 {
        fill: #7d7d7d;
      }

      .st16 {
        opacity: .7;
      }

      .st19 {
        fill: #bfbfbf;
      }
    </style>
  </defs>
  <g id="Background_Simple">
    <g>
      <path class="st17" d="M458.9,221.8c-5.2,42.5-24.9,91.9-64.1,114.7-59.2,34.4-54.4,87.1-169.9,110.4-18,3.6-35.1,5.2-51.2,4.9-8.7-.1-17-.8-25.1-2-73.3-10.4-122.5-60.7-140.5-121.6-23.6-80,24.1-132.6,55.7-164.3,31.6-31.7,55-130.2,168.3-153.9,17.3-3.6,34.9-5.5,52.6-5.1,40.3.9,84.2,13.9,114.6,41.1,2.3,2,4.5,4.2,6.7,6.4,42.2,42.8,59.9,111.5,52.9,169.4Z"/>
      <path class="st16" d="M458.9,221.8c-5.2,42.5-24.9,91.9-64.1,114.7-59.2,34.4-54.4,87.1-169.9,110.4-18,3.6-35.1,5.2-51.2,4.9-8.7-.1-17-.8-25.1-2-73.3-10.4-122.5-60.7-140.5-121.6-23.6-80,24.1-132.6,55.7-164.3,31.6-31.7,55-130.2,168.3-153.9,17.3-3.6,34.9-5.5,52.6-5.1,40.3.9,84.2,13.9,114.6,41.1,2.3,2,4.5,4.2,6.7,6.4,42.2,42.8,59.9,111.5,52.9,169.4Z"/>
    </g>
  </g>
  <g id="Floor">
    <line class="st0" x1="15.7" y1="396.9" x2="437" y2="396.9"/>
  </g>
  <g id="Icon_6">
    <g>
      <rect class="st14" x="380.5" y="170.9" width="46" height="59.7" rx="4.7" ry="4.7"/>
      <g>
        <rect class="st10" x="382.7" y="176.1" width="41.6" height="51.7"/>
        <line class="st11" x1="395.1" y1="182.4" x2="411.9" y2="182.4"/>
        <line class="st11" x1="387" y1="189.7" x2="420" y2="189.7"/>
        <line class="st11" x1="387" y1="195.4" x2="420" y2="195.4"/>
        <line class="st11" x1="387" y1="201.1" x2="420" y2="201.1"/>
        <line class="st11" x1="387" y1="206.8" x2="420" y2="206.8"/>
        <line class="st11" x1="387" y1="212.6" x2="420" y2="212.6"/>
        <line class="st11" x1="387" y1="218.3" x2="420" y2="218.3"/>
      </g>
      <path class="st10" d="M410.3,170.1c-1.2,0-1.8-1.3-1.2-2.3.7-1,.9-2.3.7-3.7-.4-2-2-3.7-4-4.1-3.4-.7-6.3,1.8-6.3,5.1s.3,2,.8,2.8c.6,1-.1,2.2-1.3,2.2h-9l2.4,7h24.4l2.4-7h-9ZM404.7,167.1c-1,0-1.8-.8-1.8-1.8s.8-1.8,1.8-1.8,1.8.8,1.8,1.8-.8,1.8-1.8,1.8Z"/>
      <g>
        <path class="st10" d="M389.9,186.8c-9.2-2.7-14.6-8.9-15.8-10.5-1.3,1.6-6.6,7.8-15.8,10.5,0,0-.6,16.9,15.8,32.4,16.4-15.5,15.8-32.4,15.8-32.4Z"/>
        <path class="st4" d="M387.1,188.8c-7.6-2.2-12-7.3-13.1-8.7-1,1.3-5.5,6.4-13.1,8.7,0,0-.5,13.9,13.1,26.7,13.5-12.8,13.1-26.7,13.1-26.7Z"/>
        <path class="st10" d="M387.1,188.8c-7.6-2.2-12-7.3-13.1-8.7v35.4c13.5-12.8,13.1-26.7,13.1-26.7Z"/>
      </g>
    </g>
  </g>
  <g id="Icon_2">
    <g>
      <path class="st14" d="M67,171.3h5.7c1.8,0,3.3,1.5,3.3,3.3v7.7c0,1.8-1.5,3.3-3.3,3.3h-5.7v-14.3h0Z"/>
      <g>
        <ellipse class="st14" cx="39.9" cy="178.9" rx="30.1" ry="27.9"/>
        <path class="st5" d="M50.3,156.8c-3.2-1.3-6.7-2-10.4-2s-6.5.6-9.4,1.6"/>
        <path class="st14" d="M6.5,171.3h5.7c1.8,0,3.3,1.5,3.3,3.3v7.7c0,1.8-1.5,3.3-3.3,3.3h-5.7v-14.3h0Z" transform="translate(22.1 357) rotate(180)"/>
        <path class="st14" d="M26,201.5h11.3v9.3c0,.7-.6,1.2-1.2,1.2h-8.8c-.7,0-1.2-.6-1.2-1.2v-9.3h0Z"/>
        <path class="st14" d="M42.6,201.5h11.3v9.3c0,.7-.6,1.2-1.2,1.2h-8.8c-.7,0-1.2-.6-1.2-1.2v-9.3h0Z"/>
        <path class="st14" d="M56.4,157s13.6-8.3,13.6-3.8-3,18.1-3,18.1"/>
        <g>
          <circle class="st15" cx="40.6" cy="178.8" r="19" transform="translate(-114.6 81.1) rotate(-45)"/>
          <path class="st14" d="M40.2,194.6v-3c-2.1-.1-3.7-.8-4.8-2s-1.6-3.2-1.7-5.8l4.7-.7c0,1.1.1,1.9.3,2.6.2.7.4,1.1.7,1.4.3.3.7.4,1.2.4s.9-.2,1.1-.6c.2-.4.3-.8.3-1.2,0-1-.2-1.9-.7-2.6-.5-.7-1.1-1.4-2-2.1l-2.2-1.9c-.6-.6-1.2-1.1-1.7-1.7-.5-.6-.9-1.3-1.2-2-.3-.8-.5-1.7-.5-2.8,0-1.9.6-3.5,1.7-4.6,1.1-1.1,2.6-1.7,4.5-1.9v-2.9h1.6v2.9c1.2,0,2.1.3,2.9.8.7.5,1.3,1.1,1.6,1.8.4.7.6,1.5.7,2.2.1.8.2,1.5.2,2.2l-4.8.6c0-.7,0-1.4-.1-1.9,0-.6-.2-1-.4-1.3-.2-.3-.6-.4-1-.4-.5,0-.9.2-1.1.6-.2.4-.4.9-.4,1.3,0,1,.3,1.8.8,2.4.5.6,1.1,1.2,1.6,1.7l2.1,1.8c.7.6,1.3,1.3,1.9,2,.6.7,1.1,1.5,1.4,2.4.3.9.5,1.9.5,3s-.2,2.1-.7,3c-.5.9-1.1,1.6-1.9,2.2-.8.6-1.8.9-3,1v3.1h-1.6Z"/>
        </g>
      </g>
    </g>
  </g>
  <g id="Icon_1">
    <g>
      <rect class="st14" x="33.8" y="288.6" width="46" height="59.7" rx="4.7" ry="4.7"/>
      <g>
        <rect class="st10" x="36" y="293.8" width="41.6" height="51.7"/>
        <line class="st11" x1="48.3" y1="300.1" x2="65.2" y2="300.1"/>
        <line class="st11" x1="40.3" y1="307.4" x2="73.2" y2="307.4"/>
        <line class="st11" x1="40.3" y1="313.1" x2="73.2" y2="313.1"/>
        <line class="st11" x1="40.3" y1="318.8" x2="73.2" y2="318.8"/>
        <line class="st11" x1="40.3" y1="324.6" x2="73.2" y2="324.6"/>
        <line class="st11" x1="40.3" y1="330.3" x2="73.2" y2="330.3"/>
        <line class="st11" x1="40.3" y1="336" x2="73.2" y2="336"/>
      </g>
      <path class="st10" d="M63.6,287.8c-1.2,0-1.8-1.3-1.2-2.3.7-1,.9-2.3.7-3.7-.4-2-2-3.7-4-4.1-3.4-.7-6.3,1.8-6.3,5.1s.3,2,.8,2.8c.6,1-.1,2.2-1.3,2.2h-9l2.4,7h24.4l2.4-7h-9ZM58,284.8c-1,0-1.8-.8-1.8-1.8s.8-1.8,1.8-1.8,1.8.8,1.8,1.8-.8,1.8-1.8,1.8Z"/>
      <g>
        <circle class="st14" cx="25.5" cy="313.8" r="20.1" transform="translate(-214.4 110) rotate(-45)"/>
        <path class="st15" d="M25.1,330.4v-3.2c-2.2-.1-3.9-.8-5-2.2-1.1-1.3-1.7-3.4-1.8-6.2l5-.7c0,1.1.1,2,.3,2.7.2.7.4,1.2.8,1.5.3.3.7.5,1.2.5s1-.2,1.2-.6.3-.8.3-1.3c0-1.1-.3-2-.8-2.7-.5-.7-1.2-1.5-2.1-2.3l-2.3-2c-.6-.6-1.2-1.2-1.8-1.8-.5-.6-1-1.3-1.3-2.1-.3-.8-.5-1.8-.5-2.9,0-2.1.6-3.7,1.8-4.8,1.2-1.2,2.8-1.8,4.8-2v-3.1h1.7v3.1c1.3,0,2.3.4,3,.9s1.3,1.1,1.7,1.9c.4.7.6,1.5.8,2.4.1.8.2,1.6.2,2.3l-5,.6c0-.8,0-1.5-.1-2,0-.6-.2-1-.5-1.3-.2-.3-.6-.5-1.1-.4-.5,0-.9.2-1.2.7-.3.5-.4.9-.4,1.4,0,1,.3,1.9.8,2.5.5.6,1.1,1.2,1.7,1.8l2.2,1.9c.7.7,1.4,1.4,2,2.1.6.8,1.1,1.6,1.5,2.5.4.9.6,2,.6,3.2s-.2,2.2-.7,3.1c-.5,1-1.2,1.7-2,2.3-.9.6-1.9,1-3.2,1.1v3.2h-1.7Z"/>
      </g>
    </g>
  </g>
  <g id="Calculator">
    <g>
      <path class="st6" d="M306.2,72.5h-173.9c-5.7,0-10.8,2.4-14.3,6.3-4,3.7-6.4,9.1-6.1,15l3.7,80v214.5c0,9.7,7.9,17.6,17.6,17.6h170.1c5.1,0,9.7-2.2,12.9-5.7,3.5-3.2,5.7-7.8,5.7-12.9v-214.5l3.7-80c.5-11.1-8.3-20.3-19.4-20.3Z"/>
      <path class="st4" d="M312.5,170.4l3.4-74.7c.3-6.8-5.1-12.4-11.9-12.4h-169.4c-6.8,0-12.2,5.7-11.9,12.4l3.4,74.7h186.5Z"/>
      <rect class="st18" x="132.7" y="102.6" width="172.4" height="58.3"/>
      <rect class="st19" x="141.2" y="111.1" width="155.4" height="41.3"/>
      <g>
        <rect class="st7" x="133" y="194" width="87" height="25.5" rx="5" ry="5"/>
        <line class="st0" x1="151.3" y1="194.4" x2="151.3" y2="219.6"/>
        <line class="st0" x1="168.8" y1="194.4" x2="168.8" y2="219.6"/>
        <line class="st0" x1="186.4" y1="194.4" x2="186.4" y2="219.6"/>
        <line class="st0" x1="203.9" y1="194.4" x2="203.9" y2="219.6"/>
      </g>
      <g>
        <rect class="st1" x="242.1" y="208.1" width="31" height="20" rx="4.6" ry="4.6"/>
        <rect class="st1" x="133.5" y="235.7" width="31" height="23.6" rx="4.6" ry="4.6"/>
        <rect class="st1" x="169.8" y="235.7" width="31" height="23.6" rx="4.6" ry="4.6"/>
        <rect class="st1" x="206.1" y="235.7" width="31" height="23.6" rx="4.6" ry="4.6"/>
        <rect class="st1" x="242.4" y="235.7" width="31" height="23.6" rx="4.6" ry="4.6"/>
        <rect class="st1" x="278.6" y="235.7" width="31" height="23.6" rx="4.6" ry="4.6"/>
        <rect class="st1" x="133.5" y="267.4" width="31" height="23.6" rx="4.6" ry="4.6"/>
        <rect class="st2" x="169.8" y="267.4" width="31" height="23.6" rx="4.6" ry="4.6"/>
        <rect class="st2" x="206.1" y="267.4" width="31" height="23.6" rx="4.6" ry="4.6"/>
        <rect class="st2" x="242.4" y="267.4" width="31" height="23.6" rx="4.6" ry="4.6"/>
        <rect class="st1" x="278.6" y="267.4" width="31" height="23.6" rx="4.6" ry="4.6"/>
        <rect class="st1" x="133.5" y="299.2" width="31" height="23.6" rx="4.6" ry="4.6"/>
        <rect class="st2" x="169.8" y="299.2" width="31" height="23.6" rx="4.6" ry="4.6"/>
        <rect class="st2" x="206.1" y="299.2" width="31" height="23.6" rx="4.6" ry="4.6"/>
        <rect class="st2" x="242.4" y="299.2" width="31" height="23.6" rx="4.6" ry="4.6"/>
        <rect class="st1" x="278.6" y="299.2" width="31" height="23.6" rx="4.6" ry="4.6"/>
        <rect class="st12" x="133.5" y="330.9" width="31" height="23.6" rx="4.6" ry="4.6"/>
        <rect class="st2" x="169.8" y="330.9" width="31" height="23.6" rx="4.6" ry="4.6"/>
        <rect class="st2" x="206.1" y="330.9" width="31" height="23.6" rx="4.6" ry="4.6"/>
        <rect class="st2" x="242.4" y="330.9" width="31" height="23.6" rx="4.6" ry="4.6"/>
        <rect class="st12" x="133.5" y="362.6" width="31" height="23.6" rx="4.6" ry="4.6"/>
        <rect class="st2" x="169.8" y="362.6" width="31" height="23.6" rx="4.6" ry="4.6"/>
        <rect class="st2" x="206.1" y="362.6" width="31" height="23.6" rx="4.6" ry="4.6"/>
        <rect class="st1" x="242.4" y="362.6" width="31" height="23.6" rx="4.6" ry="4.6"/>
        <path class="st1" d="M304.9,330.9h-21.6c-2.6,0-4.7,2.1-4.7,4.7v45.9c0,2.6,2.1,4.7,4.7,4.7h21.6c2.6,0,4.7-2.1,4.7-4.7v-45.9c0-2.6-2.1-4.7-4.7-4.7Z"/>
        <rect class="st12" x="278.6" y="208.1" width="31" height="20" rx="4.6" ry="4.6"/>
        <g>
          <g>
            <path class="st15" d="M284.6,223.1c-.9-1-1.4-2.4-1.4-4.2s.5-3.2,1.4-4.2c.9-1,2.2-1.6,3.9-1.6s2.9.5,3.9,1.6c.9,1,1.4,2.4,1.4,4.2s-.5,3.2-1.4,4.2c-.9,1-2.2,1.6-3.9,1.6s-2.9-.5-3.9-1.6ZM291.2,222.1c.6-.8,1-1.9,1-3.3s-.3-2.5-1-3.3c-.6-.8-1.5-1.2-2.7-1.2s-2,.4-2.7,1.2c-.6.8-1,1.9-1,3.3s.3,2.5,1,3.3c.6.8,1.5,1.2,2.7,1.2s2-.4,2.7-1.2Z"/>
            <path class="st15" d="M296.4,224.3c-.1-.1-.2-.3-.2-.5v-9.5c0-.3,0-.6.3-.7.2-.2.4-.3.6-.3s.4,0,.6.2c.2.1.4.3.5.5l5.7,8.3v-8.2c0-.2,0-.4.2-.5.1-.1.3-.2.5-.2s.4,0,.5.2c.1.1.2.3.2.5v9.5c0,.3,0,.6-.3.7-.2.2-.4.3-.7.3s-.4,0-.5-.1c-.2,0-.3-.2-.4-.4l-5.7-8.3v8.1c0,.2,0,.4-.2.5-.1.1-.3.2-.5.2s-.4,0-.5-.2Z"/>
          </g>
          <g>
            <path class="st15" d="M143.2,254c-.2-.1-.3-.3-.4-.5l-3.7-8.2v8.5c0,.2,0,.3-.2.4-.1,0-.3.1-.5.1s-.4,0-.5-.1c-.1,0-.2-.2-.2-.4v-9.3c0-.3.1-.6.4-.8s.5-.3.8-.3.5,0,.7.2c.2.2.4.4.6.7l3.6,7.9,3.6-7.9c.1-.3.3-.5.6-.7.2-.2.5-.2.7-.2s.6.1.8.3c.2.2.4.5.4.8v9.3c0,.2,0,.3-.2.4-.1,0-.3.1-.5.1s-.4,0-.5-.1c-.1,0-.2-.2-.2-.4v-8.5l-3.7,8.2c0,.2-.2.4-.4.5-.2.1-.4.2-.5.2s-.4,0-.5-.2Z"/>
            <path class="st15" d="M154.5,253.8c-.8-.5-1.4-1.2-1.8-2.1-.4-.9-.6-1.8-.6-2.9s.1-1.6.4-2.3c.2-.7.6-1.3,1-1.8.4-.5,1-.9,1.7-1.2.7-.3,1.4-.5,2.2-.5s2,.2,2.8.7c.2.1.3.3.3.5s0,.3-.2.4c-.1.1-.3.2-.4.2s-.2,0-.3,0c0,0,0,0-.2,0-.1,0-.2,0-.3-.1,0,0-.2,0-.3-.1-.1,0-.3,0-.4-.1-.1,0-.3,0-.5,0s-.4,0-.6,0c-.5,0-1,0-1.4.2s-.8.4-1,.7c-.3.3-.5.6-.7,1-.2.4-.3.8-.4,1.2,0,.4-.1.9-.1,1.4s0,1,.1,1.4c0,.4.2.8.4,1.2.2.4.4.7.7,1,.3.3.6.5,1.1.6.4.2.9.2,1.4.2s.9,0,1.2-.2c.4-.1.7-.3,1.1-.5.1,0,.2,0,.3,0,.2,0,.3,0,.4.2.1.1.2.3.2.4,0,.2-.1.4-.4.6-.9.6-1.9.9-3.1.9s-2-.3-2.8-.8Z"/>
          </g>
          <g>
            <path class="st15" d="M146.5,377.5h-5.4l-.9,2.4c-.1.3-.4.5-.7.5s-.4,0-.5-.2c-.2-.1-.2-.3-.2-.5s0-.2,0-.3l3.7-9.3c.2-.4.4-.7.6-.9.2-.1.5-.2.8-.2s.6,0,.8.2c.2.1.4.4.6.9l3.7,9.3c0,.1,0,.2,0,.3,0,.2,0,.4-.2.5-.2.1-.3.2-.5.2-.4,0-.6-.2-.7-.5l-.9-2.4ZM143.8,370.6l-2.3,5.8h4.5l-2.3-5.8Z"/>
            <path class="st15" d="M152.8,379.8c-.8-.5-1.4-1.2-1.8-2.1-.4-.9-.6-1.8-.6-2.9s.1-1.6.4-2.3c.2-.7.6-1.3,1-1.8.4-.5,1-.9,1.7-1.2.7-.3,1.4-.5,2.2-.5s2,.2,2.8.7c.2.1.3.3.3.5s0,.3-.2.4c-.1.1-.3.2-.4.2s-.2,0-.3,0c0,0,0,0-.2,0-.1,0-.2,0-.3-.1,0,0-.2,0-.3-.1-.1,0-.3,0-.4-.1-.1,0-.3,0-.5,0-.2,0-.4,0-.6,0-.5,0-1,0-1.4.2-.4.2-.8.4-1,.7-.3.3-.5.6-.7,1-.2.4-.3.8-.4,1.2,0,.4-.1.9-.1,1.4s0,1,.1,1.4c0,.4.2.8.4,1.2.2.4.4.7.7,1,.3.3.6.5,1.1.6.4.2.9.2,1.4.2s.9,0,1.2-.2c.4-.1.7-.3,1.1-.5.1,0,.2,0,.3,0,.2,0,.3,0,.4.2.1.1.2.3.2.4,0,.2-.1.4-.4.6-.9.6-1.9.9-3.1.9s-2-.3-2.8-.8Z"/>
          </g>
          <path class="st15" d="M146.6,347.8c-.8-.5-1.4-1.2-1.8-2.1-.4-.9-.6-1.8-.6-2.9s.1-1.6.4-2.3c.2-.7.6-1.3,1-1.8.4-.5,1-.9,1.7-1.2.7-.3,1.4-.5,2.2-.5s2,.2,2.8.7c.2.1.3.3.3.5s0,.3-.2.4c-.1.1-.3.2-.4.2s-.2,0-.3,0c0,0,0,0-.2,0-.1,0-.2,0-.3-.1,0,0-.2,0-.3-.1-.1,0-.3,0-.4-.1-.1,0-.3,0-.5,0-.2,0-.4,0-.6,0-.5,0-1,0-1.4.2-.4.2-.8.4-1,.7-.3.3-.5.6-.7,1-.2.4-.3.8-.4,1.2,0,.4-.1.9-.1,1.4s0,1,.1,1.4c0,.4.2.8.4,1.2.2.4.4.7.7,1,.3.3.6.5,1.1.6.4.2.9.2,1.4.2s.9,0,1.2-.2c.4-.1.7-.3,1.1-.5.1,0,.2,0,.3,0,.2,0,.3,0,.4.2.1.1.2.3.2.4,0,.2-.1.4-.4.6-.9.6-1.9.9-3.1.9s-2-.3-2.8-.8Z"/>
          <path class="st15" d="M142.6,279.7c-.5-.6-.7-1.3-.7-2.2s.2-1.6.7-2.2c.5-.6,1.1-.9,1.9-.9s.9,0,1.2.3c.4.2.6.4.8.7.2.3.4.6.5,1,.1.4.2.7.2,1.1,0,.9-.2,1.6-.7,2.2-.5.6-1.1.9-2,.9s-1.5-.3-1.9-.9ZM145.4,279.3c.2-.2.4-.5.5-.8,0-.3.1-.7.1-1.1s0-.8-.1-1.1c0-.3-.3-.6-.5-.8-.2-.2-.5-.3-.9-.3s-.6.1-.9.3c-.2.2-.4.5-.5.8,0,.3-.1.7-.1,1.1s0,.8.1,1.1c0,.3.3.6.5.8.2.2.5.3.9.3s.7-.1.9-.3ZM144.7,285.9c0,0-.1-.2-.1-.3s0-.2,0-.3l6.1-10.8c.1-.2.3-.3.5-.3s.2,0,.3.1c0,0,.1.2.1.3s0,.2-.1.3l-6.1,10.8c-.1.2-.3.3-.4.3s-.2,0-.3-.1ZM150.2,284.9c-.5-.6-.7-1.3-.7-2.2s.2-1.6.7-2.2c.5-.6,1.1-.9,1.9-.9s.8,0,1.2.3c.4.2.6.4.8.7.2.3.4.6.5,1,.1.4.2.7.2,1.1,0,.6-.1,1.1-.3,1.5-.2.5-.5.8-.9,1.1-.4.3-.9.4-1.4.4-.8,0-1.5-.3-2-.9ZM153,284.5c.2-.2.4-.5.5-.8,0-.3.1-.7.1-1.1s0-.6,0-.8c0-.2-.1-.5-.2-.7-.1-.2-.3-.4-.5-.5-.2-.1-.4-.2-.7-.2s-.7.1-.9.3c-.2.2-.4.5-.5.8,0,.3-.1.7-.1,1.1s0,.8.1,1.1c0,.3.2.6.5.8.2.2.5.3.9.3s.6-.1.9-.3Z"/>
          <path class="st15" d="M183.8,285.3c-.2-.1-.2-.3-.2-.5s0-.2,0-.3l3.8-8.8h-5.2c-.2,0-.4,0-.5-.2-.1-.1-.2-.3-.2-.4s0-.3.2-.4c.1-.1.3-.2.5-.2h6c.3,0,.5,0,.7.2.2.1.2.3.2.5s0,.5-.1.7l-4,9.3c-.1.3-.4.4-.7.4s-.4,0-.6-.2Z"/>
          <path class="st15" d="M219.9,285.3c-.6-.2-1-.6-1.4-1.1s-.5-1.1-.5-1.7.2-1.3.6-1.8c.4-.5.9-.8,1.6-1-.7-.2-1.2-.5-1.5-.9-.3-.5-.5-1-.5-1.7s.2-1.2.5-1.6c.3-.5.8-.8,1.3-1,.5-.2,1.2-.3,1.9-.3s1,0,1.4.2c.4.1.8.3,1.2.6.3.2.6.6.8.9.2.4.3.8.3,1.3s-.2,1.2-.5,1.7c-.4.4-.9.8-1.5.9.7.2,1.3.5,1.7,1,.4.5.6,1.1.6,1.8s-.2,1.2-.5,1.7c-.3.5-.8.8-1.4,1.1-.6.2-1.2.4-2,.4s-1.4-.1-2-.4ZM223.5,284c.4-.3.6-.8.6-1.5s-.2-1.2-.7-1.6c-.4-.4-1-.6-1.6-.6s-1.2.2-1.7.6c-.4.4-.7.9-.7,1.6s.1.8.3,1.1c.2.3.5.5.8.7.3.1.7.2,1.2.2.7,0,1.2-.2,1.6-.5ZM223.5,278.5c.4-.3.6-.8.6-1.4s-.2-1.1-.6-1.4c-.4-.3-.9-.4-1.6-.4s-.6,0-.8.1c-.3,0-.5.2-.7.3-.2.1-.4.3-.5.6-.1.2-.2.5-.2.8,0,.6.2,1.1.6,1.4.4.3.9.5,1.6.5s1.2-.2,1.6-.5Z"/>
          <path class="st15" d="M254.1,285.1c-.2,0-.3-.3-.3-.5s0-.3.2-.5c.1-.1.2-.2.4-.2s.1,0,.2,0c.7.3,1.3.5,2,.5s.7,0,1-.1c.3,0,.5-.2.7-.3.2-.1.4-.3.5-.5.1-.2.3-.5.4-.7,0-.2.2-.5.2-.9,0-.3,0-.7.1-1,0-.3,0-.7,0-1.1-.1.4-.4.8-.9,1.1-.5.3-1.1.5-1.8.5-1.1,0-1.9-.3-2.6-1-.6-.7-1-1.5-1-2.6s.3-2,1-2.7c.7-.7,1.6-1,2.7-1s1.2,0,1.6.3c.5.2.9.4,1.2.7.3.3.6.7.8,1.1.2.4.3.9.4,1.4,0,.5.1,1,.1,1.5s0,.9,0,1.3c0,.4,0,.8-.2,1.3,0,.5-.2.9-.3,1.2-.1.4-.3.7-.6,1.1-.2.3-.5.6-.8.9-.3.2-.7.4-1.1.6-.5.1-1,.2-1.5.2-.8,0-1.6-.2-2.4-.6ZM258.7,279.6c.4-.4.6-1.1.6-1.8s-.2-1.3-.6-1.7c-.4-.5-1-.7-1.7-.7s-1.3.2-1.7.7-.6,1-.6,1.8.2,1.3.5,1.8c.4.5.9.7,1.6.7s1.4-.2,1.8-.7Z"/>
          <path class="st15" d="M187,316.3c-.2-.1-.2-.3-.2-.5v-1.7h-4.5c-.2,0-.4,0-.6-.2-.1-.2-.2-.4-.2-.6s0-.3.1-.5l4.3-6.7c.3-.5.7-.7,1.3-.7s.6,0,.8.3c.2.2.3.5.3.8v6.5h1.1c.2,0,.3,0,.4.2,0,.1.1.2.1.4s0,.3-.1.4c0,.1-.2.2-.4.2h-1.1v1.7c0,.2,0,.4-.2.5-.2.1-.3.2-.5.2s-.4,0-.5-.2ZM186.8,312.9v-6l-3.8,6h3.8Z"/>
          <path class="st15" d="M220.2,316.3c-.5-.2-1-.5-1.5-.9-.1,0-.2-.2-.2-.3s0-.3.2-.5c.1-.2.3-.2.5-.2s.2,0,.3.1c.7.6,1.6.9,2.5.9s1.4-.2,1.8-.6c.4-.4.6-1,.6-1.8s-.2-1.3-.6-1.7c-.4-.4-.9-.6-1.6-.6s-.8,0-1.2.3c-.4.2-.7.4-1,.7,0,0-.2,0-.3,0-.2,0-.4,0-.6-.2-.2-.1-.3-.2-.3-.4v-5.1c0-.5.3-.7.8-.7h5.1c.2,0,.3,0,.4.2.1.1.2.3.2.4s0,.3-.1.4-.2.2-.4.2h-4.7v3.8s0,0,0,0c0,0,.2-.1.3-.2.1,0,.3-.2.5-.3.2,0,.4-.2.7-.2.3,0,.6,0,.9,0,1,0,1.9.3,2.5,1,.6.7.9,1.5.9,2.6s-.4,2-1.1,2.6c-.7.7-1.6,1-2.7,1s-1.3-.1-1.8-.3Z"/>
          <path class="st15" d="M255.7,316.4c-.5-.2-.9-.4-1.2-.8-.3-.3-.6-.7-.8-1.1-.2-.4-.3-.9-.4-1.4,0-.5-.1-1-.1-1.5s0-.9,0-1.3c0-.4,0-.8.2-1.3,0-.5.2-.9.3-1.2.1-.4.3-.7.6-1.1.2-.3.5-.6.8-.9.3-.2.7-.4,1.1-.6.4-.1,1-.2,1.5-.2.8,0,1.6.2,2.4.6.2,0,.3.3.3.5s0,.3-.2.5-.2.2-.4.2-.1,0-.2,0c-.7-.3-1.3-.5-2-.5s-.7,0-.9.1c-.3,0-.5.2-.7.3-.2.1-.4.3-.5.5-.1.2-.3.5-.4.7,0,.2-.2.5-.2.9,0,.3,0,.7-.1,1,0,.3,0,.7,0,1.1.1-.4.4-.8.9-1.1.5-.3,1.1-.5,1.8-.5,1.1,0,1.9.3,2.6,1,.6.7,1,1.5,1,2.6s-.3,2-1,2.7c-.7.7-1.6,1-2.8,1s-1.2,0-1.6-.3ZM255.6,311.2c-.4.5-.6,1.1-.6,1.8s.2,1.3.6,1.7c.4.5,1,.7,1.7.7s1.3-.2,1.7-.7c.4-.4.6-1,.6-1.8s-.2-1.3-.5-1.8c-.4-.5-.9-.7-1.6-.7s-1.4.2-1.8.7Z"/>
          <path class="st15" d="M185.6,348.8c-.2-.1-.2-.3-.2-.5v-8.8l-1.7,1.1c0,0-.2,0-.3,0-.2,0-.3,0-.4-.2-.1-.1-.2-.3-.2-.4s0-.3.3-.5l2.7-1.7c.1,0,.3-.1.4-.1s.4,0,.5.2c.1.1.2.3.2.6v9.7c0,.2,0,.4-.2.5-.2.1-.3.2-.6.2s-.4,0-.5-.2Z"/>
          <path class="st15" d="M225,342.6c-.3.5-.8,1.1-1.4,1.7l-3.6,3.5h4.7c.2,0,.3,0,.5.2.1.1.2.3.2.4s0,.3-.2.4c-.1.1-.3.2-.5.2h-5.4c-.3,0-.6,0-.7-.2-.2-.2-.3-.3-.3-.6s.1-.5.4-.8l4.1-4.1c.4-.4.7-.8.9-1.2.2-.4.3-.7.3-1.1,0-.6-.2-1.1-.6-1.5-.4-.4-.9-.6-1.5-.6s-.7,0-1,0c-.3,0-.5.1-.6.2-.1,0-.3.2-.5.3-.2.1-.4.2-.4.3,0,0-.1,0-.2,0-.2,0-.3,0-.4-.2-.1-.1-.2-.3-.2-.5s.1-.4.3-.5c.5-.3,1-.6,1.5-.7.5-.2,1.1-.2,1.7-.2,1,0,1.8.3,2.5.9.7.6,1,1.4,1,2.2s-.1,1.2-.4,1.7Z"/>
          <path class="st15" d="M254.3,348.6c-.3-.1-.4-.3-.4-.6s0-.3.2-.5c.1-.1.3-.2.4-.2s.1,0,.2,0c.7.3,1.5.5,2.2.5s1.3-.2,1.7-.5c.4-.3.6-.8.6-1.4s-.2-1.2-.7-1.6c-.5-.4-1.1-.6-1.9-.6h-.6c-.2,0-.3,0-.4-.2,0-.1-.1-.2-.1-.4s0-.3.1-.4c0-.1.2-.2.4-.2h.5c.7,0,1.3-.2,1.8-.5.4-.3.7-.8.7-1.4s-.2-1-.6-1.3c-.4-.3-.9-.5-1.5-.5s-1.6.2-2.3.5c0,0-.1,0-.2,0-.2,0-.3,0-.4-.2-.1-.1-.2-.3-.2-.5s0-.4.3-.5c.2-.2.6-.3,1.2-.5s1.1-.2,1.6-.2,1.3.1,1.8.3c.5.2,1,.6,1.3,1,.3.5.5,1,.5,1.7s-.2,1.2-.5,1.6c-.3.4-.8.7-1.4.9.7.2,1.2.5,1.6,1,.4.5.6,1.1.6,1.9s-.1,1-.3,1.4c-.2.4-.5.7-.9,1-.4.2-.8.4-1.2.6-.4.1-.9.2-1.4.2-1,0-1.9-.2-2.6-.6Z"/>
          <path class="st15" d="M184,379.3c-.5-.2-.8-.5-1.1-.8-.3-.4-.5-.8-.7-1.3-.2-.5-.3-1-.4-1.6s-.1-1.1-.1-1.8c0-3.9,1.3-5.8,3.9-5.8s3.9,1.9,3.9,5.8,0,1.2-.1,1.7c0,.5-.2,1.1-.4,1.6-.2.5-.4.9-.7,1.3-.3.4-.7.6-1.1.9-.5.2-1,.3-1.6.3s-1.1-.1-1.6-.3ZM186.3,378.2c.2-.1.4-.2.6-.4.2-.2.3-.4.4-.6.1-.2.2-.5.3-.7,0-.3.1-.5.2-.9,0-.3,0-.6,0-.9,0-.3,0-.6,0-.9s0-.6,0-.9c0-.3,0-.6,0-.9s0-.6-.2-.9c0-.3-.2-.5-.3-.7-.1-.2-.3-.4-.4-.6-.2-.2-.4-.3-.6-.4-.2,0-.5-.1-.8-.1s-.5,0-.8.1c-.2,0-.4.2-.6.4-.2.2-.3.4-.4.6-.1.2-.2.5-.3.7,0,.3-.1.5-.2.9,0,.3,0,.6,0,.9s0,.6,0,.9,0,.6,0,.9,0,.6,0,.9,0,.6.2.9c0,.3.2.5.3.7.1.2.3.5.4.6.2.2.4.3.6.4.2.1.5.2.8.2s.5,0,.8-.2Z"/>
          <path class="st15" d="M220.4,375.7c-.4-.4-.5-.8-.5-1.3s.2-.9.5-1.3.8-.5,1.4-.5,1.1.2,1.4.5c.4.4.6.8.6,1.3s-.2.9-.5,1.3c-.4.4-.8.5-1.4.5s-1.1-.2-1.4-.5Z"/>
          <path class="st15" d="M293,244c-.4-.4-.5-.8-.5-1.3s.2-.9.5-1.2c.4-.4.8-.5,1.4-.5s1,.2,1.4.5c.4.3.5.8.5,1.2s-.2.9-.5,1.3-.8.5-1.4.5-1-.2-1.4-.5Z"/>
          <path class="st15" d="M293,254.4c-.4-.4-.5-.8-.5-1.3s.2-.9.5-1.2.8-.5,1.4-.5,1,.2,1.4.5c.4.3.5.8.5,1.2s-.2.9-.5,1.3c-.4.4-.8.5-1.4.5s-1-.2-1.4-.5Z"/>
          <path class="st15" d="M251.9,373.5c-.2-.2-.3-.4-.3-.6s0-.5.3-.7c.2-.2.4-.3.7-.3h11.1c.3,0,.5,0,.7.3.2.2.3.4.3.7s-.1.5-.3.7c-.2.2-.4.3-.7.3h-11.2c-.3,0-.5,0-.7-.3ZM251.9,378.6c-.2-.2-.3-.4-.3-.6s0-.5.3-.7c.2-.2.4-.3.7-.3h11.2c.3,0,.5,0,.7.3.2.2.3.4.3.7s0,.5-.3.7c-.2.2-.4.3-.7.3h-11.2c-.3,0-.5,0-.7-.3Z"/>
          <path class="st15" d="M293.5,280.9l-3.1,4.2c-.2.2-.4.4-.6.4s-.3,0-.5-.2c-.1-.1-.2-.3-.2-.5s0-.3.2-.4l3.5-4.6-3.3-4.5c0,0-.1-.2-.1-.3,0-.2,0-.4.2-.5.2-.2.4-.2.6-.2s.4.1.6.3l3,4.1,3-4.1c.2-.2.4-.4.7-.4s.3,0,.5.2c.1.1.2.3.2.4s0,.3-.1.4l-3.4,4.5,3.4,4.6c0,.1.1.3.1.4,0,.2,0,.4-.2.5-.2.1-.4.2-.6.2s-.4-.1-.6-.3l-3.1-4.2Z"/>
          <path class="st15" d="M293.3,368.2c-.2-.2-.3-.5-.3-.8v-5.2h-5.4c-.3,0-.6-.1-.8-.3-.2-.2-.4-.5-.4-.8s.1-.6.3-.8c.2-.2.5-.3.8-.3h5.4v-5.2c0-.3.1-.6.3-.8.2-.2.5-.3.8-.3s.6.1.8.3c.2.2.3.5.3.8v5.2h5.4c.3,0,.6,0,.8.3.2.2.4.5.4.8s-.1.6-.3.8c-.2.2-.5.3-.8.3h-5.4v5.2c0,.3-.1.6-.3.8-.2.2-.5.3-.8.3s-.6-.1-.8-.3Z"/>
          <path class="st15" d="M143.3,315.2c-.1-.2-.2-.4-.2-.6v-3.8h-3.9c-.2,0-.4,0-.6-.2-.2-.1-.3-.3-.3-.6s0-.4.2-.6c.2-.1.4-.2.6-.2h3.9v-3.8c0-.2,0-.4.2-.6.1-.2.3-.2.6-.2s.4,0,.6.2c.2.2.2.4.2.6v3.8h3.9c.2,0,.4,0,.6.2.2.1.3.3.3.6s0,.4-.3.6c-.2.1-.4.2-.6.2h-3.9v3.8c0,.2,0,.4-.2.6-.2.2-.3.2-.6.2s-.4,0-.6-.2Z"/>
          <path class="st15" d="M288,312c-.2-.1-.2-.3-.2-.4s0-.3.2-.4c.2-.1.4-.2.7-.2h10.8c.3,0,.5,0,.7.2.2.1.2.3.2.4s0,.3-.2.4c-.2.1-.4.2-.7.2h-10.8c-.3,0-.5,0-.7-.2Z"/>
          <path class="st15" d="M151.3,317.3c-.1-.1-.2-.3-.2-.4s0-.3.2-.4c.1-.1.3-.2.5-.2h7.3c.2,0,.3,0,.5.2.1.1.2.3.2.4s0,.3-.2.4c-.1.1-.3.2-.5.2h-7.3c-.2,0-.3,0-.5-.2Z"/>
          <path class="st15" d="M147.1,319.5c-.2.1-.4.2-.6,0-.1,0-.2-.3-.2-.5,0-.3.1-.6.3-1l8-13.9c.2-.4.4-.6.7-.8.2-.1.4-.2.6,0,.1,0,.2.3.2.5,0,.3-.1.6-.3,1l-8,13.9c-.2.4-.4.6-.7.8Z"/>
          <path class="st15" d="M288,248.5c-.2-.1-.2-.3-.2-.4s0-.3.2-.4c.2-.1.4-.2.7-.2h10.8c.3,0,.5,0,.7.2.2.1.2.3.2.4s0,.3-.2.4c-.2.1-.4.2-.7.2h-10.8c-.3,0-.5,0-.7-.2Z"/>
          <g>
            <path class="st15" d="M179.8,254c-.2-.1-.3-.3-.4-.5l-3.7-8.2v8.5c0,.2,0,.3-.2.4-.1,0-.3.1-.5.1s-.4,0-.5-.1c-.1,0-.2-.2-.2-.4v-9.3c0-.3.1-.6.4-.8.2-.2.5-.3.8-.3s.5,0,.7.2c.2.2.4.4.6.7l3.6,7.9,3.6-7.9c.1-.3.3-.5.6-.7s.5-.2.7-.2.6.1.8.3c.2.2.4.5.4.8v9.3c0,.2,0,.3-.2.4-.1,0-.3.1-.5.1s-.4,0-.5-.1c-.1,0-.2-.2-.2-.4v-8.5l-3.7,8.2c0,.2-.2.4-.4.5-.2.1-.4.2-.5.2s-.4,0-.5-.2Z"/>
            <path class="st15" d="M189.5,254.2c-.2-.1-.2-.3-.2-.6v-9.7c0-.2,0-.4.2-.5.2-.1.3-.2.6-.2h3.4c.4,0,.8,0,1.2,0,.4,0,.7.1,1.1.3.4.1.7.3.9.5.2.2.4.5.6.8.2.3.2.7.2,1.2,0,.6-.2,1.2-.6,1.7-.4.5-1,.8-1.8.9h0c1.2.3,1.9,1.1,2.1,2.5l.3,2.5s0,0,0,.1c0,.2,0,.4-.2.5-.1.1-.3.2-.5.2s-.4,0-.6-.2c-.2-.1-.3-.3-.3-.5l-.2-2.2c0-.5-.1-.8-.2-1.1,0-.3-.2-.5-.4-.7-.2-.2-.4-.3-.6-.4-.2,0-.6,0-1,0h-2.6v4.4c0,.2,0,.4-.2.6-.2.1-.3.2-.6.2s-.4,0-.6-.2ZM193.1,248.1c.3,0,.6,0,.8,0,.2,0,.5,0,.7-.2.3,0,.5-.2.6-.3.2-.1.3-.3.4-.6.1-.2.2-.5.2-.8s0-.5-.1-.7c0-.2-.2-.4-.3-.5-.1-.1-.3-.2-.4-.3-.1,0-.3-.1-.5-.2-.2,0-.4,0-.6,0-.2,0-.4,0-.6,0h-2.5v3.6h2.3Z"/>
          </g>
          <g>
            <path class="st15" d="M216.5,254c-.2-.1-.3-.3-.4-.5l-3.7-8.2v8.5c0,.2,0,.3-.2.4-.1,0-.3.1-.5.1s-.4,0-.5-.1c-.1,0-.2-.2-.2-.4v-9.3c0-.3.1-.6.4-.8s.5-.3.8-.3.5,0,.7.2c.2.2.4.4.6.7l3.6,7.9,3.6-7.9c.1-.3.3-.5.6-.7.2-.2.5-.2.7-.2s.6.1.8.3c.2.2.4.5.4.8v9.3c0,.2,0,.3-.2.4-.1,0-.3.1-.5.1s-.4,0-.5-.1c-.1,0-.2-.2-.2-.4v-8.5l-3.7,8.2c0,.2-.2.4-.4.5-.2.1-.4.2-.5.2s-.4,0-.5-.2Z"/>
            <path class="st15" d="M225,250.7c-.1,0-.2-.2-.2-.4s0-.3.2-.4c.1-.1.3-.2.5-.2h3.5c.2,0,.3,0,.5.2.1.1.2.2.2.4s0,.3-.2.4c-.1,0-.3.1-.5.1h-3.5c-.2,0-.3,0-.5-.1Z"/>
          </g>
          <g>
            <path class="st15" d="M253.2,254c-.2-.1-.3-.3-.4-.5l-3.7-8.2v8.5c0,.2,0,.3-.2.4-.1,0-.3.1-.5.1s-.4,0-.5-.1c-.1,0-.2-.2-.2-.4v-9.3c0-.3.1-.6.4-.8.2-.2.5-.3.8-.3s.5,0,.7.2c.2.2.4.4.6.7l3.6,7.9,3.6-7.9c.1-.3.3-.5.6-.7s.5-.2.7-.2.6.1.8.3c.2.2.4.5.4.8v9.3c0,.2,0,.3-.2.4-.1,0-.3.1-.5.1s-.4,0-.5-.1c-.1,0-.2-.2-.2-.4v-8.5l-3.7,8.2c0,.2-.2.4-.4.5-.2.1-.4.2-.5.2s-.4,0-.5-.2Z"/>
            <path class="st15" d="M266,254.2c-.1-.1-.2-.3-.2-.4v-2.7h-2.8c-.2,0-.3,0-.4-.2-.1-.1-.2-.2-.2-.4s0-.3.2-.4c.1-.1.3-.2.4-.2h2.8v-2.7c0-.2,0-.3.2-.4.1-.1.2-.2.4-.2s.3,0,.4.2c.1.1.2.3.2.4v2.7h2.8c.2,0,.3,0,.4.2.1.1.2.2.2.4s0,.3-.2.4c-.1.1-.3.2-.4.2h-2.8v2.7c0,.2,0,.3-.2.4-.1.1-.2.2-.4.2s-.3,0-.4-.2Z"/>
          </g>
          <polyline class="st3" points="252.4 217.5 256.9 223.5 261.9 214.5 266.9 214.5"/>
        </g>
      </g>
    </g>
  </g>
  <g id="Character">
    <g>
      <g>
        <g>
          <g>
            <path class="st10" d="M278,393s-4.4,6.8-8.1,9.6c-3.6,2.9-12.1,7-14.5,8.9-2.4,1.9-1.3,3.6-.5,4.4.8.8,11.8,1.4,17.7,1.4,6,0,16.7-2.5,16.7-2.5,0,0,4.8.8,6,.2s2-2,2.2-4.1c.2-2.1-.5-14-.5-14l-19-3.9Z"/>
            <path class="st12" d="M290.8,411.7c-4.6.7-5.5,1.8-14.5,3.1-7.4,1.1-18.3-.3-22.3-1,0,.9.5,1.6,1,2.1.8.8,11.8,1.4,17.7,1.4s16.7-2.5,16.7-2.5c0,0,4.8.8,6,.2,1.2-.6,2-1.9,2.2-4-1.5,0-4,.2-6.7.7Z"/>
          </g>
          <g>
            <path class="st8" d="M281.9,398s-5.1-2.3-8.6,1.6"/>
            <path class="st8" d="M276.1,396.1s4,3.1,3.4,6.4"/>
          </g>
          <g>
            <path class="st8" d="M278.1,401.6s-4-1.9-6.8,1.3"/>
            <path class="st8" d="M273.5,400s3.1,2.5,2.7,5.3"/>
          </g>
          <g>
            <path class="st8" d="M275.1,405.2s-3.7-1.8-9.6.3"/>
            <path class="st8" d="M270.4,403.6s2.1,2.2-.5,4.1"/>
          </g>
        </g>
        <path class="st9" d="M268.4,241s-.6,49.7.9,65.3c1.5,15.5,4.5,40.6,6.9,56.1,2.5,15.5,1,24.1,1,24.1,0,0-1.6-.5-1.5,1.6s.7,6.4.7,6.4c0,0,4.5,2.3,9.5,3.5,5,1.2,11.5,1.2,11.5,1.2,0,0,.3-8.7.4-13.1,0-4.4,0-7.7,0-7.7l.9-49.3s7.8,53.7,8.2,56.8c.4,3.1-1.4,5.2-1.1,7.4.3,2.1,1.2,6.7,1.2,6.7,0,0,4.8-3.4,9.9-1.9,5.2,1.5,10.6,4.6,10.6,4.6,0,0,.8-1,1.9-5.9,1.1-4.9,0-8.2-.1-11.8,0-3.6-1.9-56.1-1.6-57.4s2.5-49.7,2.5-49.7c0,0,1.8-19.3,1.4-25.7-.4-6.4-1.7-13.1-1.7-13.1,0,0-29.6,1.3-44.2,1.2-14.6,0-17.6-.5-17.6-.5l.3,1.3Z"/>
        <path class="st12" d="M330,239s-29.6,1.3-44.2,1.2c-14.6,0-17.6-.5-17.6-.5l.3,1.3s0,1.5,0,4.1c2.8.8,9.9,2.2,26.2,1.9,19.5-.4,32.4-2.8,36.2-3.6-.4-2.6-.7-4.3-.7-4.3Z"/>
        <polygon class="st10" points="292.1 247.7 284 247.7 284.1 243.2 292.2 243.2 292.1 247.7"/>
        <path class="st11" d="M289.4,272.9l5.8,4.3s1.6,34.9,3.6,51.9"/>
        <line class="st11" x1="285.1" y1="269.7" x2="287" y2="271.1"/>
        <path class="st11" d="M326.5,367.6c0,1.2,0,2.4.1,3.4"/>
        <path class="st11" d="M326.7,293.2c-.8,14.3-1.8,30-2.4,35.6-.9,9,1.1,23.4,2,34.8"/>
        <path class="st11" d="M328.2,266s-.6,11.4-1.4,24.7"/>
        <path class="st11" d="M309,247.6s0,7.5,0,14.9"/>
        <line class="st11" x1="310.7" y1="247.6" x2="312.8" y2="256.3"/>
        <line class="st11" x1="273.2" y1="247.7" x2="271.2" y2="258.8"/>
        <line class="st11" x1="275.1" y1="247.9" x2="274.7" y2="253.6"/>
        <path class="st11" d="M286.8,248.4s-.9,15.5-.1,16.7,2.9,3.1,2.9,3.1"/>
        <path class="st11" d="M324.4,261.6c.9.9,2,1.8,3.2,2.6"/>
        <path class="st11" d="M318.7,246s-.7,7.7,4.2,13.9"/>
      </g>
      <path class="st10" d="M282,158.5s-19.8,8.4-20.1,9.6c-.3,1.2-.9,50.2-.9,50.2,0,0-11.9-.3-13.2,5.6s1.8,10.3,6.8,12.5c5,2.2,11.4-1.2,11.4-1.2,0,0-1.5,3.9-.6,5.4s3.6,2.2,4.3,2.2,20.6.8,34.1.5c13.6-.2,20.4-1.7,22.6-4.1,2.2-2.4.2-11.5.2-11.5h9.2s-.4,7.1,8.3,8.6c8.7,1.5,13.9-7.6,9.9-23.7-4.1-16.2-18.8-44.1-21.2-47-2.4-2.9-20.9-10.3-20.9-10.3l-30,3.3Z"/>
      <path class="st11" d="M333.2,220.5s9.6-9.3,15.5-7.3"/>
      <path class="st11" d="M334.8,217.1s5.1-6.2,9-6.7"/>
      <line class="st11" x1="266.1" y1="235.2" x2="266.3" y2="219.9"/>
      <polygon class="st12" points="286.3 163.3 289.3 169.7 283.5 232.8 288.5 241.6 294.4 231.4 292 170.4 295.8 162.7 290.9 155.9 286.3 163.3"/>
      <g>
        <path class="st10" d="M308.9,125.9l-.4,24.2-16.8,9.9-7.3-7.6v-7.6c.1,0,2.3,3.1,8.9.8,6.6-2.4,8.8-4.2,9.5-9,.6-4.8.4-19.7.4-19.7h6.6s-.7,9-.7,9Z"/>
        <polygon class="st12" points="304.7 135.1 308.7 135.1 308.9 125.9 309.6 116.8 304.3 116.8 304.7 135.1"/>
        <path class="st10" d="M311,118l-.2,9s-.8,1.7-2.4,1.8c-1.6.2-3.3-1.3-3.3-1.3l.2-9.6h5.7Z"/>
        <path class="st10" d="M291.4,150.7h0c-7.4,0-13.4-6.1-13.2-13.6l.4-20.6h27s-.4,20.7-.4,20.7c-.1,7.5-6.3,13.6-13.7,13.6Z"/>
        <path class="st12" d="M290.6,150.7h1.6c7,0,12.8-5.7,12.9-12.8l.4-21.4h-8.7s0,1.8,0,1.8c0,0-.2,1.7,1.6,3.3,1.8,1.7,3.6,3.5,3.6,3.5,0,0,.4,8.7-1.1,12-1.5,3.3-4.8,1.7-4.8,1.7,0,0-4.3-5.2-9.8-5s-8.1,4.1-8.1,4.1c-.1,7.1,5.4,12.8,12.4,12.8Z"/>
        <polyline class="st11" points="285 123.8 284.1 134.3 289.8 132.7"/>
        <path class="st13" d="M282.2,137.4s2.1,3.7,9.8.4"/>
        <path class="st14" d="M292.1,125.4c0,.9-.5,1.6-1,1.6-.6,0-1-.7-1-1.6,0-.9.5-1.6,1-1.6.6,0,1,.7,1,1.6Z"/>
        <path class="st14" d="M282.8,125.4c0,.9-.5,1.6-1,1.6-.6,0-1-.7-1-1.6,0-.9.5-1.6,1-1.6.6,0,1,.7,1,1.6Z"/>
        <path class="st11" d="M288.9,121s4-1.8,6.5,1.3"/>
        <path class="st11" d="M284.3,121.6s-3.4-2.2-4.2.4"/>
        <g>
          <path class="st9" d="M285.3,95.5s-5,2.1-6.5,5.8c-1.5,3.8-2,16.7-2,16.7,0,0-9.3,1.9-7.9,2.1,1.4.2,47.6,0,47.6,0-1.4-2.5-2.2-2.1-2.6-4.2-.4-2.1-.6-12.5-2.6-16.7-2-4.2-17-9.4-26-3.8Z"/>
          <path class="st11" d="M292.4,95.1s-1,.3-2.6,1.3c-1.6,1-2.4,2.9-2.4,2.9,0,0,6.5.2,6.4,3.4,0,3.2-.3,14.9-.3,14.9"/>
        </g>
      </g>
      <polygon class="st10" points="284.2 150.5 292.1 157.8 308.9 147.3 312 155.2 298.8 168.5 291.6 160 284 166.6 282 158.5 284.2 150.5"/>
      <path class="st11" d="M271.9,202.6s5.2,9.7,8.7,13.6c3.5,3.9,5.1,4.1,5.1,4.1l-9.4,1.5-7.2-22.4,2.9,3.3Z"/>
      <polygon class="st12" points="227.3 178.9 252.5 227.9 280.9 224.8 261 175.9 227.3 178.9"/>
      <g>
        <path class="st10" d="M241.4,215.7s-2,.9-1.9,2.3c.1,1.4.2,2.1,1.3,1.8s6.9-3.7,8-4.7,2-2,.5-2c-1.5,0-5.5,1.3-7.9,2.6Z"/>
        <path class="st10" d="M241.1,219.8s.3,3.4,1,3.7c.7.3,8.2-4.3,9.5-5.3s1.6-1.8.7-2.3c-.9-.5-7.2,2.3-7.7,2.5s-3.5,1.4-3.5,1.4Z"/>
        <path class="st10" d="M242.1,223.5s1.5,2.1,2.3,2.5c.7.4,7.9-4.4,8.8-5.4.9-1,.9-2.2.3-2.4-.6-.2-1.8,0-1.8,0,0,0-7.6,4.3-9.5,5.3Z"/>
        <path class="st10" d="M244.4,226.1s1.1,1.2,2.2,1.5c1,.3,5.3-1.7,6.8-3.4,1.5-1.7-.9-2.3-.9-2.3,0,0-6.7,3.7-8,4.2Z"/>
      </g>
      <path class="st15" d="M241.4,182.3c.5.7.4,1.5-.2,1.9-.6.4-1.4.2-1.8-.5-.5-.7-.4-1.5.2-1.9.6-.4,1.4-.2,1.8.5Z"/>
      <path class="st15" d="M252.7,180.8c.5.7.4,1.5-.2,1.9-.6.4-1.4.2-1.8-.5-.5-.7-.4-1.5.2-1.9.6-.4,1.4-.2,1.8.5Z"/>
      <path class="st10" d="M325.4,180.1c-1.2,4.1-2.5,9.2-2.6,11.4-.2,4.1,10.5,29,10.5,29l2.7,7.2"/>
      <path class="st10" d="M327.1,174.2s-.4,1.3-.9,3.1"/>
      <path class="st10" d="M336.8,220.7s4.1-.6,5.8,2c1.7,2.6,1.3,6.9-.3,9.2-1.7,2.3-4.7.6-4.7.6,0,0,1.4-5.7-.8-11.8Z"/>
      <g>
        <path class="st10" d="M309.7,198s-1.2-4.1,5-6.7c6.2-2.6,10.5-1.1,10.6,2.6,0,0-1.8,3.4-5.3,5.4-3.4,2-9.1,1.1-10.3-1.3Z"/>
        <polygon class="st10" points="342 243.9 348 255.9 344.2 258 342 243.9"/>
        <path class="st10" d="M304.9,195.9l25.3,67.9s2.5,3.3,7.7,3c2.9-.2,5.6-2.3,7.3-4,1.3-1.4,1.8-3.4,1.2-5.2l-21.1-63.7s-12.5,9.1-20.4,1.9Z"/>
      </g>
      <g>
        <path class="st10" d="M337.9,221s-5.1-2.3-6.8-2.3c-1.6,0-10.1,5.1-11.9,6.4-1.8,1.3-1.7,2-1,2.1.6.2,1.5.3,1.5.3,0,0-2.1,2.3-1.5,3.3s2.6.8,2.6.8c0,0-1.5,1.8.1,2.3s3.7.7,3.7.7c0,0-2.8,1.5-.5,2.3,2.3.8,10.1-2.1,13-3.3,2.9-1.1,3-3.6,3-7.4,0-3.8-2.2-5.2-2.2-5.2Z"/>
        <path class="st0" d="M319.7,227.5s8-4,9.7-4.3,2.6-.4,2.6-.4"/>
        <path class="st0" d="M320.7,231.6s6.6-2.8,9.1-3.3,3.2-.6,3.2-.6"/>
        <path class="st0" d="M324.6,234.6s6.5-1.1,9.3-2.9"/>
      </g>
      <g>
        <path class="st10" d="M307,399.9s-2.1,7.6-2.9,8.6-5.8,7.4-5.8,9.6c0,2.3,1.6,3.9,5.6,4.8,4,.9,10.3,1.2,15.2-1,5-2.3,7.2-3,8.5-6.5,1.3-3.5.4-15.1.4-15.1,0,0-15.5-11.4-21-.5Z"/>
        <path class="st12" d="M327.6,415.5c.4-1.2.6-3.4.7-5.7-.9,1.3-2.1,3.2-3.5,4.7-2.4,2.7-6.7,5.7-14.7,6.3-5.9.4-9.8-2.1-11.5-3.5-.1.4-.2.7-.2.9,0,2.3,1.6,3.9,5.6,4.8,4,.9,10.3,1.2,15.2-1,5-2.3,7.2-3,8.5-6.5Z"/>
        <g>
          <path class="st8" d="M317.9,397.4s-6.8-.3-8.9,3.7"/>
          <path class="st8" d="M310.5,397.5s5.8,1.3,6.7,4"/>
        </g>
        <g>
          <path class="st8" d="M316.6,402.3s-6.8-.3-8.9,3.7"/>
          <path class="st8" d="M309.2,402.5s5.8,1.3,6.7,4"/>
        </g>
        <g>
          <path class="st8" d="M315.2,407.3s-6.8-.3-8.9,3.7"/>
          <path class="st8" d="M307.8,407.4s5.8,1.3,6.7,4"/>
        </g>
      </g>
    </g>
  </g>
</svg>