<?xml version="1.0" encoding="UTF-8"?>
<svg xmlns="http://www.w3.org/2000/svg" version="1.1" xmlns:xlink="http://www.w3.org/1999/xlink" viewBox="0 0 412.1 333.2">
  <!-- Generator: Adobe Illustrator 29.0.0, SVG Export Plug-In . SVG Version: 2.1.0 Build 186)  -->
  <defs>
    <style>
      .st0, .st1, .st2, .st3, .st4, .st5, .st6, .st7, .st8, .st9, .st10, .st11, .st12, .st13 {
        stroke: #263238;
      }

      .st0, .st14, .st15, .st10, .st11 {
        fill: none;
      }

      .st0, .st4, .st5 {
        stroke-miterlimit: 10;
      }

      .st16 {
        clip-path: url(#clippath-4);
      }

      .st17, .st12 {
        fill: #263238;
      }

      .st18, .st19, .st20, .st21 {
        opacity: .3;
      }

      .st1, .st2, .st3, .st14, .st6, .st7, .st8, .st15, .st9, .st10, .st11, .st12, .st13 {
        stroke-linecap: round;
        stroke-linejoin: round;
      }

      .st1, .st22, .st23, .st5, .st24, .st21 {
        fill: #16a34a;
      }

      .st2, .st3, .st7, .st15, .st11 {
        stroke-width: .8px;
      }

      .st2, .st4, .st25, .st6 {
        fill: #92e3a9;
      }

      .st26, .st3, .st20, .st8, .st27 {
        fill: #fff;
      }

      .st19 {
        fill: #757575;
      }

      .st22 {
        opacity: .4;
      }

      .st28 {
        clip-path: url(#clippath-1);
      }

      .st14, .st15 {
        stroke: #7f7f7f;
      }

      .st29 {
        clip-path: url(#clippath-5);
      }

      .st30 {
        clip-path: url(#clippath-3);
      }

      .st7, .st9 {
        fill: #999;
      }

      .st24 {
        opacity: .2;
      }

      .st31 {
        clip-path: url(#clippath-2);
      }

      .st27 {
        opacity: .7;
      }

      .st32 {
        clip-path: url(#clippath);
      }

      .st13 {
        fill: #858585;
      }
    </style>
    <clipPath id="clippath">
      <path class="st6" d="M213.8,146c.5,1.8.9,3.5,1.4,5.2,5,18,11.5,52.2,11.5,52.2,32,6.8,65.7,0,65.7,0,.2-7.5-.7-17.3-1.7-27.7,5.2-1.5,9-6.3,9.2-14.3.2-9.8-1.5-27.3-2.5-35.5-.9-7.2-.3-11.5-11.4-17-5.6-3.2-14.9-4.8-26.3-6.3-22.5-3-38.7,1.5-44.5,4-4.6-1.2-5.8,4.2-5.8,4.2-2.5-1.9-5.5,6.2-5.5,6.2-7.4,9.4-13.2,25.3-15.2,31-.4,1.2-1.2,2.3-2.3,3.1-5.3,4-2.3,9-2.3,9l10.7,3.3s5.2,1.4,9.2-5.5c3.3-5.7,8.8-15.4,9.7-12Z"/>
    </clipPath>
    <clipPath id="clippath-1">
      <path class="st1" d="M261.3,102.9c-.9-3.3-5.2-4.2-5.2-4.2-20.5-3.5-24.8,4-24.8,4-4.2,11.6,0,21,0,21,0,0,5.8-2.4,6.8,0,1,2.4,2.8,7.6,2.8,7.6,0,0,4-2,7.2-6.2,3.2-4.2,10.6,0,10.6,0,4.8-8.3,2.6-22.1,2.6-22.1ZM256.3,102.7c-7.9,24.9-14.9,26-14.9,26-2.3-9.2-4.3-7.2-7.5-12.9-2.5-4.6-1.7-10.4-1.2-12.5.1-.5.4-1,.9-1.2,7.9-4,17.5-2.5,21.5-1.7,1,.2,1.6,1.3,1.3,2.3Z"/>
    </clipPath>
    <clipPath id="clippath-2">
      <circle class="st2" cx="128" cy="47.1" r="24.9" transform="translate(52.5 160.7) rotate(-76.6)"/>
    </clipPath>
    <clipPath id="clippath-3">
      <circle class="st2" cx="304.5" cy="41.5" r="21.2" transform="translate(194.8 328.5) rotate(-76.8)"/>
    </clipPath>
    <clipPath id="clippath-4">
      <circle class="st2" cx="360.6" cy="86.4" r="21.2" transform="translate(193 417.2) rotate(-76.6)"/>
    </clipPath>
    <clipPath id="clippath-5">
      <rect class="st4" x="333.5" y="183" width="29.4" height="14.9" transform="translate(696.5 380.9) rotate(180)"/>
    </clipPath>
  </defs>
  <g id="Background_Simple">
    <g>
      <path class="st25" d="M139.5,245.4C91.8,230.7-17.3,196.3,3.5,99.5,27.5-12.4,159.7,63.5,240.8,25.6c57.4-26.8,177.2-55,168.4,65.9-8.6,117.6-13.5,202.7-83.1,222.9-69.7,20.2-114.6-46.8-186.6-69Z"/>
      <path class="st27" d="M139.5,245.4C91.8,230.7-17.3,196.3,3.5,99.5,27.5-12.4,159.7,63.5,240.8,25.6c57.4-26.8,177.2-55,168.4,65.9-8.6,117.6-13.5,202.7-83.1,222.9-69.7,20.2-114.6-46.8-186.6-69Z"/>
    </g>
  </g>
  <g id="Floor">
    <line class="st10" x1="12.2" y1="330.3" x2="425.8" y2="330.3"/>
  </g>
  <g id="Plant">
    <g>
      <path class="st25" d="M83,216.3c6.1,5,4,34.4,22.8,21.8,18.7-12.6-13.2-20.1-11.4-27.3,2.6-10,44.8,2,37.7-17.2-7.1-19.2-32.3,9.7-39,2.5-6.1-6.6,24.3-30.4,10.1-34.4-14.2-4-11.1,30.4-20.2,30.4-7.1,0-5.8-32.9-18.8-21.2-13,11.6,15.5,23.1,11.7,30.3-2.8,5.5-25.3-8.1-24.3,4.6s25,5.3,31.4,10.6Z"/>
      <path class="st10" d="M87,201.2s-13.7,16.6-12.1,61.6"/>
      <g>
        <g>
          <path class="st25" d="M113.7,224.7c-2.4-4.9-22.5-8.2-11-18.8,11.5-10.6,11.4,12.1,16.6,12,7.2-.1,5.8-30.4,17.6-22.6,11.8,7.8-11.7,20.2-7.9,25.8,3.5,5.1,24.3-11.5,24.7-1.3.5,10.2-22.2,2.6-23.6,8.8-1.1,4.8,21.2,9.1,11.3,16-9.9,6.9-13.1-14.1-18.5-12.7-4.1,1,1.4,18.3-6.9,15.6-8.3-2.7.4-17.7-2.2-22.8Z"/>
          <path class="st20" d="M113.7,224.7c-2.4-4.9-22.5-8.2-11-18.8,11.5-10.6,11.4,12.1,16.6,12,7.2-.1,5.8-30.4,17.6-22.6,11.8,7.8-11.7,20.2-7.9,25.8,3.5,5.1,24.3-11.5,24.7-1.3.5,10.2-22.2,2.6-23.6,8.8-1.1,4.8,21.2,9.1,11.3,16-9.9,6.9-13.1-14.1-18.5-12.7-4.1,1,1.4,18.3-6.9,15.6-8.3-2.7.4-17.7-2.2-22.8Z"/>
        </g>
        <path class="st10" d="M124,224.9s-38.9-4-42.7,37.9"/>
      </g>
      <g>
        <g>
          <path class="st23" d="M49.9,220.3c-6.1,5-4,34.4-22.8,21.8-18.7-12.6,13.2-20.1,11.4-27.3-2.6-10-44.8,2-37.7-17.2,7.1-19.2,32.3,9.7,39,2.5,6.1-6.6-24.3-30.4-10.1-34.4,14.2-4,11.1,30.4,20.2,30.4,7.1,0,5.8-32.9,18.8-21.2,13,11.6-15.5,23.1-11.7,30.3,2.8,5.5,25.3-8.1,24.3,4.6-1,12.6-25,5.3-31.4,10.6Z"/>
          <path class="st21" d="M49.9,220.3c-6.1,5-4,34.4-22.8,21.8-18.7-12.6,13.2-20.1,11.4-27.3-2.6-10-44.8,2-37.7-17.2,7.1-19.2,32.3,9.7,39,2.5,6.1-6.6-24.3-30.4-10.1-34.4,14.2-4,11.1,30.4,20.2,30.4,7.1,0,5.8-32.9,18.8-21.2,13,11.6-15.5,23.1-11.7,30.3,2.8,5.5,25.3-8.1,24.3,4.6-1,12.6-25,5.3-31.4,10.6Z"/>
        </g>
        <path class="st10" d="M45.6,205.3s17.7,23.6,21.8,63.1"/>
      </g>
      <path class="st1" d="M58.2,330.1h27.6c5.3,0,9.7-4,10.1-9.3l4.3-51c.5-5.9-4.2-11-10.1-11h-36.3c-6,0-10.6,5.1-10.1,11l4.3,51c.4,5.3,4.9,9.3,10.1,9.3Z"/>
    </g>
  </g>
  <g id="Character">
    <g>
      <g>
        <path class="st12" d="M266.9,259.1c-9.2,0-35.9-6-35.9-6h71.7s-26.6,6-35.9,6Z"/>
        <rect class="st13" x="258.7" y="256.1" width="16.4" height="11.3"/>
        <rect class="st9" x="256.2" y="267.4" width="21.3" height="48.5"/>
        <path class="st13" d="M306.9,238.8h-13.8c1.5-9.5,2.7-19.3,3.4-28.9h13.8c-.7,9.6-1.8,19.4-3.4,28.9Z"/>
        <path class="st13" d="M327.9,124.5h-59.7c-7,0-11.6,5.9-10.2,12.9,3.8,21.5,6.1,42.7,6.8,64.5.1,6.3,4.9,11.2,11.3,11.2h50.2c6.3,0,12-4.9,12.8-11.2,2.4-21.6,3.3-42.8,2.6-64.5-.3-7-6.8-12.9-13.8-12.9Z"/>
        <path class="st9" d="M331.2,137.4c.7,21.7-.2,43-2.6,64.5-.8,6.3-6.5,11.2-12.8,11.2h-39.7c-6.3,0-11.1-4.9-11.3-11.2-.7-21.8-3-43.1-6.8-64.5-1.4-7,3.2-12.9,10.2-12.9h49.1c7,0,13.5,5.9,13.8,12.9Z"/>
        <path class="st12" d="M302.7,324.6c0,1.1-1,2-2.2,1.7-6.5-1.4-26.1-5.5-33.7-5.5s-27.2,4.1-33.7,5.5c-1.1.2-2.2-.6-2.2-1.7h0c0-2.2,1.5-4.1,3.7-4.6,7.6-1.6,25.1-5.2,32.2-5.2s24.5,3.6,32.2,5.2c2.2.5,3.7,2.4,3.7,4.6h0Z"/>
        <g>
          <path class="st13" d="M231,320.9c-3.4,0-6.1,2.7-6.1,6.1s2.7,6.1,6.1,6.1,6.1-2.7,6.1-6.1-2.7-6.1-6.1-6.1ZM231,330.4c-1.8,0-3.3-1.5-3.3-3.3s1.5-3.3,3.3-3.3,3.3,1.5,3.3,3.3-1.5,3.3-3.3,3.3Z"/>
          <path class="st13" d="M266.9,320.9c-3.4,0-6.1,2.7-6.1,6.1s2.7,6.1,6.1,6.1,6.1-2.7,6.1-6.1-2.7-6.1-6.1-6.1ZM266.9,330.4c-1.8,0-3.3-1.5-3.3-3.3s1.5-3.3,3.3-3.3,3.3,1.5,3.3,3.3-1.5,3.3-3.3,3.3Z"/>
          <path class="st13" d="M302,320.9c-3.4,0-6.1,2.7-6.1,6.1s2.7,6.1,6.1,6.1,6.1-2.7,6.1-6.1-2.7-6.1-6.1-6.1ZM302,330.4c-1.8,0-3.3-1.5-3.3-3.3s1.5-3.3,3.3-3.3,3.3,1.5,3.3,3.3-1.5,3.3-3.3,3.3Z"/>
        </g>
        <path class="st9" d="M285.1,236.8c-24.1.7-47.7-.3-71.7-3.2-4.9-.7-8.8,2.7-8.8,7.6v1.2c0,4.9,3.9,9.5,8.8,10.2,24,2.9,47.5,3.9,71.7,3.2v-18.9Z"/>
        <path class="st13" d="M322.7,252.2c-14.9,1.9-29.6,3.1-44.6,3.7-3.6.1-6.6-2.8-6.6-6.5v-5.7c0-3.6,3-6.6,6.6-6.7,15-.6,29.7-1.9,44.6-3.7,3.6-.5,6.6,2,6.6,5.6v5.7c0,3.6-2.9,7.1-6.6,7.6Z"/>
      </g>
      <g>
        <g>
          <g>
            <path class="st8" d="M223.2,330c0-3.3-.7-10-4.7-18.7l-5.1-18.5-16,6.8,4.5,14.2s-13.8,6.6-18.8,8.3c-3.4,1.2-13.5,3.5-13,7.8h0c0,1.3,1,2.3,2.3,2.3h48.5c1.3,0,2.4-1.1,2.3-2.3Z"/>
            <path class="st1" d="M214.4,319.2c-2.5,1.8-15.8,4.2-12.5,1.5,3.3-2.7,0-6.8,0-6.8,0,0-13.8,6.6-18.8,8.3-3.4,1.2-13.5,3.5-13,7.8,0,1.3,1,2.3,2.3,2.3h48.5c1.3,0,2.4-1.1,2.3-2.3,0-2.8-.5-8-3.1-14.8-2.8,0-3.2,2.1-5.7,4Z"/>
          </g>
          <g>
            <path class="st8" d="M234.7,332.4h35.5c.7,0,1.4-.5,1.5-1.2.5-2.8.4-9.1-2.8-17.5l-.3-17-18.2,3.1,2.3,14.5s-7.3,8.1-10.8,9.5c-2.4,1-8,1.1-8.7,7-.1.9.6,1.7,1.5,1.7Z"/>
            <path class="st1" d="M263,319.3c-3.8,2.6-6.5,2.9-4.8-1,1.7-3.9-5.4-4.1-5.4-4.1,0,0-7.3,8.1-10.8,9.5-2.4,1-8,1.1-8.7,7-.1.9.6,1.7,1.5,1.7h35.5c.7,0,1.4-.5,1.5-1.2.5-2.8.4-9.1-2.8-17.5-2.7.7-2.2,3-6,5.6Z"/>
          </g>
          <path class="st12" d="M231.2,202.5s-3.6,3.7-18.2,6c-14.6,2.3-45,9.7-44.6,21.7.3,12,28.3,76,28.3,76,0,0,14-2.7,20.5-6.7,0,0-11.3-45.7-19.7-57.7,0,0,37.9-4.7,58.9-13.3,21-8.7,8.6-28.4,8.6-28.4l-33.8,2.4Z"/>
          <path class="st12" d="M255,200.9s5.4,9,1.4,14c-4,5-26.8,14.3-24.3,25.7s11.1,27.3,16.7,65.3c0,0,12.9-2,21.6-5.7,0,0,1.4-38.7-8.6-55.3,0,0,28.8-5.3,31.7-15,2.9-9.7-2.5-24.4-2.6-29.7l-35.8.7Z"/>
          <g>
            <path class="st15" d="M237.7,215.2c-.6,0-1.3,0-2,0"/>
            <path class="st15" d="M239,209.2s5.9,1.7,8.2,9.4c.2.6-.6,1.1-1,.6-1.2-1.2-3.2-2.8-5.7-3.6"/>
          </g>
          <path class="st15" d="M194.7,241.5c0-3.3-14-5-10.2-8s12.2,6.8,12.2,6.8"/>
          <path class="st15" d="M263.5,254.5c0-3.7-13.4-5.8-12.7-9.8.7-4,9.2,3.9,9.2,3.9"/>
          <path class="st9" d="M195.2,306.4l1.5,3.4c.2.4.6.6,1,.5,3.2-.7,16.7-3.9,21.4-7.3.3-.2.4-.6.3-.9l-.9-3.8c-.1-.6-.8-.8-1.3-.6-2.1,1.2-8.1,3.9-21.5,7.5-.5.1-.8.7-.6,1.2Z"/>
          <path class="st9" d="M247.2,303.6c0-.5.4-.9.9-.8,1,.4,2.6.6,5,0,3.7-.8,14.3-4.2,17.5-5.2.4-.1.9.2.9.7v4.4c0,.3-.2.5-.4.6-2.5,1.1-15.8,6.8-22.7,5.2-.3,0-.5-.3-.5-.6l-.7-4.5Z"/>
          <g>
            <path class="st14" d="M257.8,211.1c-.1,1.4-.6,2.7-1.5,3.8-2.9,3.6-15.9,9.6-21.7,17"/>
            <path class="st14" d="M257.2,206c.2.7.4,1.5.5,2.3"/>
          </g>
        </g>
        <path class="st10" d="M180.6,324.5s1,1.6,1.7,4.8h36.1s0-2.4,2-4.1"/>
        <path class="st10" d="M243.4,324.5s5,.4,6.9,4.8h18.9s1-2.2,1-4.1"/>
      </g>
      <g>
        <g>
          <g>
            <path class="st25" d="M213.8,146c.5,1.8.9,3.5,1.4,5.2,5,18,11.5,52.2,11.5,52.2,32,6.8,65.7,0,65.7,0,.2-7.5-.7-17.3-1.7-27.7,5.2-1.5,9-6.3,9.2-14.3.2-9.8-1.5-27.3-2.5-35.5-.9-7.2-.3-11.5-11.4-17-5.6-3.2-14.9-4.8-26.3-6.3-22.5-3-38.7,1.5-44.5,4-4.6-1.2-5.8,4.2-5.8,4.2-2.5-1.9-5.5,6.2-5.5,6.2-7.4,9.4-13.2,25.3-15.2,31-.4,1.2-1.2,2.3-2.3,3.1-5.3,4-2.3,9-2.3,9l10.7,3.3s5.2,1.4,9.2-5.5c3.3-5.7,8.8-15.4,9.7-12Z"/>
            <g class="st32">
              <path class="st18" d="M196.9,158.9s-.2-5-4.2-5.9,1.1-2.4,4.2-1.6c3.1.7,2.4-2,5.1-6.5,2.7-4.5,4-8.1,6.3-5.5,2.3,2.6,4.6,3,5.6,6.5s-3.8,12-3.8,12l-7.5,5.8-3.8,2.1h-5.7l-1.9-4.9,5.7-2Z"/>
            </g>
            <path class="st10" d="M213.8,146c.5,1.8.9,3.5,1.4,5.2,5,18,11.5,52.2,11.5,52.2,32,6.8,65.7,0,65.7,0,.2-7.5-.7-17.3-1.7-27.7,5.2-1.5,9-6.3,9.2-14.3.2-9.8-1.5-27.3-2.5-35.5-.9-7.2-.3-11.5-11.4-17-5.6-3.2-14.9-4.8-26.3-6.3-22.5-3-38.7,1.5-44.5,4-4.6-1.2-5.8,4.2-5.8,4.2-2.5-1.9-5.5,6.2-5.5,6.2-7.4,9.4-13.2,25.3-15.2,31-.4,1.2-1.2,2.3-2.3,3.1-5.3,4-2.3,9-2.3,9l10.7,3.3s5.2,1.4,9.2-5.5c3.3-5.7,8.8-15.4,9.7-12Z"/>
          </g>
          <path class="st18" d="M292.5,203.5c.1-5.4-.3-12.1-.9-19.2,1.1,15.2-30.6,20-31.6,11.7-1-8.3,30.8-20.2,13.5-16-15.1,3.6-44.4.2-51.6-.8,2.8,13,4.9,24.3,4.9,24.3,32,6.8,65.7,0,65.7,0Z"/>
          <path class="st18" d="M277.9,127s-4.5,13.2-4.5,20.2c0,7-12.7,11.7-12.7,11.7,6.8-1.4,13.4-3.2,16.6-4.1,1.1-.3,1.9-1.4,1.8-2.6-.6-7.2-1.3-16.8-1.1-25.3h0Z"/>
        </g>
        <path class="st11" d="M209.6,123.6s-.2,9.5,3.3,18.3c.3.8-.6,1.6-1.3,1-1.7-1.2-4.1-3.7-6.3-8.8"/>
        <path class="st11" d="M294.5,164.5c-2.6-8.7-7.2-10.9-10.7-11.2-.6,0-.8-.8-.3-1.1,2.1-1.1,6.1-2,11,3.5"/>
        <path class="st7" d="M243.7,139.4c0,.8-.7,1.5-1.5,1.5s-1.5-.7-1.5-1.5.7-1.5,1.5-1.5,1.5.7,1.5,1.5Z"/>
        <path class="st7" d="M245.8,156.4c0,.8-.7,1.5-1.5,1.5s-1.5-.7-1.5-1.5.7-1.5,1.5-1.5,1.5.7,1.5,1.5Z"/>
        <path class="st9" d="M250.8,197.5c0,.8-.7,1.5-1.5,1.5s-1.5-.7-1.5-1.5.7-1.5,1.5-1.5,1.5.7,1.5,1.5Z"/>
        <g>
          <path class="st8" d="M222.1,167.6s-4.9,4.7-2.6,4.8c2.3,0,5.3-3.1,8-3.5s-1.7-2-1.7-2l-3.8.8Z"/>
          <g>
            <path class="st8" d="M250.7,162.3c-.4-.4-1-.6-1.6-.5-2.4.2-9.3.7-11.9.6-4.6-.3-18.2-3.2-18.2-3.2-.3,0-.6,0-.9,0l-8.4,2.5c-.3,0-.6.2-.8.5l-5.1,4.7c-.2.2-.3.3-.4.5l-1.1,1.9c-.4.8-.3,1.8.4,2.5h0l8.4.3c.5,0,1-.2,1.4-.5l2.5-2.1c.2-.1.3-.3.4-.5.6-1,3-4.3,6.7-4,0,0-8,4.2-6.5,6s7.6-3.2,9.6-2.8c2,.5,2.1,5.4,13,3.6.5,0,1,0,1.5,0l9.9,2.8c1.2.3,2.5-.4,2.8-1.6.7-2.9,1.4-7.9-1.7-10.7Z"/>
            <path class="st8" d="M220.2,161l-2.1.4c-1,.2-2,.6-2.8,1.3l-2.2,1.9c-.4.3-.7.7-1,1.2l-1.4,2.2c-.2.2-.3.5-.5.7-.9.9-3.2,3.8-.7,3.4"/>
            <path class="st8" d="M214.2,161.7l-2.2.6c-.7.2-1.3.5-1.8,1l-1.7,1.6c-.2.2-.3.3-.4.5l-2.8,3.7s-1.5,2.6,0,2.7"/>
          </g>
        </g>
        <path class="st10" d="M278,124.8c-.4,8.9.4,19.6,1,27.4.1,1.2-.6,2.2-1.8,2.6-4.4,1.3-15.3,4.3-24.2,5.4"/>
        <path class="st11" d="M278.5,118.6c-.1,1-.2,2.1-.3,3.2"/>
        <path class="st11" d="M281.8,109.3c-1.1,1-2,2.8-2.6,5.2"/>
        <path class="st26" d="M231.8,103.3s.6-2,4-3.1,15.1-2.9,21.1,0c6,2.9-5.5,18.8-5.5,18.8l-5.4,7.4-4.7,3.6-2.1-6.3-2.7-2.9s-5.9-4.9-5.4-9.7.9-7.8.9-7.8Z"/>
        <g>
          <path class="st23" d="M261.3,102.9c-.9-3.3-5.2-4.2-5.2-4.2-20.5-3.5-24.8,4-24.8,4-4.2,11.6,0,21,0,21,0,0,5.8-2.4,6.8,0,1,2.4,2.8,7.6,2.8,7.6,0,0,4-2,7.2-6.2,3.2-4.2,10.6,0,10.6,0,4.8-8.3,2.6-22.1,2.6-22.1ZM256.3,102.7c-7.9,24.9-14.9,26-14.9,26-2.3-9.2-4.3-7.2-7.5-12.9-2.5-4.6-1.7-10.4-1.2-12.5.1-.5.4-1,.9-1.2,7.9-4,17.5-2.5,21.5-1.7,1,.2,1.6,1.3,1.3,2.3Z"/>
          <g class="st28">
            <path class="st22" d="M261.3,102.9c-.9-3.3-5.2-4.2-5.2-4.2-20.5-3.5-24.8,4-24.8,4-4.2,11.6,0,21,0,21,0,0,5.8-2.4,6.8,0,1,2.4,2.8,7.6,2.8,7.6,0,0,4-2,7.2-6.2,3.2-4.2,10.6,0,10.6,0,4.8-8.3,2.6-22.1,2.6-22.1ZM256.3,102.7c-7.9,24.9-14.9,26-14.9,26-2.3-9.2-4.3-7.2-7.5-12.9-2.5-4.6-1.7-10.4-1.2-12.5.1-.5.4-1,.9-1.2,7.9-4,17.5-2.5,21.5-1.7,1,.2,1.6,1.3,1.3,2.3Z"/>
          </g>
          <path class="st10" d="M261.3,102.9c-.9-3.3-5.2-4.2-5.2-4.2-20.5-3.5-24.8,4-24.8,4-4.2,11.6,0,21,0,21,0,0,5.8-2.4,6.8,0,1,2.4,2.8,7.6,2.8,7.6,0,0,4-2,7.2-6.2,3.2-4.2,10.6,0,10.6,0,4.8-8.3,2.6-22.1,2.6-22.1ZM256.3,102.7c-7.9,24.9-14.9,26-14.9,26-2.3-9.2-4.3-7.2-7.5-12.9-2.5-4.6-1.7-10.4-1.2-12.5.1-.5.4-1,.9-1.2,7.9-4,17.5-2.5,21.5-1.7,1,.2,1.6,1.3,1.3,2.3Z"/>
        </g>
        <g>
          <path class="st12" d="M227.8,64.8s-17.7,3.5-7.9,15c10.8,12.7,7.9-15,7.9-15Z"/>
          <path class="st8" d="M220.8,92.9s-4.2-17,3.8-25.2c8-8.2,16.7-9.8,23.2-5.8s9.2,14,8.2,19.2-.5,23.7-9.4,31.3c-8.9,7.7-14.4,5.8-20.3-4.7-3.9-6.9-5.7-8.8-5.4-14.8Z"/>
          <path class="st12" d="M251.8,89.5s-6.7-6.7-8.8-14.5-3.2-9.2-10.9-5.3c-7.7,3.8-19.6-1.3-16.5-11,3.3-10.2,13.3,3,23-.3,9.7-3.3,16.5,2.7,16.5,11.5,0,0,5.8,5.7,0,20.3l-3.4-.7Z"/>
          <path class="st8" d="M249.7,88.4s1.7-9.3,6.4-8.5c4.7.9,1.3,14.6-4.2,13.1"/>
          <path class="st8" d="M227.2,91.6s-1.9,8.6-1.2,10.1c.6,1.5,6.3.3,6.3.3"/>
          <path class="st8" d="M233.1,105.8s4.5,1.8,8.4-4.1"/>
          <path class="st17" d="M224.1,92.3c.2.8,0,1.5-.5,1.6-.4,0-.9-.5-1.1-1.3-.2-.8,0-1.5.5-1.6.4,0,.9.5,1.1,1.3Z"/>
          <path class="st17" d="M235.1,91.4c.2.8,0,1.5-.5,1.6-.4,0-.9-.5-1.1-1.3-.2-.8,0-1.5.5-1.6.4,0,.9.5,1.1,1.3Z"/>
          <path class="st10" d="M226.4,91.9c.2,2.3-2.1,4.3-5.1,4.7-3,.3-5.7-1.3-5.9-3.6-.2-2.3,2.2-3.3,5.2-3.6s5.6.2,5.8,2.5Z"/>
          <path class="st10" d="M240.6,90.5c.2,2.3-2.1,4.3-5.1,4.7s-5.7-1.3-5.9-3.6c-.2-2.3,2.2-3.3,5.2-3.6,3-.3,5.6.2,5.8,2.5Z"/>
          <line class="st8" x1="226.4" y1="91.9" x2="229.6" y2="91.6"/>
          <line class="st8" x1="240.2" y1="89.4" x2="251.8" y2="82.5"/>
          <line class="st8" x1="253.8" y1="100" x2="254.4" y2="101.4"/>
          <path class="st8" d="M219.9,88.3s1.8-2.3,3.9-1.2"/>
          <path class="st8" d="M238,87.3s-3.1-3-6.1-.9"/>
          <g>
            <path class="st14" d="M223.8,59.8c4.7,1.5,12.7,3.3,19.2,1.4,9.9-3,6.6,8.2,8.8,11.3"/>
            <path class="st14" d="M219.7,58.3s.8.3,2.1.8"/>
          </g>
          <g>
            <path class="st14" d="M231.7,65.4c.5-.2,1.1-.4,1.7-.6"/>
            <path class="st14" d="M220.8,64.1s2.1,3.3,8.9,1.8"/>
          </g>
          <g>
            <path class="st14" d="M246.2,70.5c.4,2.8,1.5,7,4.2,10.7"/>
            <path class="st14" d="M246,67s0,.7,0,1.8"/>
          </g>
        </g>
        <path class="st18" d="M254.9,174.2c-.8.7-.3,2,.7,2.1,6.8,0,25,0,32-.3,8.7-.5,2.1-10-5-6.4-6.5,3.4-20.1-2.2-27.8,4.7Z"/>
      </g>
      <path class="st8" d="M178.7,164.9s4.1-10.9,14.3-9.2c10.4,1.7,2.4,10.3-2.5,11.1,0,0-.7-3-11.8-1.9Z"/>
      <path class="st8" d="M170,171c-1.4,1.4-4.6,1.5-2.4-1.5,2.4-3.2,5.1-4.3,7-5.2,4.9-2.2,6.8-1.7,11.2-2.7,4.4-1,5.2.8,6.7,1.7,3.6,2,4.5,2.3,5.4,4.3s1.9,4.6-.9,4.6-2.7-4.3-5.2-4.1c-2.5.2-3.7,4.1-5.5,4.1s.8,0-.7,0-1.6-1.2-.7-3.2c.9-2,1.9-3.7,1.9-3.7,0,0-2.2,1-3.4,3.5-1.2,2.6-1.4,3.6-3.6,3.6s-2.1-1.6.1-5.3c0,0-2,1.1-3.1,3.1-1.1,2-1.6,1.9-3.1,1.9s-1.7-3.1,1.6-5.1c0,0-.7-.9-5.4,3.8Z"/>
      <path class="st3" d="M182.9,163.7s-1.3,0-2.1,2.1"/>
    </g>
  </g>
  <g id="Code">
    <g>
      <g>
        <path class="st11" d="M345.2,67.3c6.4,5,12.5,10.5,18.4,16.3"/>
        <path class="st11" d="M338.2,62.1c1.2.9,2.4,1.8,3.6,2.7"/>
        <path class="st11" d="M331.3,57.3c1.3.8,2.5,1.7,3.7,2.5"/>
        <path class="st11" d="M280.1,33.1c16.4,5.1,32.2,12.3,47.1,21.6"/>
        <path class="st11" d="M269.2,30c2,.5,4,1.1,6.1,1.6"/>
        <path class="st11" d="M258,27.5c2.2.4,4.4.9,6.6,1.4"/>
        <path class="st11" d="M247.9,25.8c1.9.3,3.8.6,5.7.9"/>
        <path class="st11" d="M187.6,26.2c18.5-2.9,37.4-3.2,56-1"/>
        <path class="st11" d="M179.4,27.7c1.7-.3,3.4-.7,5.1-.9"/>
        <path class="st11" d="M171.4,29.4c1.7-.4,3.4-.8,5.1-1.2"/>
        <path class="st11" d="M161.5,32c1.7-.5,3.5-1,5.2-1.5"/>
        <path class="st11" d="M102,60.6c16.8-11.8,35.1-20.8,54-26.9"/>
      </g>
      <path class="st11" d="M94,66.6c1.6-1.2,3.1-2.4,4.7-3.6"/>
      <path class="st11" d="M85.9,73.2c1.7-1.5,3.4-2.9,5.2-4.3"/>
      <path class="st11" d="M74.7,83.6c2.3-2.3,4.7-4.6,7.2-6.8"/>
    </g>
    <g>
      <g>
        <circle class="st25" cx="128" cy="47.1" r="24.9" transform="translate(52.5 160.7) rotate(-76.6)"/>
        <g class="st31">
          <circle class="st19" cx="128" cy="47.1" r="24.9" transform="translate(52.5 160.7) rotate(-76.6)"/>
        </g>
        <circle class="st11" cx="128" cy="47.1" r="24.9" transform="translate(52.5 160.7) rotate(-76.6)"/>
      </g>
      <g>
        <path class="st3" d="M116.1,56.9v-6.2c0-1.6-.4-2-2.1-2v-3c1.7,0,2.1-.5,2.1-2v-6.2c0-2.6,1.7-3.8,3.8-3.8h1.9v3h-.5c-1.2,0-1.8.5-1.8,2.4v5.1c0,1.2-.4,2.5-2.1,3h0c1.6.5,2.1,1.8,2.1,3v5.1c0,1.9.6,2.4,1.8,2.4h.5v3h-1.9c-2.1,0-3.8-1.2-3.8-3.8Z"/>
        <path class="st3" d="M134.3,57.6h.5c1.2,0,1.8-.5,1.8-2.4v-5.1c0-1.2.4-2.5,2.1-3h0c-1.6-.5-2.1-1.8-2.1-3v-5.1c0-1.9-.6-2.4-1.8-2.4h-.5v-3h1.9c2.1,0,3.8,1.2,3.8,3.8v6.2c0,1.6.4,2,2.1,2v3c-1.7,0-2.1.5-2.1,2v6.2c0,2.6-1.7,3.8-3.8,3.8h-1.9v-3Z"/>
      </g>
    </g>
    <g>
      <rect class="st2" x="53.5" y="78.9" width="38.3" height="38.3" rx="12" ry="12"/>
      <g>
        <path class="st3" d="M58.7,98.9v-1.9l7.7-3.3v2l-5.3,2.2,5.3,2.2v2l-7.7-3.3Z"/>
        <path class="st3" d="M74.9,89.3h2.4l-6.9,17.5h-2.4l6.9-17.5Z"/>
        <path class="st3" d="M78.8,100.2l5.3-2.2-5.3-2.2v-2l7.6,3.3v1.9l-7.6,3.3v-2Z"/>
      </g>
    </g>
    <g>
      <g>
        <circle class="st25" cx="304.5" cy="41.5" r="21.2" transform="translate(194.8 328.5) rotate(-76.8)"/>
        <g class="st30">
          <circle class="st24" cx="304.5" cy="41.5" r="21.2" transform="translate(194.8 328.5) rotate(-76.8)"/>
        </g>
        <circle class="st11" cx="304.5" cy="41.5" r="21.2" transform="translate(194.8 328.5) rotate(-76.8)"/>
      </g>
      <g>
        <path class="st3" d="M291.4,45.9v-8.8c0-2.5,1.3-4,3.8-4s3.8,1.5,3.8,4v1.7h-2.4v-1.9c0-1.1-.5-1.5-1.3-1.5s-1.3.4-1.3,1.5v9.1c0,1.1.5,1.5,1.3,1.5s1.3-.4,1.3-1.5v-2.5h2.4v2.3c0,2.5-1.3,4-3.8,4s-3.8-1.5-3.8-4Z"/>
        <path class="st3" d="M303.3,42.4h-3.1v-1.8h3.1v-3.2h1.8v3.2h3.1v1.8h-3.1v3.2h-1.8v-3.2Z"/>
        <path class="st3" d="M312.7,42.4h-3.1v-1.8h3.1v-3.2h1.8v3.2h3.1v1.8h-3.1v3.2h-1.8v-3.2Z"/>
      </g>
    </g>
    <g>
      <rect class="st2" x="190.3" y="0" width="46.4" height="46.4" rx="13.6" ry="13.6"/>
      <g>
        <path class="st3" d="M199.6,28.1v-9.8c0-2.8,1.5-4.5,4.2-4.5s4.2,1.7,4.2,4.5v1.9h-2.7v-2.1c0-1.2-.6-1.7-1.4-1.7s-1.4.5-1.4,1.7v10.2c0,1.2.6,1.7,1.4,1.7s1.4-.5,1.4-1.7v-2.8h2.7v2.6c0,2.8-1.5,4.5-4.2,4.5s-4.2-1.7-4.2-4.5Z"/>
        <path class="st3" d="M209.3,28v-1h2.7v1.2c0,1.3.6,1.8,1.5,1.8s1.5-.5,1.5-1.8-.6-2.5-2.4-4.1c-2.4-2.1-3.2-3.6-3.2-5.7s1.5-4.5,4.3-4.5,4.2,1.7,4.2,4.6v.8h-2.7v-.9c0-1.3-.5-1.8-1.4-1.8s-1.4.5-1.4,1.7.6,2.3,2.5,3.9c2.4,2.1,3.1,3.6,3.1,5.8s-1.5,4.6-4.3,4.6-4.2-1.7-4.2-4.6Z"/>
        <path class="st3" d="M218.9,28v-1h2.7v1.2c0,1.3.6,1.8,1.5,1.8s1.5-.5,1.5-1.8-.6-2.5-2.4-4.1c-2.4-2.1-3.2-3.6-3.2-5.7s1.5-4.5,4.3-4.5,4.2,1.7,4.2,4.6v.8h-2.7v-.9c0-1.3-.5-1.8-1.4-1.8s-1.4.5-1.4,1.7.6,2.3,2.5,3.9c2.4,2.1,3.1,3.6,3.1,5.8s-1.5,4.6-4.3,4.6-4.2-1.7-4.2-4.6Z"/>
      </g>
    </g>
    <g>
      <g>
        <circle class="st25" cx="360.6" cy="86.4" r="21.2" transform="translate(193 417.2) rotate(-76.6)"/>
        <g class="st16">
          <circle class="st20" cx="360.6" cy="86.4" r="21.2" transform="translate(193 417.2) rotate(-76.6)"/>
        </g>
        <circle class="st11" cx="360.6" cy="86.4" r="21.2" transform="translate(193 417.2) rotate(-76.6)"/>
      </g>
      <g>
        <path class="st3" d="M352.3,90.6v-8.4c0-2.4,1.3-3.8,3.6-3.8s3.6,1.4,3.6,3.8v1.7h-2.3v-1.8c0-1-.5-1.5-1.2-1.5s-1.2.4-1.2,1.5v8.7c0,1,.5,1.4,1.2,1.4s1.2-.4,1.2-1.4v-2.4h2.3v2.2c0,2.4-1.3,3.8-3.6,3.8s-3.6-1.4-3.6-3.8Z"/>
        <path class="st3" d="M361.6,89.7h-1.1l.2-1.7h1.1l.4-4.1h-1.1l.2-1.7h1.1l.4-3.6h1.9l-.4,3.6h1.6l.4-3.6h1.9l-.4,3.6h1.1l-.2,1.7h-1.1l-.4,4.1h1.1l-.2,1.7h-1.1l-.5,4.5h-1.9l.5-4.5h-1.6l-.5,4.5h-1.9l.5-4.5ZM365.3,88l.4-4.1h-1.6l-.4,4.1h1.6Z"/>
      </g>
    </g>
  </g>
  <g id="Desk">
    <g>
      <polygon class="st13" points="110.3 330.3 106.5 330.3 105.5 183 110.3 183 110.3 330.3"/>
      <polygon class="st9" points="114 330.3 110.3 330.3 110.3 183 115 183 114 330.3"/>
      <rect class="st12" x="67.8" y="174" width="254.2" height="9"/>
      <rect class="st13" x="318.2" y="174" width="56.9" height="9"/>
      <rect class="st5" x="80.8" y="183" width="252.7" height="14.9"/>
      <g>
        <rect class="st25" x="333.5" y="183" width="29.4" height="14.9" transform="translate(696.5 380.9) rotate(180)"/>
        <g class="st29">
          <rect class="st18" x="333.5" y="183" width="29.4" height="14.9" transform="translate(696.5 380.9) rotate(180)"/>
        </g>
        <rect class="st0" x="333.5" y="183" width="29.4" height="14.9" transform="translate(696.5 380.9) rotate(180)"/>
      </g>
      <polygon class="st13" points="333.5 330.3 329.8 330.3 328.8 183 333.5 183 333.5 330.3"/>
      <polygon class="st9" points="337.3 330.3 333.5 330.3 333.5 183 338.3 183 337.3 330.3"/>
      <polygon class="st13" points="80.8 330.3 77.1 330.3 76.1 183 80.8 183 80.8 330.3"/>
      <polygon class="st9" points="84.5 330.3 80.8 330.3 80.8 183 85.5 183 84.5 330.3"/>
      <g>
        <polygon class="st13" points="363 330.3 359.3 330.3 358.3 183 363 183 363 330.3"/>
        <polygon class="st9" points="366.7 330.3 363 330.3 363 183 367.7 183 366.7 330.3"/>
      </g>
    </g>
    <g>
      <g>
        <path class="st13" d="M232.1,173h-29.8c-.6,0-1.1-.5-1.1-1.1v-2.5l32,1v1.5c0,.6-.5,1.1-1.1,1.1Z"/>
        <path class="st9" d="M197.9,173h-59.9c-1,0-1.9-.7-2.2-1.7l-12.9-41.7c-.4-1.1.4-2.2,1.5-2.2h59.9c1,0,1.9.7,2.2,1.7l12.9,41.7c.4,1.1-.4,2.2-1.5,2.2Z"/>
        <path class="st13" d="M202.1,170.8l-12.9-41.7c-.3-1-1.2-1.7-2.2-1.7h-2.7c1,0,1.9.7,2.2,1.7l12.9,41.7c.4,1.1-.4,2.2-1.5,2.2h2.7c1.2,0,1.9-1,1.5-2.2Z"/>
      </g>
      <path class="st8" d="M164.8,150.2c.3,2-1.2,3.7-3.2,3.7s-3.9-1.7-4.2-3.7c-.3-2,1.2-3.7,3.2-3.7s3.9,1.7,4.2,3.7Z"/>
    </g>
  </g>
</svg>