<?xml version="1.0" encoding="UTF-8"?>
<svg xmlns="http://www.w3.org/2000/svg" version="1.1" viewBox="0 0 482.3 439.7">
  <!-- Generator: Adobe Illustrator 29.0.0, SVG Export Plug-In . SVG Version: 2.1.0 Build 186)  -->
  <defs>
    <style>
      .st0, .st1, .st2, .st3, .st4, .st5, .st6, .st7 {
        stroke: #263238;
      }

      .st0, .st3, .st7 {
        stroke-miterlimit: 10;
      }

      .st0, .st5, .st8 {
        fill: none;
      }

      .st9, .st3, .st6 {
        fill: #263238;
      }

      .st1 {
        fill: #16a34a;
      }

      .st1, .st2, .st4, .st5, .st8, .st6 {
        stroke-linecap: round;
        stroke-linejoin: round;
      }

      .st10, .st2 {
        fill: #92e3a9;
      }

      .st11 {
        opacity: .2;
      }

      .st4, .st7, .st12 {
        fill: #fff;
      }

      .st13 {
        fill: #d4f7e5;
      }

      .st8 {
        stroke: #fff;
      }

      .st12 {
        opacity: .7;
      }
    </style>
  </defs>
  <g id="Background_Simple">
    <g>
      <path class="st10" d="M468.4,254.8c-13.5,40.9-42.6,85.7-85.3,100.3-64.6,22.1-70.4,75.1-187.7,74.7-18.3,0-35.3-2-50.9-5.5-8.4-1.9-16.5-4.2-24.1-7C50.8,392.3,12.7,332.7,7.3,269,.2,185.2,57.2,142.9,94.3,118,131.5,93.1,173.9.6,289.2,0c17.6,0,35.2,1.6,52.4,5.6,39.2,9,79.5,30.7,103.7,63.7,1.8,2.5,3.6,5,5.2,7.6,32.6,50.8,36.4,122.1,18,177.9Z"/>
      <path class="st12" d="M468.4,254.8c-13.5,40.9-42.6,85.7-85.3,100.3-64.6,22.1-70.4,75.1-187.7,74.7-18.3,0-35.3-2-50.9-5.5-8.4-1.9-16.5-4.2-24.1-7C50.8,392.3,12.7,332.7,7.3,269,.2,185.2,57.2,142.9,94.3,118,131.5,93.1,173.9.6,289.2,0c17.6,0,35.2,1.6,52.4,5.6,39.2,9,79.5,30.7,103.7,63.7,1.8,2.5,3.6,5,5.2,7.6,32.6,50.8,36.4,122.1,18,177.9Z"/>
    </g>
  </g>
  <g id="Graphics">
    <g>
      <g>
        <rect class="st5" x="34.2" y="43.6" width="13.7" height="13.7"/>
        <line class="st5" x1="53.4" y1="50.5" x2="113.7" y2="50.5"/>
      </g>
      <g>
        <rect class="st5" x="34.2" y="62.8" width="13.7" height="13.7"/>
        <line class="st5" x1="53.4" y1="69.6" x2="113.7" y2="69.6"/>
      </g>
      <g>
        <rect class="st5" x="34.2" y="82" width="13.7" height="13.7"/>
        <line class="st5" x1="53.4" y1="88.8" x2="113.7" y2="88.8"/>
      </g>
      <g>
        <rect class="st5" x="34.2" y="101.1" width="13.7" height="13.7"/>
        <line class="st5" x1="53.4" y1="108" x2="113.7" y2="108"/>
      </g>
      <g>
        <rect class="st5" x="34.2" y="120.3" width="13.7" height="13.7"/>
        <line class="st5" x1="53.4" y1="127.1" x2="113.7" y2="127.1"/>
      </g>
      <g>
        <rect class="st5" x="34.2" y="139.5" width="13.7" height="13.7"/>
        <line class="st5" x1="53.4" y1="146.3" x2="113.7" y2="146.3"/>
      </g>
    </g>
    <g>
      <g>
        <rect class="st5" x="422.1" y="285.2" width="9.4" height="9.4"/>
        <line class="st5" x1="435.3" y1="289.9" x2="476.8" y2="289.9"/>
      </g>
      <g>
        <rect class="st5" x="422.1" y="298.4" width="9.4" height="9.4"/>
        <line class="st5" x1="435.3" y1="303.1" x2="476.8" y2="303.1"/>
      </g>
      <g>
        <rect class="st5" x="422.1" y="311.6" width="9.4" height="9.4"/>
        <line class="st5" x1="435.3" y1="316.3" x2="476.8" y2="316.3"/>
      </g>
      <g>
        <rect class="st5" x="422.1" y="324.8" width="9.4" height="9.4"/>
        <line class="st5" x1="435.3" y1="329.5" x2="476.8" y2="329.5"/>
      </g>
      <g>
        <rect class="st5" x="422.1" y="338" width="9.4" height="9.4"/>
        <line class="st5" x1="435.3" y1="342.7" x2="476.8" y2="342.7"/>
      </g>
      <g>
        <rect class="st5" x="422.1" y="351.2" width="9.4" height="9.4"/>
        <line class="st5" x1="435.3" y1="355.9" x2="476.8" y2="355.9"/>
      </g>
    </g>
    <g>
      <rect class="st5" x="200.6" y="42.3" width="59.3" height="42.5"/>
      <polyline class="st5" points="200.6 42.3 230.2 63.5 259.9 42.3"/>
    </g>
    <g>
      <rect class="st5" x="264.6" y="29.3" width="36.3" height="26"/>
      <polyline class="st5" points="264.6 29.3 282.8 42.3 301 29.3"/>
    </g>
    <g>
      <rect class="st5" x="33.3" y="378.5" width="36.3" height="26"/>
      <polyline class="st5" points="33.3 378.5 51.5 391.5 69.7 378.5"/>
    </g>
  </g>
  <g id="Floor">
    <line class="st0" x1="12" y1="437.2" x2="476.2" y2="437.2"/>
  </g>
  <g id="Plants">
    <g>
      <g>
        <path class="st9" d="M10.3,310c3.3-.5,9.4-4.7,9.4-4.7,0,0-4-3.2-4.2-3.4-3.2-2-10.6-3.9-13.8-1.2-2.3,2-2.1,5.4,0,7.4,2.2,2.1,5.8,2.3,8.6,1.8Z"/>
        <path class="st9" d="M24,326.6c2.9-1.3,7.4-6.5,7.8-6.9,2.9,2.5,6,4.9,9.4,7.1,1.9,1.3,3.9,2.5,5.8,3.7-1-.4-1.9-.8-2-.8-3.6-1.1-11.2-1-13.6,2.5-1.7,2.5-.6,5.8,2,7.2,2.6,1.4,6.2.6,8.8-.5,2.6-1.2,6.5-5.5,7.6-6.7.8.5,1.5.9,2.3,1.4,3.7,2.2,7.3,4.3,10.9,6.5,1.2.8,2.4,1.6,3.7,2.4-.9-.4-1.6-.7-1.7-.7-3.6-1.1-11.2-1-13.6,2.5-1.7,2.5-.6,5.8,2,7.2,2.6,1.4,6.2.6,8.8-.5,2.5-1.1,6.1-5.1,7.4-6.5,1.2.9,2.4,1.7,3.6,2.6.8.6,1.5,1.2,2.3,1.9.7.7,1.5,1.3,2.2,1.9,1.3,1.3,2.7,2.6,4,3.9.9.9,1.7,1.7,2.6,2.6-1.2-.8-3.7-2.3-3.9-2.4-3.4-1.6-10.9-2.7-13.8.4-2.1,2.2-1.4,5.6.9,7.4,2.4,1.8,6,1.6,8.7.8,3-.8,8-5.1,8.7-5.6,1.4,1.4,2.7,2.8,4,4.2,2.8,3,5.1,5.7,7.1,8l2.3-1.5c-2.1-2.4-4.7-5.2-7.6-8.2-1.4-1.5-2.9-3-4.5-4.6.3-.4,2-2.9,3.4-5.4,3.1.8,9.2,0,10,0,.4,2,.7,3.9,1,5.7.6,3.8,1.1,7.2,1.5,10.1l2.5-1.6c-.4-2.7-.9-5.7-1.5-8.9-.4-2-.8-4.1-1.3-6.3.8-.3,6.9-2.7,9.1-4.9,2-2,3.9-5.1,3.5-8.1-.4-2.9-3.1-5.1-6.1-4.3-4.1,1-6.8,8.2-7,11.9,0,.2.1,2.6.2,4.2-.2-.9-.4-1.8-.6-2.7-.4-1.8-.9-3.6-1.4-5.5-.3-.9-.5-1.9-.8-2.8-.3-.9-.6-1.9-1-2.9-.8-2.2-1.7-4.4-2.6-6.6,1.6-.4,7.2-1.7,9.4-3.4,2.3-1.7,4.6-4.5,4.7-7.4,0-2.9-2.3-5.5-5.3-5.2-4.2.4-7.9,7.1-8.7,10.7,0,.2-.3,2.9-.5,4.4-.6-1.3-1.2-2.6-1.8-4-1.8-3.8-3.8-7.6-5.8-11.4-.6-1.2-1.2-2.3-1.8-3.5.6-.1,7.3-1.6,9.8-3.5,2.3-1.7,4.6-4.5,4.7-7.4,0-2.9-2.3-5.5-5.3-5.2-4.2.4-7.9,7-8.7,10.7,0,.3-.5,4.2-.5,5.2-1.3-2.6-2.6-5.1-3.7-7.7-1.6-3.6-2.9-7.1-4-10.7.3,0,7.3-1.6,9.8-3.5,2.3-1.7,4.6-4.5,4.7-7.4,0-2.9-2.3-5.5-5.3-5.2-4.2.4-7.9,7-8.7,10.7,0,.3-.5,4.5-.5,5.2,0-.2-.2-.4-.2-.6-1.1-3.8-1.7-7.6-2-11.3-.2-2.1-.3-4.1-.3-6.1,1.3-.1,7.4-.9,9.9-2.4,2.4-1.4,5.1-3.9,5.5-6.9.3-2.9-1.7-5.7-4.7-5.7-4.2,0-8.6,6.1-9.8,9.7,0,.2-.5,2.2-.8,3.7,0-.9,0-1.8,0-2.7,0-3.2.3-6.1.5-8.7.1-1.5.3-2.8.5-4,1.2-.8,6.1-4.2,7.7-6.7,1.5-2.4,2.7-5.8,1.7-8.6-1-2.7-4.1-4.3-6.8-2.9-3.8,1.9-4.8,9.4-4.3,13.1,0,.3,1.4,5.3,1.5,5.2,0,0,0,0,0,0-.2,1.2-.4,2.5-.5,3.9-.3,2.6-.6,5.5-.7,8.7-.1,3.2-.2,6.7.1,10.3.3,3.7.8,7.5,1.8,11.4,0,0,0,0,0,.1-.7-1.1-2.6-3.9-2.7-4.1-2.4-2.9-8.8-7-12.7-5.4-2.8,1.2-3.7,4.5-2.3,7.1,1.4,2.6,4.8,4,7.6,4.4,3.1.5,9.8-1.4,10.3-1.5,1,3.7,2.3,7.4,3.9,11.1.9,2.1,1.8,4.2,2.8,6.3-.6-.9-1.1-1.7-1.2-1.8-2.4-2.9-8.8-7-12.7-5.4-2.8,1.2-3.7,4.5-2.3,7.1,1.4,2.6,4.8,4,7.6,4.4,2.8.4,8.5-1,10-1.4.4.8.8,1.6,1.2,2.4,1.9,3.8,3.8,7.6,5.5,11.4.6,1.3,1.2,2.7,1.7,4-.5-.8-1-1.4-1.1-1.5-2.4-2.9-8.8-7-12.7-5.4-2.8,1.2-3.7,4.5-2.3,7.1,1.4,2.6,4.8,4,7.6,4.4,2.7.4,7.9-.9,9.7-1.3.5,1.4,1.1,2.8,1.5,4.1.3.9.6,1.8.9,2.8.3.9.5,1.9.8,2.8.4,1.8.8,3.7,1.2,5.4.3,1.2.5,2.4.7,3.6-.6-1.3-1.8-3.9-1.9-4.1-1.3-2.1-4.3-5.1-7.3-6.5-.2-.3-.4-.6-.7-.9-2-2.2-5.4-2.5-7.4-.2-2.8,3.1-1.1,10.5.8,13.8.1.2,1.5,2.1,2.5,3.4-.7-.6-1.3-1.3-2-1.9-1.3-1.3-2.7-2.5-4.2-3.9-.7-.6-1.5-1.3-2.2-1.9-.7-.6-1.6-1.2-2.4-1.9-1.9-1.4-3.8-2.8-5.9-4.1,1.1-1.2,5-5.4,6-8.1.9-2.6,1.4-6.3-.2-8.8-1.6-2.4-4.9-3.3-7.3-1.4-3.3,2.7-2.7,10.2-1.3,13.8,0,.2,1.3,2.6,2.1,3.9-1.2-.8-2.4-1.6-3.7-2.3-3.6-2.2-7.4-4.2-11.1-6.3-1.1-.6-2.3-1.3-3.4-1.9.4-.4,5.2-5.3,6.2-8.3.9-2.6,1.4-6.3-.2-8.8-1.6-2.4-4.9-3.3-7.3-1.4-3.3,2.7-2.7,10.2-1.3,13.8.1.3,1.9,3.7,2.4,4.6-2.5-1.4-5-2.9-7.3-4.4-3.3-2.1-6.4-4.3-9.2-6.7.2-.2,5.2-5.3,6.3-8.4.9-2.6,1.4-6.3-.2-8.8-1.6-2.4-4.9-3.3-7.3-1.4-3.3,2.7-2.7,10.2-1.3,13.8.1.3,2.1,4,2.5,4.7-.2-.1-.4-.3-.5-.4-3-2.6-5.6-5.5-7.9-8.3-1.3-1.6-2.5-3.3-3.6-4.9,1-.9,5.7-4.8,7-7.5,1.2-2.5,2.1-6.1.7-8.7-1.3-2.6-4.6-3.8-7.1-2.2-3.5,2.3-3.8,9.9-2.9,13.5,0,.2.8,2.2,1.4,3.6-.5-.7-1-1.5-1.5-2.2-1.7-2.7-3.1-5.2-4.4-7.5-.7-1.3-1.3-2.5-1.8-3.6.6-1.4,2.8-6.9,2.7-9.8,0-2.8-.9-6.4-3.4-8.1-2.4-1.7-5.8-1.3-7.3,1.4-2.1,3.7,1.2,10.5,3.7,13.3.2.2,4.1,3.6,4.1,3.5,0,0,0,0,0,0,.5,1.1,1.1,2.3,1.7,3.5,1.2,2.3,2.5,4.9,4.2,7.6,1.7,2.7,3.6,5.7,5.8,8.6,2.3,2.9,4.8,5.9,7.8,8.6,0,0,0,0,.1,0-1.1-.5-4.3-1.9-4.6-1.9-3.6-1.1-11.2-1-13.6,2.5-1.7,2.5-.6,5.8,2,7.2,2.6,1.4,6.2.6,8.8-.5Z"/>
        <path class="st9" d="M74.1,270.7c0,0-1.5-4.9-1.7-5.2-1.6-3.4-6.7-9.1-10.8-8.6-3,.4-4.7,3.4-4.1,6.2.7,2.9,3.6,5.1,6.2,6.2,3,1.4,10.4,1.3,10.4,1.3Z"/>
      </g>
      <g>
        <path class="st9" d="M372.6,50.1c2.2,2.2,8.9,4.7,8.9,4.7,0,0,.3-4.9.3-5.2-.3-3.6-2.9-10.4-6.8-11.4-2.8-.7-5.4,1.4-5.8,4.2-.4,2.8,1.5,5.8,3.4,7.7Z"/>
        <path class="st9" d="M367.4,70.1c2.6,1.5,9.2,2.1,9.7,2.2-.4,3.7-.4,7.5-.3,11.3,0,2.2.2,4.4.4,6.6-.2-1-.4-1.9-.5-2-1.2-3.4-5.5-9.3-9.6-9.2-2.9,0-4.8,2.8-4.5,5.6.4,2.8,3,5.2,5.3,6.5,2.4,1.4,8,2,9.5,2.1,0,.8.1,1.7.2,2.5.4,4.1.8,8.1,1,12.1,0,1.4.1,2.8.2,4.2-.2-.9-.4-1.6-.4-1.7-1.2-3.4-5.5-9.3-9.6-9.2-2.9,0-4.8,2.8-4.5,5.6.4,2.8,3,5.2,5.3,6.5,2.3,1.3,7.4,1.9,9.2,2.1,0,1.4,0,2.9,0,4.2,0,.9,0,1.9-.2,2.8,0,.9-.2,1.9-.3,2.8-.2,1.8-.5,3.6-.8,5.3-.2,1.2-.4,2.3-.6,3.5,0-1.4-.3-4.1-.3-4.4-.7-3.5-4.1-10-8.1-10.5-2.9-.4-5.2,2-5.2,4.8,0,2.9,2.2,5.6,4.3,7.3,2.3,1.8,8.5,3.4,9.2,3.6-.3,1.9-.7,3.7-1,5.4-.8,3.8-1.5,7.2-2.2,10l2.5,1c.7-3,1.4-6.5,2.1-10.5.3-1.9.7-4,1-6.1.5,0,3.4,0,6.1-.4,1.1,2.8,5.1,7.2,5.6,7.8-1.3,1.4-2.6,2.7-3.9,4-2.6,2.6-5,4.9-7.1,6.8l2.7,1c1.8-1.8,3.9-3.9,6.1-6.2,1.3-1.4,2.8-2.9,4.2-4.5.7.4,6,3.9,8.9,4.3,2.7.4,6.2.2,8.2-1.8,2-2,2.2-5.3,0-7.1-3.1-2.6-10.1-.7-13.2,1.2-.2.1-2,1.6-3.1,2.5.6-.6,1.2-1.3,1.7-2,1.2-1.3,2.3-2.7,3.5-4.2.6-.7,1.1-1.5,1.7-2.2.6-.7,1.1-1.6,1.7-2.3,1.3-1.8,2.5-3.8,3.7-5.8,1.2,1,5.4,4.6,8,5.4,2.6.8,6.1,1.1,8.4-.5,2.3-1.6,3-4.9,1-7-2.7-3-9.9-2.2-13.2-.8-.2,0-2.5,1.4-3.7,2.1.7-1.2,1.4-2.4,2.1-3.6,1.9-3.6,3.8-7.2,5.6-10.9.6-1.1,1.1-2.2,1.7-3.3.4.4,5.3,4.8,8.2,5.7,2.6.8,6.1,1.1,8.4-.5,2.3-1.6,3-4.9,1-7-2.7-3-9.9-2.2-13.2-.8-.2.1-3.5,2-4.3,2.5,1.3-2.4,2.5-4.9,3.9-7.2,1.9-3.2,3.9-6.3,6.1-9.1.2.2,5.3,4.8,8.2,5.7,2.6.8,6.1,1.1,8.4-.5,2.3-1.6,3-4.9,1-7-2.7-3-9.9-2.2-13.2-.8-.3.1-3.8,2.1-4.4,2.5.1-.2.2-.4.4-.5,2.4-3,5-5.6,7.6-7.9,1.5-1.3,3-2.5,4.5-3.7.9,1,4.8,5.3,7.4,6.4,2.5,1.1,5.9,1.8,8.4.4,2.4-1.4,3.5-4.5,1.8-6.9-2.3-3.3-9.6-3.3-13.1-2.2-.2,0-2,.9-3.4,1.5.7-.5,1.4-1,2.1-1.5,2.5-1.8,4.9-3.2,7-4.5,1.2-.7,2.3-1.3,3.4-1.9,1.3.5,6.7,2.4,9.5,2.2,2.7-.2,6.1-1.2,7.6-3.5,1.5-2.3,1-5.6-1.6-6.9-3.6-1.9-10,1.5-12.6,4.1-.2.2-3.3,4-3.2,4.1,0,0,0,0,0,0-1,.5-2.1,1.1-3.3,1.8-2.2,1.2-4.6,2.6-7.2,4.3-2.6,1.7-5.3,3.6-8,5.9-2.7,2.3-5.4,4.8-7.9,7.8,0,0,0,0,0,.1.5-1.1,1.6-4.2,1.7-4.5.9-3.5.5-10.8-2.9-12.9-2.5-1.5-5.6-.3-6.8,2.2-1.3,2.6-.4,6,.8,8.4,1.4,2.7,6.5,6.8,6.9,7.2-2.3,2.9-4.5,6-6.5,9.3-1.1,1.9-2.2,3.8-3.3,5.7.4-1,.7-1.8.7-1.9.9-3.5.5-10.8-2.9-12.9-2.5-1.5-5.6-.3-6.8,2.2-1.3,2.6-.4,6,.8,8.4,1.2,2.4,5.6,6,6.7,7-.4.7-.8,1.5-1.2,2.2-1.9,3.6-3.8,7.2-5.8,10.7-.7,1.2-1.4,2.4-2.2,3.6.3-.9.6-1.6.6-1.7.9-3.5.5-10.8-2.9-12.9-2.5-1.5-5.6-.3-6.8,2.2-1.3,2.6-.4,6,.8,8.4,1.2,2.3,5.1,5.7,6.5,6.8-.8,1.2-1.6,2.4-2.4,3.5-.6.8-1.1,1.5-1.7,2.2-.6.7-1.2,1.4-1.8,2.2-1.2,1.3-2.4,2.7-3.6,4-.8.9-1.6,1.7-2.4,2.6.7-1.2,2-3.6,2.1-3.8.9-2.2,1.6-6.2,1-9.3.1-.3.2-.7.3-1,.6-2.7-1.1-5.6-4-5.9-4-.5-8.8,5-10.3,8.3,0,.2-.8,2.4-1.2,3.8.1-.9.3-1.7.4-2.6.2-1.8.4-3.5.7-5.4,0-.9.1-1.8.2-2.8,0-.9,0-1.9.1-2.9,0-2.3,0-4.5-.1-6.8,1.5.2,7,.9,9.6.1,2.6-.7,5.7-2.4,6.7-5.1,1-2.6-.2-5.7-3-6.5-3.9-1.1-9.5,3.6-11.5,6.7-.1.2-1.3,2.5-1.9,3.8,0-1.4-.1-2.8-.3-4.2-.4-4-.8-8.1-1.3-12.1-.1-1.2-.3-2.5-.4-3.7.5,0,7,1,10,.2,2.6-.7,5.7-2.4,6.7-5.1,1-2.6-.2-5.7-3-6.4-3.9-1.1-9.5,3.6-11.5,6.7-.1.2-1.8,3.6-2.2,4.5-.3-2.7-.6-5.5-.7-8.2-.2-3.7-.2-7.4,0-10.9.3,0,7,1.1,10,.2,2.6-.7,5.7-2.4,6.7-5.1,1-2.6-.2-5.7-3-6.4-3.9-1.1-9.5,3.6-11.5,6.7-.2.2-2,3.9-2.2,4.5,0-.2,0-.4,0-.6.3-3.8,1.1-7.4,2-10.8.5-2,1.1-3.8,1.8-5.6,1.2.3,6.9,1.7,9.7,1.2,2.7-.5,5.9-1.8,7.2-4.3,1.3-2.5.4-5.7-2.3-6.7-3.8-1.5-9.8,2.6-12.1,5.4-.1.2-1.2,1.8-2,3.1.3-.8.6-1.6.9-2.4,1.1-2.8,2.3-5.4,3.4-7.6.6-1.3,1.2-2.4,1.8-3.5,1.4-.3,6.9-1.7,9.1-3.4,2.1-1.6,4.4-4.3,4.4-7.2,0-2.8-2.3-5.2-5.1-4.9-4,.4-7.5,6.8-8.3,10.3,0,.3-.5,5.2-.4,5.2,0,0,0,0,0,0-.6,1-1.2,2.1-1.8,3.3-1.1,2.2-2.4,4.7-3.6,7.6-1.2,2.8-2.4,5.9-3.4,9.3-1,3.4-1.9,7-2.3,10.9,0,0,0,0,0,.1-.2-1.2-1-4.4-1.1-4.6-1.2-3.4-5.5-9.3-9.6-9.2-2.9,0-4.8,2.8-4.5,5.6.4,2.8,3,5.2,5.3,6.5Z"/>
        <path class="st9" d="M438.9,77.7c0,0,2.9-3.9,3.1-4.2,1.8-3.2,3.3-10.3.6-13.2-2-2.1-5.3-1.8-7.1.3-1.9,2.1-1.9,5.7-1.4,8.3.6,3.1,4.9,8.8,4.9,8.8Z"/>
      </g>
      <g>
        <path class="st9" d="M411.9,187.9c1.1,2.3,5.6,6,5.6,6,0,0,1.5-3.7,1.6-3.9.8-2.8.6-8.8-2.2-10.6-2-1.3-4.5-.4-5.6,1.7-1.1,2.1-.4,4.9.5,6.9Z"/>
        <path class="st9" d="M402.4,201.9c1.6,1.9,6.5,4.1,6.9,4.3-1.3,2.7-2.4,5.6-3.3,8.6-.5,1.7-1,3.5-1.5,5.2,0-.8.2-1.6.2-1.7,0-3-1.7-8.7-4.9-9.7-2.3-.7-4.5.8-4.9,3.1-.5,2.3.9,4.8,2.3,6.5,1.5,1.7,5.6,3.7,6.7,4.2-.2.7-.4,1.3-.5,2-.8,3.2-1.6,6.5-2.5,9.6-.3,1.1-.7,2.2-1,3.3,0-.7.1-1.4.1-1.5,0-3-1.7-8.7-4.9-9.7-2.3-.7-4.5.8-4.9,3.1-.5,2.3.9,4.8,2.3,6.5,1.4,1.6,5.2,3.5,6.5,4.1-.4,1.1-.8,2.2-1.2,3.2-.3.7-.5,1.4-.9,2.1-.3.7-.7,1.4-1,2.1-.7,1.3-1.3,2.6-2,3.9-.5.9-.9,1.7-1.4,2.5.3-1.1.9-3.3.9-3.5.4-2.9-.4-8.8-3.4-10.3-2.1-1.1-4.5.2-5.3,2.3-.8,2.2.2,4.9,1.3,6.7,1.3,2.1,5.6,4.9,6.1,5.3-.8,1.4-1.5,2.7-2.3,3.9-1.6,2.7-3.1,5.1-4.4,7.1l1.6,1.4c1.3-2.1,2.9-4.6,4.5-7.6.8-1.4,1.6-2.9,2.4-4.4.4.1,2.6.9,4.8,1.3,0,2.5,2,6.9,2.2,7.5-1.4.7-2.8,1.4-4.1,2-2.7,1.3-5.2,2.4-7.3,3.3l1.8,1.5c1.9-.9,4.1-1.9,6.4-3.1,1.4-.7,2.9-1.5,4.5-2.3.4.5,3.6,4.6,5.7,5.8,1.9,1,4.7,1.8,6.8.8,2.1-1,3.1-3.5,1.9-5.5-1.7-2.8-7.6-3.3-10.5-2.6-.2,0-2,.7-3.1,1.1.6-.3,1.2-.7,1.9-1,1.3-.7,2.5-1.4,3.9-2.2.6-.4,1.3-.8,1.9-1.2.7-.4,1.3-.9,1.9-1.3,1.5-1.1,2.9-2.2,4.4-3.4.6,1.1,2.9,5,4.7,6.3,1.8,1.3,4.4,2.5,6.6,1.9,2.2-.6,3.6-2.9,2.7-5.2-1.2-3.1-7-4.4-10-4.2-.2,0-2.3.4-3.4.6.9-.7,1.7-1.5,2.6-2.2,2.4-2.2,4.9-4.5,7.3-6.8.7-.7,1.5-1.4,2.2-2.1.2.4,2.8,5.1,4.8,6.6,1.8,1.3,4.4,2.5,6.6,1.9,2.2-.6,3.6-2.9,2.7-5.2-1.2-3.1-7-4.4-10-4.2-.2,0-3.2.6-4,.8,1.6-1.5,3.3-3.1,5-4.5,2.3-2,4.7-3.8,7.1-5.4.1.2,2.8,5.1,4.8,6.6,1.8,1.3,4.4,2.5,6.6,1.9,2.2-.6,3.6-2.9,2.7-5.2-1.2-3.1-7-4.4-10-4.2-.2,0-3.5.6-4.1.8.1,0,.3-.2.4-.3,2.6-1.7,5.4-2.9,8-4,1.5-.6,3-1.1,4.5-1.6.4,1,2.3,5.4,4,6.9,1.6,1.5,4.1,3,6.4,2.6,2.3-.4,3.9-2.5,3.3-4.8-.9-3.2-6.5-5.1-9.5-5.3-.2,0-1.8.1-3,.2.7-.2,1.3-.4,2-.6,2.4-.7,4.7-1.1,6.6-1.5,1.1-.2,2.2-.4,3.1-.5.9.7,4.5,3.7,6.7,4.3,2.1.6,5,.8,6.8-.7,1.8-1.4,2.3-4,.7-5.8-2.3-2.4-8.2-1.6-10.8-.3-.2.1-3.6,2.2-3.6,2.3,0,0,0,0,0,0-.9.1-1.9.3-3,.5-2,.4-4.3.8-6.7,1.4-2.4.6-5.1,1.4-7.7,2.4-2.7,1-5.5,2.2-8.2,3.9,0,0,0,0,0,0,.6-.7,2.4-2.8,2.5-3,1.6-2.5,3.3-8.2,1.2-10.8-1.5-1.9-4.2-1.8-5.8-.2-1.7,1.6-1.9,4.5-1.6,6.7.3,2.5,3.2,7,3.4,7.4-2.6,1.6-5.1,3.4-7.5,5.4-1.4,1.1-2.8,2.3-4.1,3.5.5-.6,1-1.2,1.1-1.3,1.6-2.5,3.3-8.2,1.2-10.8-1.5-1.9-4.2-1.8-5.8-.2-1.7,1.6-1.9,4.5-1.6,6.7.3,2.2,2.6,6.2,3.3,7.2-.5.5-1,.9-1.6,1.4-2.5,2.3-4.9,4.5-7.4,6.7-.9.8-1.8,1.5-2.6,2.2.5-.6.9-1.1.9-1.1,1.6-2.5,3.3-8.2,1.2-10.8-1.5-1.9-4.2-1.8-5.8-.2-1.7,1.6-1.9,4.5-1.6,6.7.3,2.1,2.4,5.8,3.2,7-.9.7-1.9,1.4-2.8,2.1-.6.4-1.2.9-1.9,1.3-.7.4-1.3.8-1.9,1.2-1.3.7-2.6,1.4-3.8,2.1-.9.5-1.7.9-2.5,1.3.9-.7,2.6-2.2,2.7-2.4,1.3-1.5,2.9-4.3,3.3-6.9.2-.2.4-.4.5-.7,1.2-1.9.7-4.6-1.5-5.6-3-1.4-8.2,1.5-10.2,3.6-.1.1-1.3,1.6-2,2.6.3-.6.7-1.2,1-1.9.7-1.3,1.3-2.6,2-4,.3-.7.6-1.4.9-2.1.3-.7.6-1.5.9-2.2.6-1.7,1.2-3.5,1.8-5.3,1.1.6,5.2,2.6,7.4,2.7,2.2.1,5-.3,6.5-2.1,1.5-1.7,1.4-4.4-.6-5.8-2.7-1.9-8.3.2-10.6,2-.1.1-1.7,1.6-2.5,2.4.3-1.1.6-2.2.9-3.3.8-3.2,1.6-6.5,2.3-9.7.2-1,.5-2,.7-3,.4.2,5.2,2.7,7.6,2.9,2.2.1,5-.3,6.6-2.1,1.5-1.7,1.4-4.4-.6-5.8-2.7-1.9-8.3.2-10.6,2-.2.1-2.4,2.3-2.9,2.8.5-2.2,1.1-4.4,1.7-6.5.8-2.9,1.8-5.7,3-8.4.2,0,5.1,2.7,7.7,2.9,2.2.1,5-.3,6.5-2.1,1.5-1.7,1.4-4.4-.6-5.8-2.7-1.9-8.3.2-10.6,2-.2.1-2.6,2.4-3,2.9,0-.2.1-.3.2-.5,1.3-2.8,2.9-5.4,4.5-7.8.9-1.4,1.9-2.6,2.9-3.8.9.6,4.9,3.2,7.1,3.6,2.2.4,5,.2,6.7-1.4,1.7-1.6,1.9-4.3,0-5.8-2.5-2.2-8.3-.7-10.8.8-.1,0-1.4,1.1-2.4,1.8.4-.5.9-1.1,1.3-1.6,1.6-1.9,3.3-3.5,4.7-4.9.8-.8,1.6-1.5,2.3-2.2,1.2.1,5.8.6,8-.1,2.1-.7,4.6-2.1,5.4-4.3.8-2.2-.3-4.6-2.6-5.2-3.2-.8-7.7,3.2-9.2,5.7-.1.2-1.8,3.9-1.8,3.9,0,0,0,0,0,0-.7.6-1.5,1.3-2.3,2-1.5,1.4-3.1,3-4.8,4.9-1.7,1.9-3.5,3.9-5.1,6.3-1.7,2.3-3.3,4.9-4.7,7.8,0,0,0,0,0,.1.1-1,.4-3.6.4-3.9,0-3-1.7-8.7-4.9-9.7-2.3-.7-4.5.8-4.9,3.1-.5,2.3.9,4.8,2.3,6.5Z"/>
        <path class="st9" d="M455.4,227.2c0,0,3.3-2.2,3.5-2.4,2.2-1.9,5.4-7,4-10-.9-2.2-3.6-2.8-5.6-1.7-2,1.1-3,3.8-3.3,6-.4,2.6,1.3,8.1,1.3,8.1Z"/>
      </g>
    </g>
  </g>
  <g id="Screen">
    <rect class="st6" x="86" y="106.4" width="326.4" height="312.7"/>
    <rect class="st4" x="91.4" y="102.2" width="326.4" height="312.7"/>
    <line class="st5" x1="251.7" y1="117.3" x2="251.7" y2="398.3"/>
    <g>
      <rect class="st4" x="118.6" y="280.4" width="106.7" height="18.1"/>
      <rect class="st4" x="118.6" y="314.1" width="106.7" height="18.1"/>
      <rect class="st6" x="137.5" y="357.6" width="68.9" height="21.5" rx="4.8" ry="4.8"/>
    </g>
    <g>
      <path class="st13" d="M157.3,373.3c-.6,0-1,0-1.5-.2-.4-.2-.8-.4-1-.7s-.5-.7-.6-1.2l1.7-.7c.1.4.3.7.6.9.3.2.6.3,1,.3s.7,0,.9-.3.3-.4.3-.7v-.4c0-.3,0-.4-.2-.6-.1-.1-.3-.3-.6-.4s-.5-.2-.8-.3c-.3,0-.6-.2-.9-.3s-.6-.3-.9-.5c-.3-.2-.5-.5-.6-.8-.2-.3-.2-.7-.2-1.2v-.3c0-.9.3-1.5.8-2,.5-.5,1.3-.7,2.3-.7s1.3.2,1.8.5c.5.4.8.9,1,1.6l-1.6.8c-.1-.4-.3-.7-.5-.9s-.5-.3-.8-.3-.7,0-.9.2-.3.4-.3.7v.3c0,.3,0,.5.2.7.2.2.4.3.6.4.3,0,.5.2.8.3.3.1.6.2.9.3s.6.3.8.5c.2.2.4.4.6.8s.2.7.2,1.2v.4c0,.9-.3,1.5-.8,2-.5.5-1.3.7-2.3.7Z"/>
      <path class="st13" d="M163.4,363.3v9.9h-1.8v-9.9h1.8Z"/>
      <path class="st13" d="M165,373.2v-9.9h1.8v9.9h-1.8ZM165.9,373.2v-1.7h2.3c.3,0,.6,0,.7-.2s.3-.4.3-.7v-.7c0-.3,0-.6-.3-.7-.2-.2-.4-.3-.8-.3h-2.3v-1.7h2.3c.3,0,.5,0,.7-.2s.2-.4.2-.7v-.5c0-.3,0-.5-.2-.6-.2-.1-.4-.2-.7-.2h-2.3v-1.7h2.4c.8,0,1.5.2,1.9.6s.7,1,.7,1.8v.5c0,.5-.1.9-.4,1.3-.3.3-.7.5-1.3.6.6,0,1,.3,1.3.7.3.4.5.8.5,1.4v.7c0,.8-.2,1.3-.7,1.8-.4.4-1.1.6-1.9.6h-2.5Z"/>
      <path class="st13" d="M176.2,369.3l1.8-6h2v9.9h-1.6v-7.3.4c0,0-1.6,5.5-1.6,5.5h-1.2l-1.7-5.3v-.6c.1,0,.1,7.3.1,7.3h-1.6v-9.9h2l1.8,6Z"/>
      <path class="st13" d="M183.4,363.3v9.9h-1.8v-9.9h1.8Z"/>
      <path class="st13" d="M184.5,365v-1.7h6.1v1.7h-6.1ZM186.7,373.2v-9.1h1.8v9.1h-1.8Z"/>
    </g>
  </g>
  <g id="Bricks">
    <g class="st11">
      <g>
        <rect x="269.3" y="160.9" width="21.3" height="9.7"/>
        <rect x="281.2" y="148.9" width="21.3" height="9.7"/>
        <rect x="294.1" y="160.9" width="21.3" height="9.7"/>
      </g>
      <g>
        <rect x="331.2" y="127.6" width="21.3" height="9.7"/>
        <rect x="343.1" y="115.6" width="21.3" height="9.7"/>
        <rect x="356" y="127.6" width="21.3" height="9.7"/>
      </g>
      <g>
        <rect x="294.1" y="191.7" width="21.3" height="9.7"/>
        <rect x="306" y="179.7" width="21.3" height="9.7"/>
        <rect x="319" y="191.7" width="21.3" height="9.7"/>
      </g>
      <g>
        <rect x="360.7" y="282.7" width="21.3" height="9.7"/>
        <rect x="372.6" y="270.7" width="21.3" height="9.7"/>
        <rect x="385.5" y="282.7" width="21.3" height="9.7"/>
      </g>
      <g>
        <rect x="360.7" y="382.9" width="21.3" height="9.7"/>
        <rect x="372.6" y="370.9" width="21.3" height="9.7"/>
        <rect x="385.5" y="382.9" width="21.3" height="9.7"/>
      </g>
      <g>
        <rect x="274.9" y="304.8" width="21.3" height="9.7"/>
        <rect x="286.8" y="292.8" width="21.3" height="9.7"/>
        <rect x="299.7" y="304.8" width="21.3" height="9.7"/>
      </g>
      <g>
        <rect x="274.9" y="339.7" width="21.3" height="9.7"/>
        <rect x="286.8" y="327.6" width="21.3" height="9.7"/>
        <rect x="299.7" y="339.7" width="21.3" height="9.7"/>
      </g>
      <g>
        <rect x="325" y="339.7" width="21.3" height="9.7"/>
        <rect x="336.9" y="327.6" width="21.3" height="9.7"/>
        <rect x="349.8" y="339.7" width="21.3" height="9.7"/>
      </g>
    </g>
  </g>
  <g id="Email">
    <g>
      <rect class="st1" x="140.6" y="147.6" width="60.1" height="40"/>
      <polygon class="st6" points="200.7 147.6 170.6 167.6 140.6 147.6 200.7 147.6"/>
      <polygon class="st4" points="148.6 153.1 148.6 127.3 192.7 127.3 192.7 152.9 170.6 167.6 148.6 153.1"/>
      <line class="st5" x1="156.9" y1="136.2" x2="183.5" y2="136.2"/>
      <line class="st5" x1="156.9" y1="143" x2="183.5" y2="143"/>
      <line class="st5" x1="156.9" y1="149.7" x2="183.5" y2="149.7"/>
      <polygon class="st1" points="140.6 187.6 170.7 162.5 200.7 187.6 140.6 187.6"/>
    </g>
  </g>
  <g id="Text">
    <g>
      <path class="st9" d="M137.4,253.7v-17.4h1.6v17.4h-1.6Z"/>
      <path class="st9" d="M144.3,253.7v-16.1h-3.3v-1.3h8.1v1.3h-3.2v16.1h-1.6Z"/>
      <path class="st9" d="M151,241.2l-.4-.6c.4-.2.7-.4.8-.7s.2-.8.2-1.5h-.9v-2.1h1.8v1.8c0,.9-.1,1.6-.3,2.1-.2.5-.6.8-1.2,1Z"/>
      <path class="st9" d="M158.4,253.9c-.9,0-1.7-.2-2.3-.6-.6-.4-1.1-.9-1.4-1.6-.3-.7-.5-1.5-.6-2.5l1.4-.4c0,.7.2,1.4.4,1.9.2.6.5,1,.9,1.4.4.3.9.5,1.6.5s1.4-.2,1.8-.6c.4-.4.6-1,.6-1.9s-.2-1.4-.6-2c-.4-.6-.9-1.2-1.6-1.8l-3.1-2.9c-.5-.5-.9-1.1-1.2-1.6-.3-.6-.4-1.2-.4-1.9,0-1.2.4-2.1,1.1-2.8s1.7-1,2.8-1,1.2,0,1.7.2c.5.2.9.4,1.3.8.3.3.6.8.8,1.4.2.6.3,1.2.4,2l-1.4.4c0-.7-.2-1.4-.4-1.9-.2-.5-.5-.9-.8-1.2-.4-.3-.9-.4-1.6-.4s-1.3.2-1.8.6c-.5.4-.7.9-.7,1.7s0,.9.3,1.3c.2.4.5.8,1,1.2l3.1,2.9c.7.6,1.3,1.4,1.8,2.1.5.8.7,1.7.7,2.7s-.2,1.6-.5,2.2c-.3.6-.8,1-1.4,1.3-.6.3-1.3.4-2.1.4Z"/>
      <path class="st9" d="M169,253.7v-17.4h6.2v1.2h-4.6v6.5h3.8v1.2h-3.8v8.4h-1.6Z"/>
      <path class="st9" d="M177.2,253.7v-17.4h3.9c1.1,0,1.9.2,2.6.5.6.4,1.1.9,1.3,1.5.3.7.4,1.5.4,2.4s0,1.2-.2,1.8c-.1.6-.4,1.1-.7,1.5-.3.4-.8.7-1.5.8l2.7,8.9h-1.6l-2.5-8.5h-2.7v8.5h-1.6ZM178.9,244h2.2c.7,0,1.3-.1,1.7-.4.4-.2.7-.6.9-1.1.2-.5.3-1.1.3-1.8,0-1.1-.2-1.9-.6-2.4-.4-.5-1.1-.8-2.2-.8h-2.2v6.4Z"/>
      <path class="st9" d="M188.2,253.7v-17.4h6.3v1.3h-4.6v6.5h3.8v1.2h-3.8v7.2h4.7v1.2h-6.3Z"/>
      <path class="st9" d="M196.7,253.7v-17.4h6.3v1.3h-4.6v6.5h3.8v1.2h-3.8v7.2h4.7v1.2h-6.3Z"/>
      <path class="st9" d="M205,253.7v-1.9h1.7v1.9h-1.7ZM205.6,250l-.5-13.6h1.7l-.6,13.6h-.6Z"/>
    </g>
    <g>
      <path d="M123,225.7c-1.3,0-2.3-.2-3.2-.7-.9-.5-1.6-1.2-2.1-2.1-.5-.9-.7-2.1-.7-3.4v-7.8c0-1.3.2-2.5.7-3.4.5-.9,1.2-1.6,2.1-2.1.9-.5,2-.7,3.2-.7s2.3.2,3.1.7c.9.5,1.5,1.2,2,2.2.5,1,.7,2.3.8,3.8h-3.7c0-.7-.2-1.3-.4-1.8-.2-.5-.4-.8-.8-1-.3-.2-.7-.3-1.2-.3-.7,0-1.3.2-1.7.7-.4.5-.6,1.1-.6,2v7.8c0,.8.2,1.5.6,1.9.4.5,1,.7,1.7.7s1.2-.3,1.6-.8c.4-.5.6-1.3.7-2.4h3.7c-.1,1.5-.4,2.8-.8,3.8-.5,1-1.1,1.8-2,2.2-.8.5-1.9.7-3.1.7Z"/>
      <path d="M136.5,225.7c-1.6,0-2.9-.4-3.8-1.3-.9-.9-1.4-2.1-1.4-3.7v-4.6c0-1.6.5-2.8,1.4-3.7.9-.9,2.2-1.3,3.8-1.3s2.9.4,3.8,1.3,1.4,2.1,1.4,3.7v4.7c0,1.6-.5,2.8-1.4,3.7-.9.9-2.2,1.3-3.8,1.3ZM136.5,222.4c.5,0,.9-.2,1.2-.5s.4-.8.4-1.3v-4.4c0-.6-.1-1-.4-1.3-.3-.3-.7-.5-1.2-.5s-.9.2-1.2.5c-.3.3-.4.7-.4,1.3v4.4c0,.6.1,1,.4,1.3s.7.5,1.2.5Z"/>
      <path d="M144.6,225.5v-14.2h3.6v14.2h-3.6ZM151.5,225.5v-9.3c0-.6-.1-1-.4-1.3-.3-.3-.7-.5-1.3-.5s-.9.2-1.2.5c-.3.3-.4.7-.4,1.3l-.3-2.4c.4-.9.8-1.5,1.4-2,.6-.5,1.2-.7,2.1-.7,1.2,0,2.1.4,2.8,1.2.7.8,1,2,1,3.5v9.7h-3.6Z"/>
      <path d="M157.2,214.5v-3.1h6.7v3.1h-6.7ZM162.1,225.6c-1.3,0-2.2-.3-2.8-1-.6-.6-.9-1.6-.9-2.8v-14.6h3.6v13.9c0,.3,0,.6.2.8.1.2.4.3.6.3h.9v3.5h-1.7Z"/>
      <path d="M169.9,225.7c-1.3,0-2.3-.4-2.9-1.1-.7-.7-1-1.8-1-3.2s.4-2.6,1.2-3.3c.8-.7,2-1.1,3.6-1.1h2.3l.2,2.8h-2.4c-.6,0-1,.1-1.3.4-.3.3-.4.7-.4,1.3s.1.8.4,1,.7.3,1.2.3c.7,0,1.3-.1,1.7-.4.4-.2.6-.6.6-1.1l.3,1.6c0,.6-.2,1.1-.5,1.5-.3.4-.7.7-1.2.9s-1.1.3-1.7.3ZM173.1,225.5v-9.6c0-.5-.2-.9-.5-1.2-.3-.3-.8-.4-1.4-.4s-.8,0-1.2.3c-.3.2-.6.5-.8.8l-2.8-1.1c.3-1,.8-1.8,1.7-2.3.8-.6,1.9-.8,3.1-.8s2.9.4,3.8,1.3,1.3,2,1.3,3.5v9.7h-3.3Z"/>
      <path d="M184.7,225.7c-1.7,0-3.1-.5-4-1.4s-1.4-2.2-1.4-3.8v-4.1c0-1.7.5-3,1.4-3.9s2.3-1.4,4-1.4,2.6.3,3.4,1c.8.6,1.3,1.6,1.5,3l-3.3,1.1c-.1-.6-.3-1-.6-1.3-.3-.3-.7-.4-1.1-.4s-1,.2-1.4.6c-.3.4-.5.9-.5,1.6v3.8c0,.6.2,1.2.5,1.5.3.4.8.5,1.4.5s.8-.1,1.1-.4.5-.7.6-1.2l3.3,1.1c-.2,1.3-.7,2.3-1.5,2.9-.8.6-1.9.9-3.4.9Z"/>
      <path d="M190.8,214.5v-3.1h6.7v3.1h-6.7ZM195.8,225.6c-1.3,0-2.2-.3-2.8-1-.6-.6-.9-1.6-.9-2.8v-14.6h3.6v13.9c0,.3,0,.6.2.8.1.2.4.3.6.3h.9v3.5h-1.7Z"/>
      <path d="M212.5,225.7c-1.9,0-3.4-.5-4.4-1.6-1-1.1-1.6-2.6-1.6-4.6v-13.9h3.6v14c0,.8.2,1.4.6,1.9.4.5,1,.7,1.8.7s1.4-.2,1.8-.7c.4-.5.6-1.1.6-1.9v-14h3.6v13.9c0,2-.5,3.5-1.6,4.6-1.1,1.1-2.5,1.6-4.4,1.6Z"/>
      <path d="M225.9,225.7c-1.4,0-2.6-.3-3.6-.9s-1.6-1.4-1.9-2.5l2.9-1.5c.3.5.7,1,1.2,1.2.5.3,1.1.4,1.7.4s1-.1,1.3-.3c.3-.2.5-.5.5-.9s-.1-.7-.4-.9c-.3-.2-.7-.3-1.1-.4-.5-.1-.9-.2-1.5-.3-.5-.1-1-.3-1.4-.5s-.9-.4-1.3-.7c-.4-.3-.7-.7-1-1.2-.2-.5-.4-1.1-.4-1.9,0-1.3.4-2.4,1.3-3.2s2.1-1.2,3.7-1.2,2.4.3,3.3.8c.9.6,1.5,1.4,1.8,2.4l-2.9,1.4c-.2-.5-.6-.8-.9-1.1-.4-.3-.8-.4-1.3-.4s-.9,0-1.2.3-.5.5-.5.8.1.6.4.8.6.3,1,.4c.4.1.8.2,1.3.3.5.1,1,.2,1.5.4.5.1,1,.4,1.4.6.4.3.8.7,1,1.2.3.5.4,1.2.4,2.1,0,1.4-.5,2.5-1.4,3.3-.9.8-2.2,1.2-3.9,1.2Z"/>
    </g>
    <g>
      <path d="M161.1,294.8l3.1-9.9h1.2l3.1,9.9h-1.8l-1.8-6.6-1.8,6.6h-1.8ZM162.8,293.2v-1.7h4v1.7h-4Z"/>
      <path d="M171.6,294.9c-.6,0-1,0-1.5-.2-.4-.2-.8-.4-1-.7s-.5-.7-.6-1.2l1.7-.7c.1.4.3.7.6.9.3.2.6.3,1,.3s.7,0,.9-.3.3-.4.3-.7v-.4c0-.3,0-.4-.2-.6-.1-.1-.3-.3-.6-.4s-.5-.2-.8-.3c-.3,0-.6-.2-.9-.3s-.6-.3-.9-.5c-.3-.2-.5-.5-.6-.8-.2-.3-.2-.7-.2-1.2v-.3c0-.9.3-1.5.8-2,.5-.5,1.3-.7,2.3-.7s1.3.2,1.8.5c.5.4.8.9,1,1.6l-1.6.8c-.1-.4-.3-.7-.5-.9s-.5-.3-.8-.3-.7,0-.9.2-.3.4-.3.7v.3c0,.3,0,.5.2.7.2.2.4.3.6.4.3,0,.5.2.8.3.3.1.6.2.9.3s.6.3.8.5c.2.2.4.4.6.8s.2.7.2,1.2v.4c0,.9-.3,1.5-.8,2-.5.5-1.3.7-2.3.7Z"/>
      <path d="M176.1,294.8v-9.9h1.8v9.9h-1.8ZM177.4,293.2v-2.7c-.1,0,2.8-5.7,2.8-5.7h2.1l-5,8.4ZM180.7,294.8l-2.3-5.2,1.4-1,2.9,6.3h-2Z"/>
      <path d="M144.9,328.5c-.6,0-1.2-.1-1.6-.4s-.8-.6-1.1-1-.4-1-.4-1.6v-4.2c0-.6.1-1.1.4-1.6.3-.4.6-.8,1.1-1s1-.4,1.6-.4,1.2.1,1.6.4.8.6,1.1,1c.3.4.4,1,.4,1.6v4.2c0,.6-.1,1.1-.4,1.6s-.6.8-1.1,1-1,.4-1.6.4ZM144.9,326.7c.4,0,.7-.1.9-.4.2-.2.3-.6.3-1v-4c0-.4-.1-.7-.3-1-.2-.2-.5-.4-.9-.4s-.7.1-.9.4c-.2.2-.3.6-.3,1v4c0,.4.1.7.3,1,.2.2.5.4.9.4ZM147.9,328.7l-3.4-2.9,1.1-1.3,3.4,2.9-1.1,1.3Z"/>
      <path d="M152.6,328.5c-.9,0-1.7-.3-2.2-.8s-.8-1.3-.8-2.3v-6.9h1.8v7c0,.4.1.7.3.9.2.2.5.3.9.3s.7-.1.9-.3c.2-.2.3-.5.3-.9v-7h1.8v6.9c0,1-.3,1.7-.8,2.3s-1.3.8-2.2.8Z"/>
      <path d="M157.1,328.4v-9.9h1.8v9.9h-1.8ZM157.8,320.1v-1.7h4.8v1.7h-4.8ZM157.8,324.3v-1.7h4.3v1.7h-4.3ZM157.8,328.4v-1.7h4.8v1.7h-4.8Z"/>
      <path d="M166.6,328.5c-.6,0-1,0-1.5-.2-.4-.2-.8-.4-1-.7s-.5-.7-.6-1.2l1.7-.7c.1.4.3.7.6.9.3.2.6.3,1,.3s.7,0,.9-.3.3-.4.3-.7v-.4c0-.3,0-.4-.2-.6-.1-.1-.3-.3-.6-.4s-.5-.2-.8-.3c-.3,0-.6-.2-.9-.3s-.6-.3-.9-.5c-.3-.2-.5-.5-.6-.8-.2-.3-.2-.7-.2-1.2v-.3c0-.9.3-1.5.8-2,.5-.5,1.3-.7,2.3-.7s1.3.2,1.8.5c.5.4.8.9,1,1.6l-1.6.8c-.1-.4-.3-.7-.5-.9s-.5-.3-.8-.3-.7,0-.9.2-.3.4-.3.7v.3c0,.3,0,.5.2.7.2.2.4.3.6.4.3,0,.5.2.8.3.3.1.6.2.9.3s.6.3.8.5c.2.2.4.4.6.8s.2.7.2,1.2v.4c0,.9-.3,1.5-.8,2-.5.5-1.3.7-2.3.7Z"/>
      <path d="M170.2,320.1v-1.7h6.1v1.7h-6.1ZM172.3,328.4v-9.1h1.8v9.1h-1.8Z"/>
      <path d="M178.9,318.4v9.9h-1.8v-9.9h1.8Z"/>
      <path d="M183.5,328.5c-.6,0-1.2-.1-1.6-.4s-.8-.6-1.1-1-.4-1-.4-1.6v-4.2c0-.6.1-1.1.4-1.6.3-.4.6-.8,1.1-1s1-.4,1.6-.4,1.2.1,1.6.4.8.6,1.1,1c.3.4.4,1,.4,1.6v4.2c0,.6-.1,1.1-.4,1.6s-.6.8-1.1,1-1,.4-1.6.4ZM183.5,326.7c.4,0,.7-.1.9-.4.2-.2.3-.6.3-1v-4c0-.4-.1-.7-.3-1-.2-.2-.5-.4-.9-.4s-.7.1-.9.4c-.2.2-.3.6-.3,1v4c0,.4.1.7.3,1,.2.2.5.4.9.4Z"/>
      <path d="M188,328.3v-9.9h1.8l3,7.1-.2.2v-7.3h1.7v9.9h-1.8l-3-6.9.2-.2v7.1h-1.7Z"/>
      <path d="M198.8,328.5c-.6,0-1,0-1.5-.2-.4-.2-.8-.4-1-.7s-.5-.7-.6-1.2l1.7-.7c.1.4.3.7.6.9.3.2.6.3,1,.3s.7,0,.9-.3.3-.4.3-.7v-.4c0-.3,0-.4-.2-.6-.1-.1-.3-.3-.6-.4s-.5-.2-.8-.3c-.3,0-.6-.2-.9-.3s-.6-.3-.9-.5c-.3-.2-.5-.5-.6-.8-.2-.3-.2-.7-.2-1.2v-.3c0-.9.3-1.5.8-2,.5-.5,1.3-.7,2.3-.7s1.3.2,1.8.5c.5.4.8.9,1,1.6l-1.6.8c-.1-.4-.3-.7-.5-.9s-.5-.3-.8-.3-.7,0-.9.2-.3.4-.3.7v.3c0,.3,0,.5.2.7.2.2.4.3.6.4.3,0,.5.2.8.3.3.1.6.2.9.3s.6.3.8.5c.2.2.4.4.6.8s.2.7.2,1.2v.4c0,.9-.3,1.5-.8,2-.5.5-1.3.7-2.3.7Z"/>
    </g>
  </g>
  <g id="Character">
    <g>
      <g>
        <path class="st7" d="M318.3,264.8s-3.3,17.9-3.8,23.2c-.5,5.3-1,26.9,2.8,41.6,3.8,14.7,9.3,25.5,9.3,25.5,0,0,2.5,10.4,4,13.1,1.5,2.8,14.1,24.3,14.1,24.3,0,0-.8,8.8-1.3,10.4-.5,1.5-2.3,10.9-1.8,13.6.5,2.8,1.3,4.5.5,8.1-.8,3.5-1.8,7.1,0,10.1,1.8,3,6.1,3.3,7.3,1.5,1.3-1.8,3.5-5.3,2.8-10.4-.8-5.1-3.3-11.6-2.8-14.4.5-2.8,2.3-6.3,2.3-6.3,0,0,9.6,19.7,10.1,21.2.5,1.5,1.5,7.8,2,9.9.5,2,3.3-.8,4.3-2,1-1.3,4.8-6.6,4-10.1-.8-3.5-3-9.9-3-9.9l3.8,5c.4.5,1.1.1,1-.5-.7-2.4-1.7-5.6-2-6.3-.5-1-.8-4.3-2.8-7.1-2-2.8-7.6-.3-7.6-.3l-4.3-13.6s7.8-25.8,6.3-34.4c-1.5-8.6-2.3-14.9-1.8-16.7.5-1.8,10.1-28.4,10.1-34s.3-19-2.8-26.3c-3-7.3-7.1-14.1-7.1-14.1l-44-1.3Z"/>
        <path class="st3" d="M360.9,402.2l-3.4-10.7s7.8-25.8,6.3-34.4c-1.5-8.6-2.3-14.9-1.8-16.7.5-1.8,9.2-28.5,10.1-34,1.7-10.3.3-19-2.8-26.3-3-7.3-7.1-14.1-7.1-14.1l-44-1.3s-3.3,17.9-3.8,23.2c-.5,5.3-1,26.9,2.8,41.6s9.3,25.5,9.3,25.5c0,0,2.5,10.4,4,13.1,1.5,2.8,14.1,24.3,14.1,24.3,0,0-.4,5.1-.9,8.2,1.6,1.1,3.8,2.3,5.9,2.4l2,2s5.7,2.5,8.9-2.9Z"/>
        <path class="st8" d="M354.3,380.9c-1.2-4.7-2.7-10.4-3.7-13.7-1.8-6.1-7.3-21.5-7.3-21.5l-4.5-46.1-8.6-5.6"/>
        <path class="st8" d="M356.2,388.2s-.4-1.5-.9-3.7"/>
        <path class="st8" d="M347.6,288.7c-2.4,3.8-5.2,8.5-6.3,11.9"/>
        <path class="st8" d="M352.2,282s-1,1.4-2.5,3.6"/>
        <path class="st3" d="M372.1,412.5c-.5-1-.8-4.3-2.8-7.1-.6-.8-1.5-1.2-2.5-1.3,1.7,4.3.1,7.8,1,11.1,1,3.8,1.8,7.1.3,9.9-1.5,2.8-5.3,4.3-5.3,4.3h0c.5,2.4,1,5.5,1.3,6.8.5,2,3.3-.8,4.3-2,1-1.3,4.8-6.6,4-10.1-.8-3.5-3-9.9-3-9.9l4.4,5.8c.2.3.8,0,.6-.3-.7-2.5-1.9-6.5-2.2-7.2Z"/>
        <path class="st3" d="M352.5,426.4c-.4,1.2-.8,2.7-1.3,4-1,2.8-4.3,3-6.6.5-2.3-2.5-2.3-6.3-2.3-6.3-.8,3.5-1.8,7.1,0,10.1,1.8,3,6.1,3.3,7.3,1.5,1.2-1.7,3.4-5.1,2.8-9.8Z"/>
      </g>
      <g>
        <path class="st1" d="M314.5,202.6s-3.8,1.3-3.7,1.8c.2.5-6.1,32-6.1,32,0,0-4.5,11.6-4,15.7s4,9.1,8,9.1,5.5-2.5,6.3-3.6c.8-1.2,3.6-6.6,3.6-6.6,0,0-1,10.4-1.3,11.4-.3,1-2,3.6-1.2,4.5.8.8,3.1,2.2,4.3,2.5s14.1,2.8,25.3,2.2c11.3-.7,18.1-3.6,18.1-3.6,0,0,1-3.1,1.3-3.6.3-.5,1-1.3,1-1.3,0,0,10.6-1.2,11.3-1.8.7-.7,2.5-3.5,2.3-8-.2-4.5,1.5-43.2.7-44.1-.8-.8-4.7-2.8-4.7-2.8l-19.2-10.7-28.6,3.8-13.4,3.3Z"/>
        <path class="st0" d="M314.7,210.9s3.5,6.4,4.3,10.4"/>
        <path class="st5" d="M307.3,238.9s4.5.6,6.3,3"/>
        <path class="st5" d="M312.2,238.6s2.2,1.2,2.7,2.2"/>
        <path class="st5" d="M302.9,244.9s1.8-3.6,4.6-4.1c2.8-.5,6.8,2.2,6.8,2.2l2.3-.8,3,6.1-1,2.8"/>
        <path class="st5" d="M372.9,212.9s-2.5,5.6-3.3,7.5"/>
        <line class="st5" x1="366.2" y1="263" x2="356.6" y2="253.9"/>
        <line class="st5" x1="362.4" y1="261.6" x2="352.8" y2="256.6"/>
        <line class="st5" x1="325.2" y1="269.9" x2="350.7" y2="267.1"/>
        <path class="st5" d="M346.4,209.5s-2.9,28.8-3.1,30.4"/>
        <line class="st5" x1="341.7" y1="251.1" x2="340.9" y2="260.6"/>
      </g>
      <polygon class="st7" points="358.3 190.8 355.8 197.2 347.4 206.8 340 196.9 340.6 184.5 350 193.1 358.3 190.8"/>
      <g>
        <path class="st3" d="M350.7,151.4s-14.7,5.3-16.8,9.5c-2,4.2-3.9,11.8-3.9,12.3s-7,3.3-8.4,5.5c-1.4,2.2.1,8.5,0,10.3-.1,1.8-6.6,3.8-7.2,7.7-.6,3.9.1,6,.1,6l11.3-1.8s7.4,2.9,11.3,1.4c3.9-1.5,4.3-9.1,4.1-11.7s-.6-6.1-.6-6.1l5.2-14.7,11.8-3.6,7.5,7-6.9,18.1s-2.2,4.4-1.8,5.5c.4,1.1,3.9,2.3,3.9,2.3l15.5,7.2s.6-1.7.4-3.7-3.6-6.3-3.6-7.6,4.3-6.2,2.3-10.7c-2-4.4-4.2-6.9-5.3-9.1-1.1-2.3,1-6.6-1.3-12.2s-9.8-10.4-11.8-11.6c-2-1.1-5.7-.1-5.7-.1Z"/>
        <path class="st7" d="M356.1,161.6s-11.4,5.1-12.3,7.5c-.9,2.4-3.3,13.6-3.2,15.4.1,1.8,7.7,10.9,9.3,11.2s9.3-4.3,10.7-5.3c1.4-1,6-16.3,5.9-18.7-.1-2.4-9.1-9.9-10.4-10Z"/>
        <path class="st0" d="M343.6,171.1c7.8-2.1,12.4-9.5,12.4-9.5,0,0,5.7,10.2,10.9,11.8"/>
        <path class="st0" d="M356.1,161.6s-11.4,9.5-15.3,10.2"/>
        <path class="st5" d="M356.3,184.4s-1.8,1.4-3.6.9"/>
        <path class="st5" d="M348.4,186.1s2.7,3.4,7.2,1.4"/>
        <path class="st5" d="M352.8,174s-3.2-2.2-6.2-.8"/>
        <path class="st5" d="M358.6,174.7s3.6-1.4,5.2.3"/>
        <path class="st9" d="M350.5,177.7c0,.8-.6,1.3-1.2,1.3-.6,0-1-.7-.9-1.5,0-.8.6-1.3,1.2-1.3.6,0,1,.7.9,1.5Z"/>
        <path class="st9" d="M360.5,179.3c0,.8-.6,1.3-1.2,1.3-.6,0-1-.7-.9-1.5,0-.8.6-1.3,1.2-1.3.6,0,1,.7.9,1.5Z"/>
      </g>
      <polygon class="st2" points="335.8 202.5 340.3 210.4 345.9 204.7 340 196.9 335.8 202.5"/>
      <polygon class="st2" points="349.5 205 353.6 210.8 360.2 199.1 356.5 195.6 349.5 205"/>
      <g>
        <polygon class="st7" points="330.6 244.5 321.8 244.5 320.7 224.2 331.7 224.2 330.6 244.5"/>
        <rect class="st3" x="319.6" y="222.5" width="13.1" height="3.1"/>
        <rect class="st3" x="321.4" y="221" width="9.6" height="1.4"/>
      </g>
      <path class="st7" d="M320.3,246.3c0,0,0,0,0,.1-.5,1.6-1.9,2.6-3.6,2.8-.9,0-1.8-.2-2.4-.8-.6-.6-.9-1.5-1-2.4-.2-2.1.1-3,1.4-4.5.4-.5,2-1.8,2.1-2.4l.9-7s8.7-2,9.5-1.9c.8,0,.9.9.8,1.4s-1.5.9-1.8.9c-.3,0-4.5,1.1-4.5,1.1l-1.5,1.8s2-.9,2.3-.9,5-.7,5.6-.8c.6,0,1.3.7.9,1.4-.4.8-.7.9-.9.9s-5,.9-5,.9l-2.7,2.3s3.6-1.1,4-1.1,3.7,0,3.8.5c0,.6,0,1.2-.8,1.4s-3.2.6-3.2.6l-2.8,1.5h2.7s2.7.9,3.2.9c.6,0,.9.4.2,1.2-.8.9-6.7.2-6.7.2,0,0-.3,1.4-.4,1.9Z"/>
      <g>
        <path class="st1" d="M366.3,242.3l-1.9,2.5s0,15,.6,16.3c.6,1.3,5.2,4.7,7.7,4.7s7.3-5.7,7.5-6.6c.2-.9-6.1-19.2-6-19.7.1-.5-.6-1.1-1.4-1.1s-6.5,3.9-6.5,3.9Z"/>
        <path class="st7" d="M372.8,233.3l.3,6.3s-.4,2.6-2,3.7c-1.6,1.1-3.9,1.1-3.9,1.1l-1.1-2.1-1.6-1.6,8.3-7.3Z"/>
        <polygon class="st3" points="374.7 224.7 362.8 222.2 355.3 242.2 365.4 244 374.7 224.7"/>
        <g>
          <path class="st7" d="M373.1,229.8s-8,.4-8.1,1c0,.6.2,1.4.4,1.5.3,0,7.4,1.1,7.4,1.1,0,0,2-.4,1.9-2,0-1.6-1.6-1.5-1.6-1.5Z"/>
          <path class="st7" d="M368.5,232.9s-7-.8-7.4-.4c-.4.4-.7,1.1.4,1.5,1.1.4,7.5,2.2,8,2.2s2-.4,2.5-1.3c.4-.9.2-1.4.2-1.4l-3.6-.6Z"/>
          <path class="st7" d="M364.9,235.2s-5.3-1.1-5.6-.5c-.3.5-.4,1.4.2,1.8.5.4,7.6,2.3,8.1,2.5s1.5-.4,1.9-1.1c.4-.7,0-1.6,0-1.6l-4.6-1.1Z"/>
          <path class="st7" d="M365.1,238.3s-4-.8-4.2-.4c-.2.4-.3,1.4.5,1.7.8.3,5.4,2.1,6.2,1.6s.5-2,.5-2l-3.1-1Z"/>
        </g>
      </g>
    </g>
  </g>
  <g id="Speech_Bubble">
    <g>
      <path class="st6" d="M388.9,121.4h36.3c3.4,0,6.1,2.8,6.1,6.1v24.6c0,3.4-2.8,6.1-6.1,6.1h-21.3l-9.7,13.7v-13.7h-5.2c-3.4,0-6.1-2.8-6.1-6.1v-24.6c0-3.4,2.8-6.1,6.1-6.1Z"/>
      <g>
        <path class="st10" d="M404.6,153.2c-1.4,0-2.7-.8-3.5-1.9l-6.6-9.5c-.7-1-.9-2.2-.7-3.4.2-1.2.9-2.2,1.9-2.9.8-.5,1.6-.8,2.6-.8,1.5,0,2.9.7,3.7,1.9l3.2,4.6,13-15.8c.9-1,2.1-1.6,3.5-1.6s2.1.4,2.9,1c1.9,1.6,2.2,4.4.6,6.3l-16.8,20.4c-.9,1-2.1,1.6-3.5,1.6h-.2Z"/>
        <path class="st9" d="M421.5,124.8c.8,0,1.6.3,2.2.8,1.5,1.2,1.7,3.4.5,4.9l-16.8,20.4c-.7.8-1.7,1.3-2.7,1.3s0,0-.1,0c-1.1,0-2.1-.6-2.7-1.5l-6.6-9.5c-1.1-1.6-.7-3.8.9-4.9.6-.4,1.3-.6,2-.6,1.1,0,2.2.5,2.9,1.5l3.9,5.7,13.9-16.9c.7-.8,1.7-1.3,2.7-1.3M421.5,122.8h0c-1.7,0-3.2.7-4.3,2l-12.2,14.8-2.4-3.5c-1-1.5-2.7-2.4-4.5-2.4s-2.2.3-3.1,1c-1.2.8-2,2.1-2.3,3.5s0,2.9.9,4.1l6.6,9.5c1,1.4,2.6,2.3,4.3,2.4,0,0,.1,0,.2,0,1.7,0,3.2-.7,4.2-2l16.8-20.4c1.9-2.3,1.6-5.8-.8-7.7-1-.8-2.2-1.3-3.5-1.3h0Z"/>
      </g>
    </g>
  </g>
</svg>