<?xml version="1.0" encoding="UTF-8"?>
<svg id="Layer_1" xmlns="http://www.w3.org/2000/svg" version="1.1" viewBox="0 0 462.5 440.4">
  <!-- Generator: Adobe Illustrator 29.0.0, SVG Export Plug-In . SVG Version: 2.1.0 Build 186)  -->
  <defs>
    <style>
      .st0, .st1, .st2, .st3, .st4, .st5, .st6, .st7, .st8, .st9, .st10, .st11, .st12, .st13, .st14 {
        stroke: #263238;
      }

      .st0, .st1, .st3, .st4, .st15, .st5, .st6, .st7, .st8, .st10, .st11, .st12, .st13, .st14 {
        stroke-linecap: round;
      }

      .st0, .st1, .st3, .st4, .st5, .st6, .st7, .st8, .st10, .st11, .st12, .st13 {
        stroke-linejoin: round;
      }

      .st0, .st2, .st9 {
        fill: #16a34a;
      }

      .st1, .st16 {
        fill: #fff;
      }

      .st2 {
        stroke-miterlimit: 10;
        stroke-width: 1px;
      }

      .st3 {
        stroke-dasharray: 4.7 4.7;
      }

      .st3, .st4, .st15, .st5, .st6, .st7, .st8, .st10, .st11, .st12, .st14 {
        fill: none;
      }

      .st4 {
        stroke-dasharray: 5 5;
      }

      .st17, .st13 {
        fill: #263238;
      }

      .st15 {
        stroke: #92e3a9;
        stroke-width: 3px;
      }

      .st15, .st9, .st14 {
        stroke-miterlimit: 10;
      }

      .st5 {
        stroke-dasharray: 5.1 5.1;
      }

      .st6 {
        stroke-dasharray: 4.9 4.9;
      }

      .st18 {
        fill: #8c8c8c;
      }

      .st7 {
        stroke-width: 2px;
      }

      .st8 {
        stroke-width: 2px;
      }

      .st16 {
        isolation: isolate;
        opacity: .7;
      }

      .st19 {
        fill: #92e3a9;
      }

      .st10 {
        stroke-dasharray: 5.4 5.4;
      }

      .st12 {
        stroke-dasharray: 4.9 4.9;
      }

      .st20 {
        fill: #7a7a7a;
      }
    </style>
  </defs>
  <g id="Background_Simple">
    <g>
      <path class="st19" d="M387,387.1c15.4-10.2,28.4-23.3,38.2-40.4,57.2-99.5,44.2-246.2-65.8-309.1-50.9-29.1-124.1-47.5-179.1-17.6-44.6,24.2-71.9,69.8-94.6,111.3-14.2,26.1-25.9,54.2-43.5,78.6-22.7,31.7-47.7,73.9-22.5,110.7,34.4,50.1,99.4,73,158.3,88,63.9,16.3,135.8,18.7,194.9-13.2,4.8-2.6,9.4-5.4,14-8.3Z"/>
      <path class="st16" d="M387,387.1c15.4-10.2,28.4-23.3,38.2-40.4,57.2-99.5,44.2-246.2-65.8-309.1-50.9-29.1-124.1-47.5-179.1-17.6-44.6,24.2-71.9,69.8-94.6,111.3-14.2,26.1-25.9,54.2-43.5,78.6-22.7,31.7-47.7,73.9-22.5,110.7,34.4,50.1,99.4,73,158.3,88,63.9,16.3,135.8,18.7,194.9-13.2,4.8-2.6,9.4-5.4,14-8.3Z"/>
    </g>
  </g>
  <g id="Wifi_Icon">
    <g>
      <path class="st17" d="M323.1,44.1c42,.7,77.1,16.6,104.8,48.5,3.8,4.4,3.3,10.4-.9,14-4,3.4-10,3-13.7-1.3-10-11.7-21.7-21.3-35.3-28.5-42.8-22.4-94-16.9-130.8,14.2-5.1,4.3-9.6,9.3-14.2,14.1-4,4.2-9.8,4.9-14,1.3-4.1-3.6-4.4-9.6-.7-14,23.2-26.8,52.3-42.7,87.4-47.6,2.8-.4,5.5-.7,8.3-.8,3-.1,6.1,0,9.1,0h0Z"/>
      <path class="st17" d="M326.6,83.1c26.6.7,51.6,12,71.2,34.8,3.9,4.5,3.4,10.3-.9,14-4.1,3.5-10,3.1-13.8-1.3-10.3-11.9-22.7-20.6-37.9-24.7-30.9-8.3-57.6-.7-80,22.1-.8.9-1.6,1.8-2.4,2.6-3.7,4.2-9.7,4.7-13.7,1.3-4.3-3.6-4.7-9.6-1-14,8.8-10.3,19.2-18.5,31.3-24.6,13.8-6.8,28.3-10.1,47-10.2h0Z"/>
      <path class="st17" d="M370.3,149.6c0,4.1-2.5,7.6-6.2,9.1-3.8,1.5-8,.5-10.8-2.7-4.2-4.7-9-8.6-14.8-11-16-6.8-33.5-2.6-45.4,10.8-2.8,3.2-6.3,4.3-10.4,3.1-3.9-1.2-6.2-4-6.8-8-.4-2.8.4-5.4,2.3-7.6,20.3-24.5,57.7-28,82.1-7.5,2.8,2.3,5.4,4.9,7.7,7.7,1.4,1.6,1.9,3.9,2.9,5.9-.2,0-.3.2-.5.2h0Z"/>
      <path class="st17" d="M323.1,200.6c-10.9,0-19.6-8.6-19.5-19.5,0-10.7,8.7-19.4,19.5-19.5,10.8,0,19.6,8.7,19.5,19.6,0,10.8-8.7,19.4-19.5,19.4h0Z"/>
    </g>
  </g>
  <g id="Globe_Icon">
    <g>
      <circle class="st7" cx="189.7" cy="277.6" r="23.2"/>
      <ellipse class="st8" cx="189.7" cy="277.6" rx="11.5" ry="23.2"/>
      <path class="st8" d="M173.7,261.2c4.2,4,9.8,6.4,16,6.4s12-2.5,16.2-6.6"/>
      <path class="st8" d="M205.8,294.1c-4.2-4-9.8-6.4-16.1-6.4s-12.1,2.5-16.3,6.7"/>
      <line class="st8" x1="166.5" y1="277.6" x2="213" y2="277.6"/>
      <line class="st8" x1="189.7" y1="254.4" x2="189.7" y2="300.9"/>
    </g>
    <g>
      <line class="st11" x1="189.8" y1="247" x2="189.8" y2="244.5"/>
      <line class="st5" x1="189.8" y1="239.4" x2="189.8" y2="-11.7"/>
      <line class="st11" x1="189.8" y1="-14.3" x2="189.8" y2="-16.8"/>
    </g>
  </g>
  <g id="Ubication_Icon">
    <path class="st13" d="M152.3,111.5c-8,0-14.4,6.5-14.4,14.4s14.4,24.3,14.4,24.3c0,0,14.4-16.3,14.4-24.3s-6.5-14.4-14.4-14.4ZM152.3,132.5c-3.6,0-6.6-2.9-6.6-6.6s2.9-6.6,6.6-6.6,6.6,2.9,6.6,6.6-2.9,6.6-6.6,6.6Z"/>
    <g>
      <line class="st11" x1="152.3" y1="111.5" x2="152.3" y2="109"/>
      <line class="st12" x1="152.3" y1="104.1" x2="152.3" y2="-11.8"/>
      <line class="st11" x1="152.3" y1="-14.3" x2="152.3" y2="-16.8"/>
    </g>
  </g>
  <g id="Chat_Icon">
    <g>
      <path class="st1" d="M118.1,230h-28.6c-4.7,0-8.4,3.8-8.4,8.5v13c0,4.7,3.8,8.5,8.4,8.5h0l.3,13.1,9-13.1h19.4c4.7,0,8.4-3.8,8.4-8.5v-13c0-4.7-3.8-8.5-8.4-8.5Z"/>
      <g>
        <path class="st13" d="M107.3,237.1h23.5c3.8,0,6.9,3.1,6.9,6.9v10.7c0,3.8-3.1,6.9-6.9,6.9h0l-.2,10.8-7.4-10.8h-15.9c-3.8,0-6.9-3.1-6.9-6.9v-10.7c0-3.8,3.1-6.9,6.9-6.9Z"/>
        <g>
          <path class="st19" d="M114.4,249.3c0-1.4-1.2-2.6-2.6-2.6s-2.6,1.2-2.6,2.6,1.2,2.6,2.6,2.6,2.6-1.2,2.6-2.6Z"/>
          <circle class="st19" cx="119.8" cy="249.3" r="2.6"/>
          <circle class="st19" cx="127.8" cy="249.3" r="2.6"/>
        </g>
      </g>
    </g>
    <g>
      <line class="st11" x1="112.4" y1="220.9" x2="112.4" y2="218.4"/>
      <line class="st12" x1="112.4" y1="213.4" x2="112.4" y2="-10.9"/>
      <line class="st11" x1="112.4" y1="-13.4" x2="112.4" y2="-15.9"/>
    </g>
  </g>
  <g id="Email_Icon">
    <g>
      <rect class="st1" x="51.1" y="147.4" width="50.6" height="29.6"/>
      <polygon class="st1" points="51.1 177 76 154 101.7 177 51.1 177"/>
      <polygon class="st1" points="51.1 147.4 76.4 162.2 101.7 147.4 51.1 147.4"/>
    </g>
    <g>
      <line class="st11" x1="76" y1="146.1" x2="76" y2="143.6"/>
      <line class="st3" x1="76" y1="138.9" x2="76" y2="103.7"/>
      <line class="st11" x1="76" y1="101.3" x2="76" y2="98.8"/>
    </g>
  </g>
  <g id="Cloud_Icon">
    <path class="st1" d="M89.5,56.1c-4.4-9-13.7-15.2-24.5-15.2s-23.4,8.6-26.4,20.1c-.4,0-.9,0-1.3,0-9.4,0-17,7.4-17,16.6s6.4,15.4,14.8,16.5v.2h51.2c10.8,0,19.6-8.6,19.6-19.2s-7-17.4-16.3-18.9Z"/>
    <g>
      <line class="st11" x1="65" y1="41" x2="65" y2="38.5"/>
      <line class="st6" x1="65" y1="33.6" x2="65" y2="-12.7"/>
      <line class="st11" x1="65" y1="-15.2" x2="65" y2="-17.7"/>
    </g>
  </g>
  <g id="Share_Icon">
    <path class="st17" d="M32.5,219.4c-1.2,0-2.3.4-3.2,1.1l-12.6-9.4c.2-.6.3-1.2.3-1.9,0-2.9-2.4-5.2-5.2-5.2s-5.2,2.4-5.2,5.2,2.4,5.2,5.2,5.2,2.3-.4,3.2-1.1l12.6,9.4c-.2.6-.3,1.2-.3,1.9s.1,1.3.3,1.9l-12.6,9.4c-.9-.7-2-1.1-3.2-1.1-2.9,0-5.2,2.4-5.2,5.2s2.4,5.2,5.2,5.2,5.2-2.4,5.2-5.2-.1-1.3-.4-1.9l12.6-9.4c.9.7,2,1.1,3.2,1.1,2.9,0,5.2-2.4,5.2-5.2s-2.3-5.2-5.2-5.2Z"/>
    <g>
      <line class="st11" x1="24.7" y1="47" x2="24.7" y2="44.5"/>
      <line class="st10" x1="24.7" y1="39.2" x2="24.7" y2="-11.8"/>
      <line class="st11" x1="24.7" y1="-14.5" x2="24.7" y2="-17"/>
    </g>
    <g>
      <line class="st11" x1="24.7" y1="208.2" x2="24.7" y2="205.7"/>
      <line class="st4" x1="24.7" y1="200.7" x2="24.7" y2="102.9"/>
      <line class="st11" x1="24.7" y1="100.4" x2="24.7" y2="97.9"/>
    </g>
  </g>
  <g id="Plant">
    <g>
      <g>
        <ellipse class="st9" cx="78.3" cy="330.2" rx="12.7" ry="33.3"/>
        <ellipse class="st2" cx="107.8" cy="306.6" rx="23.7" ry="10.3" transform="translate(-217 316.5) rotate(-72.4)"/>
        <path class="st9" d="M24.6,384.9c-12.9-2.2-22.6-8.5-21.6-14.1s12.2-8.4,25.1-6.2c12.9,2.2,22.6,8.5,21.7,14.1-1,5.6-12.2,8.4-25.1,6.2Z"/>
        <path class="st9" d="M129.6,354.2c-10.8,10.7-23.5,15.3-28.4,10.4-4.9-5-.2-17.7,10.6-28.4,10.8-10.7,23.5-15.3,28.4-10.4,4.9,5,.2,17.7-10.6,28.4h0Z"/>
        <path class="st9" d="M55.3,324.8c10.4,15.1,13.5,31.1,6.9,35.6-6.6,4.5-20.4-4-30.8-19.2-10.4-15.1-13.5-31.1-6.9-35.6s20.4,4,30.8,19.2h0Z"/>
        <line class="st14" x1="79.2" y1="361.8" x2="80.1" y2="407.5"/>
        <line class="st14" x1="78" y1="317.8" x2="79.2" y2="361.8"/>
        <line class="st14" x1="78.1" y1="310.7" x2="78" y2="314"/>
        <path class="st14" d="M62.2,358.3c6.4,13.4,11.5,29.6,12.5,48"/>
        <path class="st14" d="M40.4,325c5.9,6.8,14.6,18.2,21.8,33.3"/>
        <path class="st14" d="M33.6,317.7s1.3,1.2,3.5,3.5"/>
        <path class="st14" d="M101.9,363c-7.4,10.2-14.8,23.6-20.6,40.8"/>
        <path class="st14" d="M116.5,346.2c-4.5,4.2-9.5,9.8-14.6,16.8"/>
        <path class="st14" d="M132.1,334.3s-4.5,2.3-11.1,7.9"/>
        <path class="st14" d="M101.4,326.1c-7,22.1-16.4,54.8-20.8,83.1"/>
        <path class="st14" d="M105.7,312.9c-1.2,3.7-2.7,8.2-4.3,13.1"/>
        <path class="st14" d="M110.1,300.3s-1.2,3.4-3.2,9.2"/>
        <path class="st14" d="M49.1,375.6c8.8,3.3,17.3,9.8,21.5,21.9"/>
        <path class="st14" d="M32.9,372.3c4.7.3,10.5,1.1,16.2,3.3"/>
        <path class="st14" d="M22.3,372.6s1.6-.2,4.1-.3"/>
        <path class="st9" d="M135.1,384.9c12.9-2.2,22.6-8.5,21.6-14.1-.9-5.6-12.2-8.4-25.1-6.2-12.9,2.2-22.6,8.5-21.7,14.1s12.2,8.4,25.1,6.2Z"/>
        <path class="st14" d="M110.9,375.5c-8.9,3.3-17.6,9.7-21.8,22"/>
        <path class="st14" d="M128.2,372.3c-4.9.2-11.1,1-17.3,3.3"/>
        <path class="st14" d="M137.3,372.6s-1-.1-2.8-.3"/>
      </g>
      <g>
        <path class="st17" d="M110.7,436.4c3.8-7.9,6-17.1,6-26.2s-.9-11-2.4-16H46.8c-1.5,5-2.4,10.4-2.4,16,0,9.1,2.2,18.3,6,26.2h60.3,0Z"/>
        <g>
          <path class="st20" d="M45,401.7c-.2,1.2-.3,2.5-.5,3.7h71.9c-.1-1.3-.3-2.5-.4-3.7H45Z"/>
          <path class="st20" d="M115.7,420.8c.2-1.2.4-2.5.6-3.7H44.8c.2,1.2.3,2.5.6,3.7h70.4Z"/>
        </g>
        <path class="st18" d="M53.1,410.4c0,1.6-1.3,2.9-2.9,2.9s-2.9-1.3-2.9-2.9,1.3-2.9,2.9-2.9,2.9,1.3,2.9,2.9Z"/>
        <path class="st18" d="M67.7,410.4c0,1.6-1.3,2.9-2.9,2.9s-2.9-1.3-2.9-2.9,1.3-2.9,2.9-2.9,2.9,1.3,2.9,2.9Z"/>
        <path class="st18" d="M82.2,410.4c0,1.6-1.3,2.9-2.9,2.9s-2.9-1.3-2.9-2.9,1.3-2.9,2.9-2.9,2.9,1.3,2.9,2.9Z"/>
        <circle class="st18" cx="93.9" cy="410.4" r="2.9"/>
        <path class="st18" d="M111.3,410.4c0,1.6-1.3,2.9-2.9,2.9s-2.9-1.3-2.9-2.9,1.3-2.9,2.9-2.9,2.9,1.3,2.9,2.9Z"/>
      </g>
    </g>
  </g>
  <g id="Device">
    <g>
      <path class="st13" d="M428.5,208.3h0c-2.1-.2-4,1.2-4.3,3.4l-19.4,149.7,12.6,1.4,14.5-150.3c.2-2.1-1.3-4-3.4-4.2h0Z"/>
      <path class="st13" d="M233.6,208.3h0c2.1-.2,4,1.2,4.3,3.4l19.4,149.7-12.6,1.4-14.5-150.3c-.2-2.1,1.3-4,3.4-4.2h0Z"/>
      <g>
        <rect class="st1" x="249" y="358.4" width="206.4" height="78" rx="4.6" ry="4.6"/>
        <rect class="st1" x="244.6" y="368" width="215.2" height="58.8" rx="4.2" ry="4.2"/>
        <rect class="st1" x="140.7" y="358.4" width="206.5" height="78" rx="4.6" ry="4.6"/>
        <rect class="st1" x="136.3" y="368" width="215.2" height="58.8" rx="4.2" ry="4.2"/>
        <rect class="st13" x="154.4" y="380.9" width="180.8" height="31.6" rx="5" ry="5"/>
        <g>
          <path class="st15" d="M164.5,388.6c-3.1,1.2-5.3,4.3-5.3,7.8s3.8,8.4,8.4,8.4,8.4-3.8,8.4-8.4-2.1-6.5-5.1-7.7"/>
          <line class="st15" x1="167.7" y1="385.3" x2="167.7" y2="391.5"/>
        </g>
      </g>
    </g>
  </g>
  <g id="Character">
    <g>
      <g>
        <path class="st1" d="M265.5,405.5s-8.2,2.6-9.9,2.9c-1.7.3-7.1-1-7.2,1s3.1,3.9,8.2,6,10.8,3.8,14.6,3.6c3.8-.2,3.1-7.7,3.3-9,.2-1.3-9-4.5-9-4.5h0Z"/>
        <path class="st1" d="M259.3,413.6c-6.4-2.6-9.4-4-10.7-4.6-.1.1-.2.3-.2.5-.2,2.1,3.1,3.9,8.2,6s10.8,3.8,14.6,3.6c1.4,0,2.2-1.2,2.7-2.6-3.1,0-8.4-.4-14.6-2.9h0Z"/>
      </g>
      <path class="st0" d="M315.2,328.8l-2.1,1.2v3.1s-44.6,7.4-45.2,11.3c-.6,3.9-2.4,61.8-2.4,61.8,0,0,7.2,7.8,8.8,6,1.6-1.8,2-7.4,2-7.4l7.4-51.3s50.3,4.6,57.9,2.3c7.6-2.3,11.3-12.5,11.5-17.1.2-4.7.2-6.8.2-6.8l-34.2-4.7-3.7,1.6h0Z"/>
      <g>
        <path class="st1" d="M300,407.6s-.1.2-.3.5c-.8,1.2-2.9,4.5-5.5,7.2-3.3,3.5-8.8,6.4-8.6,7.6.2,1.2,3.9,1.9,16.5-1.9,5.7-1.8,9.9-1.8,10.5-3.7.6-1.9-4.1-10.3-4.1-10.3l-8.6.6h0Z"/>
        <path class="st1" d="M312.7,417.3c.2-.5,0-1.5-.5-2.7-2.4,1.2-7.1,3.2-13.3,4.9-5.6,1.5-10,2.2-12.6,2.5-.4.4-.7.8-.6,1,.2,1.2,3.9,1.9,16.5-1.9,5.7-1.8,9.9-1.8,10.5-3.7h0Z"/>
      </g>
      <path class="st0" d="M327.5,337.2s-4.7-4.1-5.1-1.8c-.4,2.3-1.2,2.9-1.2,2.9,0,0-32.7,3.9-36.4,6.2s-4.9,5.5-2.7,10.1c2.1,4.7,16.5,55.8,16.5,55.8,0,0,2.5,1.2,4.7,1.6,2.1.4,6.6-1.8,6.6-1.8,0,0-.5-9.5-1.9-12.6-1.4-3.1-6.9-39-6.9-39,0,0,23.6,0,31.6,0s16.7-6.6,18.5-12.1,1-6.6,1-6.6"/>
      <line class="st11" x1="301.1" y1="358.7" x2="300" y2="352.6"/>
      <path class="st11" d="M338.2,345.8c.6.9,1.1,1.8,1.5,2.8"/>
      <path class="st11" d="M329.4,339s4.4,1.7,7.6,5.2"/>
      <path class="st11" d="M336.7,340.1s4.6,1.9,7.1,6.6"/>
      <g>
        <path class="st1" d="M315.7,281.1s0,.3,0,.8c-.2,2.7-3.2,6.8-1.4,12,4.1,11.6,3.3,20.2,2.9,17.7.6,3.9-2.9,12.2-2.9,15s-7.2,3.1,9.1,8c16.3,4.9,22,4.6,26.1,3.1s7-2.9,7.4-6.2-3.1-9.1-3.3-14.2c-.2-5.1-.9-20.9-5.8-31-4.9-10.1-17.7-17.1-17.7-17.1l-14.4,12.1h0Z"/>
        <path class="st11" d="M341.3,319.2c.9-.6,1.6-1.3,2.4-2"/>
        <path class="st11" d="M320.8,330.7s9.6-4.1,17.4-9.3"/>
        <path class="st11" d="M327,329.6c-1.9.9-4.5,2.1-7.2,2.8"/>
        <path class="st11" d="M330.2,327.9s-.5.3-1.5.8"/>
        <line class="st11" x1="332.9" y1="302.2" x2="338.1" y2="295.8"/>
      </g>
      <g>
        <path class="st1" d="M313.8,238s-2.7,2.8-3.5,4.5-1,2.9-2.5,4c-1.5,1.1-4.4.4-4.4,2.1,0,1.7,1.9,3.4,1.9,3.4,0,0-1.5,10.6-.9,12.2.5,1.7,8.1,2,8.1,2l3.9,12.5,13.6-9.2.4-3.6c.3-1.5,2.8-6.1,4.8-9.5s1.1-12.5-3.8-16.4-11.3-3.5-13.3-3.6-4.3,1.7-4.3,1.7h0Z"/>
        <path class="st11" d="M306.3,254s1.9,2.1,5,1.1"/>
        <path class="st17" d="M312.1,247.6c-.3.8-.9,1.3-1.2,1.1s-.3-.9,0-1.6c.3-.8.9-1.3,1.2-1.1s.3.9,0,1.6Z"/>
        <path class="st11" d="M311.6,243.8s2.9-.6,3.4,2.3"/>
        <polygon class="st13" points="312.6 266.1 317.3 266 314.1 269.9 312.6 266.1"/>
        <polyline class="st11" points="323.3 261.3 321.3 260.6 320.1 262.5"/>
      </g>
      <path class="st13" d="M322.2,233.3s2.9-3.4-.6-5-15.5,1.3-14.2,6.6c1.3,5.3,12.5,5.9,13.6,6s-2.1,1.2-1.3,2.8c.9,1.6,3,2.4,3.1,4.1s-2,4.1-1,5.1c1,1,2.6-.5,3.6-.9s3.8,2.4,1.6,6c-2.2,3.5-3.7,3.2-3.7,3.2,0,0-1,2.1,1,3.8s6,1.2,7-.5c1-1.6,2.7-3.1,6.3-6.7,3.6-3.5,5.3-12.5,2.8-18.6s-13.7-8.7-18.2-6h0Z"/>
      <polygon class="st1" points="330 266.2 311.5 279.8 312.6 285.7 333.4 270.3 330 266.2"/>
      <g>
        <polygon class="st1" points="283.8 345.7 316.4 338.6 308.8 334.1 277.8 341 283.8 345.7"/>
        <polygon class="st13" points="269.2 314.8 283.8 345.7 277.8 341 263 311.9 269.2 314.8"/>
      </g>
      <g>
        <path class="st1" d="M295.5,332.6l-7.5,1.9-4.7,6.7s.6.6,1.4.5,2.9-1.9,2.9-1.9l5.5-1.4s-2.9,1.7-2.9,2.1.5.5,1.8.4c1.3-.1,4.4-3,4.4-3l2.1-2.6-3-2.7h0Z"/>
        <polygon class="st1" points="315.8 298.8 312 316.4 295.5 332.6 299.4 336.2 313.1 330 314 327.5 317.3 312.8 315.8 298.8"/>
      </g>
      <g>
        <path class="st1" d="M290.9,329s-5.2.8-7.2.8-6.6.4-7.4.8c-.8.4-4.5,2.7-4.3,4.5s3.5.2,3.5.2c0,0,1,2.3,2.5,4.5s2.3,1.4,5.5.2c3.1-1.2,7.8-4.7,7.8-4.7l2.7-2.5-3.1-3.7h0Z"/>
        <path class="st1" d="M336.6,274.4s-8-1.2-10.9,2.7-5.8,10.7-6.4,15.8-4.3,15.2-4.3,15.2l-24.7,20.6,4.3,6.4s30-14,30.8-15c.8-1,10.7-26.6,10.7-26.6"/>
      </g>
    </g>
  </g>
  <g id="Floor">
    <line class="st11" x1="13.4" y1="436.4" x2="473.5" y2="436.4"/>
  </g>
</svg>