<?xml version="1.0" encoding="UTF-8"?>
<svg xmlns="http://www.w3.org/2000/svg" version="1.1" xmlns:xlink="http://www.w3.org/1999/xlink" viewBox="0 0 348.04 267.55">
  <!-- Generator: Adobe Illustrator 29.0.0, SVG Export Plug-In . SVG Version: 2.1.0 Build 186)  -->
  <defs>
    <style>
      .st0 {
        fill: #757575;
      }

      .st1 {
        font-family: FredokaOne-Regular, 'FredokaOne Regular';
        font-size: 39.91px;
        letter-spacing: .2em;
      }

      .st1, .st2 {
        fill: #16a34a;
      }

      .st3 {
        fill: url(#radial-gradient);
      }

      .st4 {
        fill: #bfbfbf;
      }
    </style>
    <radialGradient id="radial-gradient" cx="228.43" cy="96.78" fx="228.43" fy="96.78" r="20.63" gradientUnits="userSpaceOnUse">
      <stop offset="0" stop-color="#42d3d8"/>
      <stop offset="0" stop-color="#757575"/>
    </radialGradient>
  </defs>
  <g id="OBJECTS">
    <g>
      <path class="st2" d="M172.18,35.29c7.1,0,12.85,5.75,12.85,12.85s-5.75,12.85-12.85,12.85-12.85-5.75-12.85-12.85,5.75-12.85,12.85-12.85h0ZM172.18,23.19c-13.76,0-24.95,11.19-24.95,24.95s11.19,24.95,24.95,24.95,24.95-11.19,24.95-24.95-11.19-24.95-24.95-24.95h0Z"/>
      <path class="st4" d="M118.13,54.16c-2.36,4.44-7.26,7.33-12.75,6.75-6.22-.66-11.14-5.92-11.43-12.17-.34-7.37,5.54-13.46,12.83-13.46,3.84,0,7.29,1.69,9.64,4.36,1.62,1.84,4.16,2.54,6.45,1.67.2-.08.4-.15.59-.23,3.66-1.4,4.91-6.02,2.39-9.01-5.17-6.13-13.22-9.74-22.04-8.72-11.4,1.33-20.56,10.53-21.83,21.94-1.67,15.01,10.1,27.78,24.79,27.78,9.54,0,17.85-5.39,22.04-13.28,2.08-3.92-.87-8.64-5.3-8.67-.04,0-.09,0-.13,0-2.17-.02-4.23,1.12-5.26,3.04Z"/>
      <path class="st4" d="M155.53,111.72l-24.65-24.66c-5.49-5.49-12.78-8.5-20.53-8.5s-15.05,3.02-20.53,8.5l-24.66,24.66c-11.32,11.32-11.32,29.75,0,41.07l14.9,14.89,9.76,9.76c5.49,5.49,12.78,8.5,20.53,8.5.4,0,.78,0,1.17-.03,7.32-.29,14.16-3.27,19.37-8.48l24.65-24.65c.95-.94,1.8-1.93,2.59-2.97,8.65-11.37,7.79-27.71-2.59-38.1ZM139.23,136.5l-24.65,24.65c-.29.29-.62.55-.96.77-.12.08-.24.15-.36.21-.06.05-.14.08-.2.11-.11.06-.22.11-.33.16-.09.05-.18.08-.29.12-.04.02-.08.03-.12.05,0,0-.04,0-.09.03-.03,0-.06.02-.09.03-.09.04-.19.06-.29.08-.04,0-.08.02-.13.03-.06.02-.14.03-.21.05-.17.05-.33.07-.5.08-.09,0-.18.02-.28.03-.14,0-.27.02-.4.02h-.02c-.8,0-1.61-.17-2.36-.5-.68-.29-1.32-.71-1.87-1.26l-13.77-13.76-10.89-10.89c-2.34-2.35-2.34-6.15,0-8.49l24.66-24.66c1.17-1.17,2.71-1.76,4.24-1.76s3.06.59,4.24,1.76l24.65,24.66c2.11,2.1,2.32,5.38.63,7.72-.17.27-.39.52-.63.76Z"/>
      <path class="st4" d="M158.11,149.82c-.78,1.04-1.64,2.03-2.59,2.97l-24.65,24.65c-5.21,5.21-12.05,8.19-19.37,8.48-.39.02-.77.03-1.17.03-7.76,0-15.05-3.02-20.53-8.5l-9.76-9.76c3.25-6.19,7.38-13.03,12.28-20.3l13.77,13.76c.55.55,1.19.98,1.87,1.26.75.33,1.56.5,2.36.5h.02c.14,0,.27,0,.4-.02.09,0,.18-.02.28-.03.17-.03.34-.06.5-.08.07-.02.15-.03.21-.05.05,0,.09-.02.13-.03.09-.02.19-.05.29-.08.04,0,.06-.02.09-.03.06-.02.09-.03.09-.03.04-.02.08-.03.12-.05.1-.04.19-.07.29-.12.11-.05.22-.09.33-.16.06-.03.14-.06.2-.11.12-.06.24-.13.36-.21.34-.22.66-.48.96-.77l24.65-24.65c.24-.24.45-.5.63-.76l4.92.76,13.33,13.32Z"/>
      <path class="st2" d="M218.88,111.71l-24.66-24.65c-5.49-5.49-12.78-8.51-20.53-8.51s-15.05,3.02-20.53,8.51l-11.13,11.14,13.51,13.51c.95.94,1.8,1.93,2.59,2.97l11.33-11.32c1.17-1.17,2.71-1.76,4.24-1.76s3.08.59,4.25,1.76l24.65,24.65c2.35,2.35,2.35,6.14,0,8.49l-24.65,24.65c-1.17,1.17-2.72,1.76-4.25,1.76s-3.07-.59-4.24-1.76l-11.32-11.32s0,0,0,0l-13.33-13.32c-1.21-1.22-1.8-2.82-1.74-4.41-1.06-1.13-2.15-2.26-3.2-3.36-.18-.25-.39-.5-.61-.72l-3.05-3.04c-.11-.11-.22-.23-.32-.33-5.57-5.67-9.94-9.95-9.94-9.95h0c-3.83,5.03-5.91,11.14-5.91,17.57s2.08,12.54,5.92,17.57c.78,1.04,1.65,2.03,2.59,2.97l18.43,18.43,6.22,6.23c5.49,5.49,12.78,8.51,20.53,8.51s15.05-3.02,20.53-8.51l24.66-24.66c11.32-11.32,11.32-29.75,0-41.07Z"/>
      <path class="st0" d="M282.77,111.71l-24.65-24.64c-2.94-2.94-6.39-5.17-10.16-6.6-3.27-1.26-6.77-1.91-10.37-1.91-7.76,0-15.05,3.03-20.53,8.51l-11.41,11.4,13.24,13.24c1.04,1.04,1.99,2.14,2.83,3.29l11.63-11.63c1.17-1.18,2.71-1.76,4.24-1.76s3.06.58,4.24,1.76l24.65,24.65c2.34,2.35,2.34,6.14,0,8.49l-24.65,24.65c-1.18,1.17-2.72,1.76-4.24,1.76s-3.07-.59-4.24-1.76l-10.45-10.44s0,0,0-.02l-1.19-1.18-13.01-13.01c-1.07-1.08-1.66-2.46-1.74-3.85-1.23-1.3-2.48-2.58-3.69-3.82-.18-.29-.41-.56-.67-.82l-6.21-6.2-1.16-1.17-1.09-1.09c-2.06-2.08-3.6-3.61-4.23-4.22l-.32-.33h0c-7.55,10.22-7.54,24.3,0,34.52.85,1.14,1.79,2.24,2.83,3.27l13.24,13.24,5.54,5.54,5.87,5.87c5.49,5.49,12.78,8.51,20.53,8.51s15.05-3.03,20.53-8.51l24.65-24.66c11.32-11.32,11.32-29.74,0-41.07Z"/>
      <path class="st3" d="M237.59,101.6c-1.54,0-3.07.58-4.24,1.76l-11.63,11.63c-.85-1.14-1.79-2.25-2.83-3.29l-13.24-13.24,11.41-11.4c5.49-5.49,12.78-8.51,20.53-8.51,3.6,0,7.11.65,10.37,1.91,11.26,11.04-10.37,21.13-10.37,21.13Z"/>
      <path class="st0" d="M226.23,42.11c2.36-4.44,7.26-7.33,12.75-6.75,6.22.66,11.14,5.92,11.43,12.17.34,7.37-5.54,13.46-12.83,13.46-3.84,0-7.29-1.69-9.64-4.36-1.62-1.84-4.16-2.54-6.45-1.67-.2.08-.4.15-.59.23-3.66,1.4-4.91,6.02-2.39,9.01,5.17,6.13,13.22,9.74,22.04,8.72,11.4-1.33,20.56-10.53,21.83-21.94,1.67-15.01-10.1-27.78-24.79-27.78-9.54,0-17.85,5.39-22.04,13.28-2.08,3.92.87,8.64,5.3,8.67.04,0,.09,0,.13,0,2.17.02,4.23-1.12,5.26-3.04Z"/>
    </g>
    <g>
      <rect class="st4" y="259" width="347.53" height="8.54"/>
      <polygon class="st0" points="347.53 259 347.53 267.54 223.38 267.54 238.31 259 347.53 259"/>
      <path class="st2" d="M239.98,259c-4.14,2.85-8.28,5.7-12.41,8.54h-123.18l11.94-8.54h123.65Z"/>
    </g>
  </g>
  <g id="TEXT">
    <text class="st1" transform="translate(26.62 240.99)"><tspan x="0" y="0">INTERN.COM</tspan></text>
  </g>
</svg>