<?xml version="1.0" encoding="UTF-8"?>
<svg xmlns="http://www.w3.org/2000/svg" version="1.1" xmlns:xlink="http://www.w3.org/1999/xlink" viewBox="0 0 500 400.86">
  <!-- Generator: Adobe Illustrator 29.0.0, SVG Export Plug-In . SVG Version: 2.1.0 Build 186)  -->
  <defs>
    <style>
      .st0 {
        fill: #e1e7fa;
      }

      .st0, .st1, .st2 {
        mix-blend-mode: multiply;
      }

      .st3 {
        fill: #757575;
      }

      .st4 {
        stroke-dasharray: 4.99 4.99;
      }

      .st4, .st5, .st6 {
        fill: none;
        stroke: #fff;
        stroke-linecap: round;
        stroke-miterlimit: 10;
      }

      .st7 {
        fill: #263238;
      }

      .st8, .st9, .st10, .st11 {
        fill: #fff;
      }

      .st12 {
        isolation: isolate;
      }

      .st13 {
        fill: #bfbfbf;
      }

      .st14, .st1 {
        fill: #16a34a;
      }

      .st9 {
        opacity: .3;
      }

      .st15 {
        fill: #92e3a9;
      }

      .st6 {
        stroke-dasharray: 4.99 4.99;
      }

      .st16 {
        fill: #d4f7e5;
      }

      .st17 {
        fill: #a3343f;
      }

      .st10, .st18 {
        mix-blend-mode: soft-light;
      }

      .st10, .st18, .st19 {
        opacity: .5;
      }

      .st2 {
        fill: #ced7f0;
      }

      .st11 {
        font-family: Montserrat-Bold, 'Montserrat Bold';
        font-size: 16.06px;
        font-weight: 700;
        letter-spacing: .02em;
      }

      .st20 {
        clip-path: url(#clippath);
      }
    </style>
    <clipPath id="clippath">
      <rect class="st8" x="0" y="-99.14" width="500" height="500"/>
    </clipPath>
  </defs>
  <g class="st12">
    <g id="BACKGROUND">
      <rect class="st8" y="-99.14" width="500" height="500"/>
    </g>
    <g id="OBJECTS">
      <g>
        <rect class="st8" x="0" y="-99.14" width="500" height="500"/>
        <g class="st20">
          <g>
            <g>
              <path class="st15" d="M14.31,317.72c-15.32-8.24-29.88-20.39-35.6-36.8-4.79-13.76-2.45-29.47,6.06-40.51,8.5-11.04,22.91-17.07,37.14-15.57,7.36.78,14.75,3.56,20.39,8.63,5.64,5.08,9.33,12.59,8.91,19.96-.47,8.26-6.13,15.49-13.58,18.63-7.45,3.14-16.39,2.43-24.05-1.04-17.82-8.07-27.18-29.46-26.49-48.68.7-19.22,9.41-36.72,18.66-53.09,9.25-16.37,19.38-32.66,23.36-51.3,7.18-33.6-8.67-72.18-37.93-92.28"/>
              <g>
                <path class="st5" d="M14.31,317.72c-.73-.39-1.46-.8-2.19-1.21"/>
                <path class="st6" d="M7.84,313.96c-12.81-8.03-24.22-18.97-29.13-33.04-4.79-13.76-2.45-29.47,6.06-40.51,8.5-11.04,22.91-17.07,37.14-15.57,7.36.78,14.75,3.56,20.39,8.63s9.33,12.59,8.91,19.96c-.47,8.26-6.13,15.49-13.58,18.63-7.45,3.14-16.39,2.43-24.05-1.04-17.82-8.07-27.18-29.46-26.49-48.68.7-19.22,9.41-36.72,18.66-53.09,9.25-16.37,19.38-32.66,23.36-51.3,6.84-32.03-7.24-68.57-33.9-89.33"/>
                <path class="st5" d="M-6.79,27.12c-.67-.49-1.35-.97-2.04-1.45"/>
              </g>
            </g>
            <g>
              <path class="st15" d="M528.87,403.36c-24.39.96-48.79-13.19-61.12-35.45-12.33-22.25-12.07-51.66.66-73.66,6.96-12.03,17.73-22.02,30.64-25.61,12.91-3.59,27.88.06,36.61,10.73,8.73,10.67,9.49,28.32.36,38.61-10.78,12.14-31.27,9.82-42.21-2.16-10.94-11.99-13.34-30.53-9.91-46.78,3.43-16.25,11.85-30.77,20.37-44.78,8.52-14.01,17.38-28.12,21.86-44.09,8.66-30.87-1.53-66.68-24.86-87.39-8.49-7.53-18.36-13.08-27.56-19.61-9.2-6.53-18.01-14.4-22.9-24.91-4.89-10.51-5.05-24.15,2.04-33.15"/>
              <g>
                <path class="st5" d="M528.87,403.36c-.83.03-1.67.05-2.5.05"/>
                <path class="st4" d="M521.39,403.18c-21.78-1.85-42.57-15.3-53.64-35.27-12.33-22.25-12.07-51.66.66-73.66,6.96-12.03,17.73-22.02,30.64-25.61,12.91-3.59,27.88.06,36.61,10.73,8.73,10.67,9.49,28.32.36,38.61-10.78,12.14-31.27,9.82-42.21-2.16-10.94-11.99-13.34-30.53-9.91-46.78,3.43-16.25,11.85-30.77,20.37-44.78,8.52-14.01,17.38-28.12,21.86-44.09,8.66-30.87-1.53-66.68-24.86-87.39-8.49-7.53-18.36-13.08-27.56-19.61-9.2-6.53-18.01-14.4-22.9-24.91-4.18-8.97-4.91-20.22-.62-28.92"/>
                <path class="st5" d="M451.41,17.16c.44-.7.92-1.39,1.44-2.04"/>
              </g>
            </g>
          </g>
          <g>
            <g class="st19">
              <path class="st16" d="M527.03,234.26c-19.17-9.61-41.88-9.99-61.57-1.48s-35.27,26.02-41.42,46.56c-4.45-3.83-9.7-6.34-15.37-7.88-5.67-1.54-12.04-1.14-16.99,2-4.82,3.06-7.84,8.39-9.29,13.91-1.45,5.52-1.51,11.3-1.55,17.01-1.28-3.13-5.34-4.78-8.44-3.42-3.1,1.36-4.64,5.46-3.2,8.52-10.84-3.13-22.9,2.87-29.21,12.23-6.31,9.36-7.68,21.3-6.55,32.53-9.33-3.68-20.73-1.4-27.92,5.6-7.72-11.77-12.34-25.56-13.76-39.57l-80.16-4.34c.29,12.97-3.71,26-11.23,36.57-3.85-9.33-13.32-16.42-23.2-14.34,2.6-12.67.91-26.32-5.5-37.55-6.41-11.23-17.68-19.77-30.4-22.06-12.73-2.29-26.65,2.06-35.19,11.77,1.02-3.69-.94-7.44-3.83-9.95s-7.26-3.16-10.76-1.62c-2.52-8.11-5.14-16.26-9.33-23.65-4.18-7.39-10.08-14.05-17.72-17.75-7.6-3.68-16.59-4.19-24.7-1.85-8.11,2.34-15.33,7.43-20.66,13.99-3.88-4.25-9.53-6.84-15.28-7.02-5.75-.17-11.54,2.07-15.67,6.08-.63,69.2-6.22,138.59-6.85,207.79,91.98,5.17,185.15,7.11,277.22,3.85,92.27-3.26,184.34-10.76,276.36-18.25-2.71-70.72-5.1-136.97-7.82-207.69Z"/>
            </g>
            <g class="st19">
              <path class="st16" d="M515.07,274.78c-5.16-6.23-12.88-9.53-20.66-7.31-7.78,2.22-13.93,9.32-15.03,17.33-4.31-7.08-13.46-10.42-21.61-8.93s-15.13,7.26-19.3,14.42c-4.17,7.16-5.74,15.6-5.81,23.88-4.75-2.78-11.03-2.72-15.73.13-4.71,2.86-7.65,8.4-7.37,13.9-3.66-4.44-9.59-6.67-15.34-6.56-5.75.12-11.32,2.38-16.06,5.63-13.03,8.93-20.05,25.85-17.17,41.38-6.41-2.89-16.07,2.42-17.47,9.31-6.32-5.58-15.13-8.22-23.48-7.05-8.35,1.17-16.09,6.14-20.63,13.24-16.8-20.67-24.48-47.39-23.67-74.02l-55.95-1.52c5.81,24.9-5.15,52.85-26.33,67.17-2.75-6.71-11.77-9.96-18.17-6.55,2.15-10.03-2.65-21.17-11.41-26.51-8.76-5.34-20.86-4.48-28.79,2.03,2.61-7.08,3.79-14.87,2.11-22.23-1.68-7.36-6.48-14.2-13.4-17.23-8.11-3.55-17.81-1.39-25.28,3.35-7.47,4.74-13.17,11.76-18.73,18.65.87-5.26-5.86-9.98-10.51-7.38,2.71-10.49,3.4-21.88-.58-31.96-3.98-10.08-13.36-18.47-24.18-19-10.82-.53-21.85,8.59-21.39,19.41-2.98-6.19-9.05-10.79-15.81-12-6.76-1.21-14.05,1.01-18.98,5.79.13,54.78-.09,109.29.05,164.07,152.31-7.24,304.92-8.04,457.3-2.41,26.95,1,52.51,1.43,79.46,2.29-3.36-57.11-6.73-114.22-10.09-171.33Z"/>
            </g>
            <path class="st15" d="M-6.04,318.72c4.59-3.12,11.08-3.14,15.69-.06,4.62,3.08,7.08,9.08,5.96,14.51,3.59-8.55,12.92-14.09,22.19-13.9,9.27.19,18.06,5.71,22.96,13.58,4.9,7.87,6.03,17.8,3.84,26.8,1.84-2.11,5.21-2.67,7.64-1.29,2.43,1.38,3.66,4.57,2.78,7.23,6.03-9.74,18.81-14.74,29.85-11.68,11.04,3.06,19.42,13.92,19.58,25.38,3.13-2.33,7.76-2.38,10.94-.13,3.18,2.25,4.68,6.64,3.53,10.36,9.43-10.51,24.69-15.42,38.48-12.39,13.79,3.03,25.59,13.88,29.75,27.38-63.62,3.88-128.48,7.89-192.1,11.77-4.62.28-9.6.48-13.5-2.03-3.45-2.23-5.36-6.16-6.9-9.97-10.9-27.08-11.37-58.37-.71-85.55Z"/>
            <path class="st15" d="M321.35,402.61c1.16-8.34,6.99-15.88,14.78-19.09,7.79-3.21,17.24-1.98,23.94,3.11.38-2.79,2.46-5.29,5.14-6.16,2.68-.87,5.83-.08,7.78,1.96,2.76-10.16,12.82-17.85,23.35-17.84,10.53,0,20.58,7.72,23.32,17.88,2.14-5.45,9.88-7.7,14.61-4.26-6.02-9.32-8.79-21.01-6.09-31.77,2.71-10.75,11.4-20.16,22.28-22.31,10.88-2.15,23.21,4.02,26.8,14.52-1.31-7.68,2.66-15.98,9.46-19.78,6.8-3.8,15.95-2.85,21.81,2.28,3.28,28.81,3.88,58.21,1.54,87.11-62.52,5.97-126.72,4.33-188.72-5.66Z"/>
          </g>
          <g class="st19">
            <path class="st16" d="M488.97,67.63c-43.62-4.97-87.63-6.54-131.5-4.69,4.38-7.85,15.18-11.59,22.72-6.7-.98-8.27-1.97-16.62-1.23-24.91.74-8.3,3.35-16.65,8.79-22.96,5.44-6.31,14.02-10.24,22.22-8.76,7.17,1.29,13.19,6.47,17.05,12.64,3.86,6.18,5.85,13.32,7.54,20.41-.31-5.25,5.54-9.42,10.73-8.58s9.14,5.45,10.67,10.48c1.52,5.03,1.04,10.43.28,15.63,1.92-6.36,10.19-9.87,16.1-6.82,5.91,3.05,7.85,11.81,3.78,17.07,2.46-1.03,6.49.51,8.8,1.84,2.31,1.33,3.72,2.71,4.06,5.36Z"/>
            <path class="st16" d="M-.29,166.43c41.26-9.25,83.88-12.44,126.05-9.43-.18-3.04-1.28-5.54-3.84-7.2-2.55-1.66-5.91-2.03-8.76-.97.5-7.84.84-15.9-1.67-23.34s-8.56-14.2-16.34-15.27c-8.2-1.13-16.71,5.16-18.04,13.33-2.6-2.56-6.76-3.39-10.14-2.02-3.38,1.37-5.8,4.85-5.89,8.5-3.39-8.4-11.8-14.53-20.83-15.19-9.03-.65-18.24,4.2-22.8,12.02-4.56,7.82-4.25,18.23.76,25.77-4.35-2.72-10.28-2.63-14.55.21-4.27,2.84-4.77,8.52-3.95,13.58Z"/>
            <path class="st15" d="M370.58,148.56c18.77-.88,37.64.36,56.13,3.69-.69-2.87-3.6-4.93-6.54-4.68,2.46-3.7,2.56-8.83.26-12.63-2.3-3.8-6.9-6.08-11.32-5.62-4.42.46-8.44,3.65-9.9,7.84-1.37-1.25-3.5-1.6-5.19-.85-1.7.75-2.87,2.56-2.87,4.41-1.47-2.87-5.02-4.5-8.15-3.75-3.14.75-5.56,3.81-5.58,7.03-2.98.59-5.5,1.82-6.82,4.56Z"/>
            <path class="st15" d="M85.9,80.95c22.5-3.66,45.47-4.41,68.17-2.24-1.5-3.63-5.62-6.02-9.34-4.74,1.04-4.19.66-8.79-1.42-12.57-2.09-3.78-5.97-6.61-10.27-7.04-4.3-.42-8.84,1.77-10.84,5.59-1.23-1.5-3.38-2.17-5.25-1.64-1.86.53-3.34,2.23-3.61,4.15-1.77-3.33-5.61-5.4-9.38-5.21-3.77.19-7.32,2.54-9.11,5.86s-1.82,7.49-.25,10.92c-1.88-.16-4.11.66-5.52,1.92-1.41,1.26-3.12,3.11-3.19,5Z"/>
          </g>
        </g>
      </g>
      <g>
        <g>
          <path class="st7" d="M422.74,246.6c-15.98,28.87-46.32,44.11-67.79,34.04-21.46-10.07-25.91-41.64-9.94-70.52,15.98-28.87,46.32-44.11,67.79-34.04,21.46,10.07,25.91,41.64,9.94,70.52Z"/>
          <polygon class="st17" points="347.59 277.19 354.45 280.41 412.3 175.85 405.44 172.63 347.59 277.19"/>
          <path class="st3" d="M415.38,243.14c-15.98,28.87-46.32,44.11-67.79,34.04-21.46-10.07-25.91-41.64-9.94-70.52,15.98-28.87,46.32-44.11,67.79-34.04,21.46,10.07,25.91,41.64,9.94,70.52Z"/>
          <path class="st8" d="M404.36,237.97c-11.45,20.69-33.19,31.61-48.57,24.39-15.38-7.22-18.57-29.84-7.12-50.52,11.45-20.69,33.19-31.61,48.57-24.39,15.38,7.22,18.57,29.84,7.12,50.52Z"/>
          <path class="st13" d="M392.04,232.19c-6.38,11.54-18.51,17.63-27.09,13.6-8.58-4.03-10.36-16.64-3.97-28.18,6.38-11.54,18.51-17.63,27.09-13.6,8.58,4.03,10.36,16.64,3.97,28.18Z"/>
          <path class="st8" d="M381.27,227.14c-1.96,3.53-5.67,5.4-8.3,4.17-2.63-1.23-3.17-5.1-1.22-8.63s5.67-5.4,8.3-4.17c2.63,1.23,3.17,5.1,1.22,8.63Z"/>
        </g>
        <g>
          <path class="st14" d="M377.95,223.04c-3.61-5.93-7.23-11.85-10.84-17.78-5.75-9.43-11.5-18.87-17.25-28.3-1.31-2.15-2.61-4.29-3.92-6.44-1.13-1.85-4-.1-2.87,1.75,3.61,5.93,7.23,11.85,10.84,17.78,5.75,9.43,11.5,18.87,17.25,28.3,1.31,2.15,2.61,4.29,3.92,6.44,1.13,1.85,4,.1,2.87-1.75h0Z"/>
          <path class="st15" d="M343.19,172.45l-9.07-.76,3.55,5.82c.61.16,1.24.25,1.88.26-.5.12-1,.24-1.49.37l2.69,4.41c.98.03,1.96.06,2.93.08-.8.27-1.59.54-2.39.81l2.61,4.28,9.07.76-9.77-16.04Z"/>
          <path class="st15" d="M346.04,170.72l3.48-8.41,3.55,5.82c-.14.62-.35,1.22-.63,1.79.34-.39.67-.77,1.01-1.16l2.69,4.41c-.42.88-.85,1.76-1.27,2.65.61-.58,1.21-1.17,1.82-1.75l2.61,4.28-3.48,8.41-9.77-16.04Z"/>
        </g>
      </g>
      <g>
        <g>
          <rect class="st13" x="137.28" y="225.17" width="8.52" height="23.32" transform="translate(-133.49 214.99) rotate(-54.59)"/>
          <path class="st14" d="M130.58,225.16c-7.45,10.48-26.63,9.66-42.83-1.86-16.2-11.52-23.28-29.36-15.83-39.84,4.8-6.75,14.44-8.81,25.02-6.35-11.77-3.41-23.09-2.14-30.36,3.79l-.05-1.27-3.78,5.32c-9.4,13.22-1.47,34.99,17.71,48.62,19.18,13.63,42.34,13.97,51.74.74.03-.04.05-.08.07-.11l3.7-5.2s-.45.13-1.19.33c3.18-8.81.65-19.9-6.42-29.87,5.8,9.19,7.02,18.97,2.22,25.72Z"/>
          <path class="st15" d="M66.53,179.63c-9.4,13.22-1.48,34.99,17.7,48.62,19.18,13.63,42.34,13.96,51.74.73,9.4-13.22,1.48-34.99-17.7-48.62-19.18-13.63-42.34-13.96-51.74-.73ZM130.58,225.16c-7.45,10.49-26.63,9.66-42.83-1.86-16.2-11.51-23.29-29.35-15.83-39.84,7.45-10.49,26.63-9.66,42.83,1.86,16.2,11.51,23.29,29.35,15.83,39.84Z"/>
          <path class="st9" d="M114.74,185.32c1.3.92,2.55,1.9,3.73,2.9,1.17.99,2.28,2.01,3.31,3.06.86.84,1.68,1.73,2.44,2.62,6.85,7.91,10.23,16.91,9.1,24.34-.38,2.52-1.29,4.87-2.75,6.92-7.45,10.48-26.63,9.66-42.83-1.86-.98-.7-1.92-1.42-2.84-2.16-7.83-6.34-13.1-14.18-15.08-21.59-.38-1.4-.65-2.79-.77-4.15-.09-.98-.12-1.96-.08-2.92.12-3.32,1.08-6.41,2.94-9.03,7.46-10.49,26.63-9.66,42.83,1.86Z"/>
          <g class="st18">
            <path class="st8" d="M124.23,193.9c6.85,7.91,10.23,16.91,9.1,24.34-16.2.13-32.49.58-48.42,2.9-7.83-6.34-13.1-14.18-15.08-21.59,17.62-4.8,36.13-6.68,54.4-5.66Z"/>
            <path class="st8" d="M118.47,188.22c1.17.99,2.28,2.01,3.31,3.06-17.65-1.08-35.43.3-52.73,4.13-.09-.98-.12-1.96-.08-2.92,16.23-3.57,32.9-5.01,49.5-4.27Z"/>
          </g>
        </g>
        <g>
          <path class="st7" d="M151.87,234.06c.87.62-.56,4.13-3.19,7.84s-5.48,6.21-6.35,5.59c-.87-.62.56-4.13,3.19-7.84s5.48-6.21,6.35-5.59Z"/>
          <rect class="st7" x="158.94" y="230.41" width="16.48" height="49.27" transform="translate(-137.56 243.55) rotate(-54.6)"/>
          <path class="st7" d="M192.03,262.6c.87.62-.56,4.13-3.19,7.84s-5.48,6.21-6.35,5.59.56-4.13,3.19-7.84,5.48-6.21,6.35-5.59Z"/>
        </g>
      </g>
      <g>
        <g>
          <g>
            <g>
              <path class="st14" d="M193.97,245.82c-33.27,13.95-47.68,58.84-48.04,85.61-.06,4.61,3.28,8.55,7.83,9.23h.08c3.45.53,6.87-.98,8.89-3.82,18.79-26.32,44.33-29.46,44.33-29.46-2.17-45.74-13.1-61.56-13.1-61.56Z"/>
              <path class="st1" d="M158.47,333.29c-2.28,3.19-6.11,4.88-9.98,4.3h-.09c-.09-.03-.18-.05-.28-.07,1.4,1.64,3.37,2.8,5.64,3.14h.08c3.45.53,6.87-.98,8.89-3.82,18.79-26.32,44.33-29.46,44.33-29.46-.11-2.38-.25-4.66-.41-6.88-6.23,1.21-30.01,7.33-48.18,32.79Z"/>
            </g>
            <g>
              <path class="st14" d="M310.6,245.82c33.27,13.95,47.68,58.84,48.04,85.61.06,4.61-3.28,8.55-7.83,9.23h-.08c-3.45.53-6.87-.98-8.89-3.82-18.79-26.32-44.33-29.46-44.33-29.46,2.17-45.74,13.1-61.56,13.1-61.56Z"/>
              <path class="st2" d="M346.09,333.29c2.28,3.19,6.11,4.88,9.98,4.3h.09c.09-.03.18-.05.28-.07-1.4,1.64-3.37,2.8-5.64,3.14h-.08c-3.45.53-6.87-.98-8.89-3.82-18.79-26.32-44.33-29.46-44.33-29.46.11-2.38.25-4.66.41-6.88,6.23,1.21,30.01,7.33,48.18,32.79Z"/>
            </g>
            <g>
              <path class="st10" d="M190.78,254.86c-12.1,6.6-21.26,17.02-26.57,29.7-1.34,3.2,3.88,4.6,5.21,1.44,4.75-11.35,13.31-20.59,24.09-26.47,3.05-1.67.33-6.33-2.73-4.66h0Z"/>
              <path class="st10" d="M161.8,291.59c-.51,1.1-1.02,2.2-1.53,3.31-.59,1.28-.4,2.97.97,3.7,1.19.63,3.06.4,3.7-.97.51-1.1,1.02-2.2,1.53-3.31.59-1.28.4-2.97-.97-3.7-1.19-.63-3.06-.4-3.7.97h0Z"/>
            </g>
          </g>
          <g>
            <path class="st14" d="M295.59,340.41c-8.84,5.09-21.27,7.58-30.54,8.8-8.46,1.11-17.04,1.11-25.51,0-9.26-1.22-21.69-3.72-30.53-8.8,0,0-.73-11.95,2.1-20.66.12-.37.24-.73.37-1.08h81.63c.64,1.72,1.13,3.59,1.49,5.5,1.51,7.85,1,16.25,1,16.25Z"/>
            <path class="st1" d="M294.59,324.16c-27.41,7.09-56.99,5.56-83.49-4.42.12-.37.24-.73.37-1.08h81.63c.64,1.72,1.13,3.59,1.49,5.5Z"/>
          </g>
          <path class="st13" d="M311.54,234.7c-3.52,52.45-18.46,83.96-18.46,83.96,0,0-17.41,6.91-40.8,6.91s-40.26-6.7-40.79-6.91t-.02,0s-14.86-31.35-18.43-83.55c1.11.23,2.23.45,3.35.65.05.02.1.02.16.03.96.19,1.93.36,2.89.53.29.05.58.1.87.16.62.1,1.24.21,1.87.3.44.08.89.15,1.33.22.89.14,1.8.28,2.7.41.53.08,1.07.16,1.6.23.65.1,1.31.19,1.97.27.72.1,1.43.19,2.15.28,1.24.16,2.48.3,3.73.44,1.84.21,3.7.4,5.56.56.79.08,1.59.15,2.4.21,1.38.12,2.78.23,4.17.32.63.05,1.27.09,1.91.12.48.03.96.06,1.45.09.6.04,1.21.08,1.8.1,1.01.05,2.03.1,3.05.15,10.78.46,21.58.37,32.09-.19.7-.04,1.4-.08,2.1-.12.4-.02.79-.05,1.18-.07,1.78-.12,3.55-.24,5.32-.38.94-.08,1.89-.16,2.83-.23.84-.07,1.67-.15,2.51-.23,3.82-.37,7.58-.79,11.25-1.27.07-.02.14-.02.22-.03,1.13-.15,2.26-.3,3.38-.47,1.97-.28,3.92-.58,5.83-.89.6-.09,1.19-.19,1.79-.3,1.28-.22,2.54-.44,3.79-.68.51-.09,1.01-.18,1.51-.28.58-.11,1.16-.22,1.73-.33Z"/>
          <path class="st16" d="M311.54,234.7c-.58.12-1.15.23-1.73.33-.5.1-1,.19-1.51.28-1.25.23-2.51.46-3.79.68-.6.1-1.19.2-1.79.3-1.91.32-3.87.61-5.83.89-1.12.16-2.25.32-3.38.47-.08,0-.15.02-.22.03-3.68.47-7.44.9-11.25,1.27-.83.08-1.67.15-2.51.23-.94.08-1.89.16-2.83.23-1.77.14-3.54.26-5.32.38-.4.02-.79.05-1.18.07-.7.04-1.4.08-2.1.12h0c1.31,1.88,2.06,4.01,2.06,6.27,0,7.47-8.08,13.53-18.04,13.53s-18.04-6.06-18.04-13.53c0-2.19.69-4.25,1.92-6.07-1.02-.05-2.04-.09-3.05-.15-.6-.03-1.21-.06-1.8-.1-.49-.02-.97-.05-1.45-.09-.64-.04-1.27-.08-1.91-.12-1.39-.09-2.78-.2-4.17-.32-.8-.06-1.6-.13-2.4-.21-1.86-.16-3.72-.35-5.56-.56-1.24-.13-2.49-.28-3.73-.44-.72-.09-1.44-.18-2.15-.28-.66-.09-1.31-.17-1.97-.27-.54-.07-1.07-.15-1.6-.23-.9-.13-1.8-.27-2.7-.41-.44-.07-.89-.14-1.33-.22-.62-.09-1.24-.2-1.87-.3-.29-.05-.58-.1-.87-.16-.96-.17-1.93-.34-2.89-.53-.05,0-.1-.02-.16-.03-1.12-.2-2.24-.43-3.35-.65-.77-11.25-1.02-23.47-.47-36.56.67-16.14,2.4-30.68,4.89-43.73,2.13.36,4.29.69,6.45,1,.84.12,1.68.23,2.52.34.92.12,1.84.23,2.76.35.79.09,1.58.19,2.38.27.79.09,1.59.18,2.38.26.96.1,1.92.2,2.89.29,1.07.1,2.15.19,3.22.28,1.27.11,2.54.21,3.81.3.5.04,1,.07,1.49.1.75.05,1.5.09,2.25.13,2.66.16,5.32.28,7.98.37,11.02.36,22.03.15,32.71-.54,1.95-.12,3.89-.27,5.82-.43.59-.05,1.18-.09,1.77-.15,1.28-.11,2.56-.23,3.83-.36.61-.06,1.24-.12,1.84-.19,3.78-.4,7.5-.86,11.13-1.36.06,0,.12-.02.17-.02.05,0,.09-.02.13-.02,1.1-.16,2.21-.32,3.31-.49,1.8-.27,3.56-.56,5.31-.86.99-.17,1.96-.34,2.93-.52.75-.14,1.49-.28,2.23-.42,2.66,13.47,4.52,28.57,5.21,45.41.54,12.93.3,25.02-.44,36.16Z"/>
          <path class="st14" d="M306.77,153.13c-.74.14-1.49.28-2.23.42-.97.18-1.94.35-2.93.52-1.75.3-3.52.59-5.31.86-1.1.17-2.2.33-3.31.49-.05,0-.09.02-.13.02-.06.02-.12.02-.17.03-3.63.51-7.35.96-11.13,1.36-.61.06-1.23.12-1.84.19-1.27.12-2.54.25-3.83.36-.58.05-1.17.1-1.77.15-1.93.16-3.87.3-5.82.43,1.18,1.8,1.85,3.82,1.85,5.97,0,7.47-8.08,13.52-18.04,13.52s-18.04-6.05-18.04-13.52c0-1.93.54-3.76,1.51-5.42-2.66-.09-5.32-.21-7.98-.37-.75-.04-1.5-.09-2.25-.13-.5-.03-1-.06-1.49-.1-1.28-.09-2.54-.19-3.81-.3-1.08-.09-2.15-.18-3.22-.28-.96-.09-1.93-.19-2.89-.29-.79-.08-1.59-.16-2.38-.26-.8-.09-1.59-.18-2.38-.27-.93-.12-1.84-.23-2.76-.35-.84-.12-1.68-.23-2.52-.34-2.16-.31-4.32-.65-6.45-1,12.3-64.54,43.06-92.15,54.82-92.15,4.59,0,12.09,4.22,20.25,13.21,12.55,13.81,26.65,38.89,34.24,77.25Z"/>
          <path class="st10" d="M226.58,99.38c-16.25,26.69-24.41,57.8-23.32,89.04.12,3.47,5.52,3.48,5.4,0-1.06-30.34,6.79-60.38,22.58-86.31,1.81-2.98-2.86-5.69-4.66-2.73h0Z"/>
          <path class="st0" d="M311.54,234.7c-3.52,52.45-18.46,83.96-18.46,83.96,0,0-17.41,6.91-40.8,6.91s-40.26-6.7-40.79-6.91c17.71,3.93,54.17.42,69.65-9.11,5.01-14.44,9.79-40.9,12.15-71.88,1.95-25.74,2.23-54.58-.44-82.23h0c-2.86-29.68-9.12-57.97-20.32-79.57,12.55,13.81,26.65,38.89,34.24,77.25,2.66,13.47,4.52,28.57,5.21,45.41.54,12.93.3,25.02-.44,36.16Z"/>
        </g>
        <g>
          <text class="st11" transform="translate(222.28 129.26)"><tspan x="0" y="0">MISSION</tspan></text>
          <text class="st11" transform="translate(228.41 209.26)"><tspan x="0" y="0">VISION</tspan></text>
          <text class="st11" transform="translate(225.22 284.78)"><tspan x="0" y="0">VALUES</tspan></text>
        </g>
      </g>
    </g>
  </g>
</svg>