<?xml version="1.0" encoding="UTF-8"?>
<svg xmlns="http://www.w3.org/2000/svg" version="1.1" viewBox="0 0 422.08 350.33">
  <!-- Generator: Adobe Illustrator 29.0.0, SVG Export Plug-In . SVG Version: 2.1.0 Build 186)  -->
  <defs>
    <style>
      .st0 {
        fill: #e1e7fa;
      }

      .st0, .st1, .st2 {
        mix-blend-mode: multiply;
      }

      .st3 {
        fill: #757575;
      }

      .st4, .st5, .st6 {
        fill: #263238;
      }

      .st7, .st8, .st9 {
        fill: #fff;
      }

      .st10, .st11 {
        fill: #d4f7e5;
      }

      .st10, .st9, .st12 {
        opacity: .5;
      }

      .st13 {
        isolation: isolate;
      }

      .st14 {
        fill: #bfbfbf;
      }

      .st15, .st1 {
        fill: #16a34a;
      }

      .st8 {
        opacity: .3;
      }

      .st16 {
        fill: #92e3a9;
      }

      .st17 {
        fill: #a3343f;
      }

      .st9, .st12 {
        mix-blend-mode: soft-light;
      }

      .st5 {
        letter-spacing: .02em;
      }

      .st5, .st6 {
        font-family: Montserrat-Bold, 'Montserrat Bold';
        font-size: 15.22px;
        font-weight: 700;
      }

      .st2 {
        fill: #ced7f0;
      }

      .st6 {
        letter-spacing: .02em;
      }
    </style>
  </defs>
  <g class="st13">
    <g id="OBJECTS">
      <g>
        <g>
          <path class="st4" d="M396.57,190.88c-15.98,28.87-46.32,44.11-67.79,34.04-21.46-10.07-25.91-41.64-9.94-70.52,15.98-28.87,46.32-44.11,67.79-34.04,21.46,10.07,25.91,41.64,9.94,70.52Z"/>
          <polygon class="st17" points="321.42 221.47 328.28 224.69 386.13 120.13 379.27 116.91 321.42 221.47"/>
          <path class="st3" d="M389.2,187.43c-15.98,28.87-46.32,44.11-67.79,34.04-21.46-10.07-25.91-41.64-9.94-70.52,15.98-28.87,46.32-44.11,67.79-34.04,21.46,10.07,25.91,41.64,9.94,70.52Z"/>
          <path class="st7" d="M378.19,182.26c-11.45,20.69-33.19,31.61-48.57,24.39-15.38-7.22-18.57-29.84-7.12-50.52,11.45-20.69,33.19-31.61,48.57-24.39,15.38,7.22,18.57,29.84,7.12,50.52Z"/>
          <path class="st14" d="M365.87,176.48c-6.38,11.54-18.51,17.63-27.09,13.6-8.58-4.03-10.36-16.64-3.97-28.18,6.38-11.54,18.51-17.63,27.09-13.6,8.58,4.03,10.36,16.64,3.97,28.18Z"/>
          <path class="st7" d="M355.1,171.42c-1.96,3.53-5.67,5.4-8.3,4.17-2.63-1.23-3.17-5.1-1.22-8.63s5.67-5.4,8.3-4.17c2.63,1.23,3.17,5.1,1.22,8.63Z"/>
        </g>
        <g>
          <path class="st15" d="M351.77,167.32c-3.61-5.93-7.23-11.85-10.84-17.78-5.75-9.43-11.5-18.87-17.25-28.3-1.31-2.15-2.61-4.29-3.92-6.44-1.13-1.85-4-.1-2.87,1.75,3.61,5.93,7.23,11.85,10.84,17.78,5.75,9.43,11.5,18.87,17.25,28.3,1.31,2.15,2.61,4.29,3.92,6.44,1.13,1.85,4,.1,2.87-1.75h0Z"/>
          <path class="st16" d="M317.02,116.73l-9.07-.76,3.55,5.82c.61.16,1.24.25,1.88.26-.5.12-1,.24-1.49.37l2.69,4.41c.98.03,1.96.06,2.93.08-.8.27-1.59.54-2.39.81l2.61,4.28,9.07.76-9.77-16.04Z"/>
          <path class="st16" d="M319.86,115l3.48-8.41,3.55,5.82c-.14.62-.35,1.22-.63,1.79.34-.39.67-.77,1.01-1.16l2.69,4.41c-.42.88-.85,1.76-1.27,2.65.61-.58,1.21-1.17,1.82-1.75l2.61,4.28-3.48,8.41-9.77-16.04Z"/>
        </g>
      </g>
      <g>
        <g>
          <rect class="st14" x="97.97" y="170.27" width="8.52" height="23.32" transform="translate(-105.28 159.85) rotate(-54.59)"/>
          <path class="st15" d="M91.27,170.26c-7.45,10.48-26.63,9.66-42.83-1.86-16.2-11.52-23.28-29.36-15.83-39.84,4.8-6.75,14.44-8.81,25.02-6.35-11.77-3.41-23.09-2.14-30.36,3.79l-.05-1.27-3.78,5.32c-9.4,13.22-1.47,34.99,17.71,48.62,19.18,13.63,42.34,13.97,51.74.74.03-.04.05-.08.07-.11l3.7-5.2s-.45.13-1.19.33c3.18-8.81.65-19.9-6.42-29.87,5.8,9.19,7.02,18.97,2.22,25.72Z"/>
          <path class="st16" d="M27.22,124.73c-9.4,13.22-1.48,34.99,17.7,48.62,19.18,13.63,42.34,13.96,51.74.73,9.4-13.22,1.48-34.99-17.7-48.62-19.18-13.63-42.34-13.96-51.74-.73ZM91.27,170.25c-7.45,10.49-26.63,9.66-42.83-1.86-16.2-11.51-23.29-29.35-15.83-39.84,7.45-10.49,26.63-9.66,42.83,1.86,16.2,11.51,23.29,29.35,15.83,39.84Z"/>
          <path class="st8" d="M75.43,130.42c1.3.92,2.55,1.9,3.73,2.9,1.17.99,2.28,2.01,3.31,3.06.86.84,1.68,1.73,2.44,2.62,6.85,7.91,10.23,16.91,9.1,24.34-.38,2.52-1.29,4.87-2.75,6.92-7.45,10.48-26.63,9.66-42.83-1.86-.98-.7-1.92-1.42-2.84-2.16-7.83-6.34-13.1-14.18-15.08-21.59-.38-1.4-.65-2.79-.77-4.15-.09-.98-.12-1.96-.08-2.92.12-3.32,1.08-6.41,2.94-9.03,7.46-10.49,26.63-9.66,42.83,1.86Z"/>
          <g class="st12">
            <path class="st7" d="M84.92,139c6.85,7.91,10.23,16.91,9.1,24.34-16.2.13-32.49.58-48.42,2.9-7.83-6.34-13.1-14.18-15.08-21.59,17.62-4.8,36.13-6.68,54.4-5.66Z"/>
            <path class="st7" d="M79.16,133.32c1.17.99,2.28,2.01,3.31,3.06-17.65-1.08-35.43.3-52.73,4.13-.09-.98-.12-1.96-.08-2.92,16.23-3.57,32.9-5.01,49.5-4.27Z"/>
          </g>
        </g>
        <g>
          <path class="st4" d="M112.56,179.16c.87.62-.56,4.13-3.19,7.84s-5.48,6.21-6.35,5.59c-.87-.62.56-4.13,3.19-7.84s5.48-6.21,6.35-5.59Z"/>
          <rect class="st4" x="119.63" y="175.51" width="16.48" height="49.27" transform="translate(-109.35 188.41) rotate(-54.6)"/>
          <path class="st4" d="M152.72,207.7c.87.62-.56,4.13-3.19,7.84s-5.48,6.21-6.35,5.59.56-4.13,3.19-7.84,5.48-6.21,6.35-5.59Z"/>
        </g>
      </g>
      <g>
        <g>
          <path class="st10" d="M510.73,209.87c-20.3-8.1-44.34-8.41-65.18-1.25-20.85,7.16-37.34,21.91-43.85,39.22-4.72-3.22-10.27-5.34-16.27-6.64-6-1.3-12.74-.96-17.99,1.69-5.1,2.58-8.3,7.07-9.84,11.72-1.54,4.65-1.59,9.52-1.64,14.33-1.35-2.64-5.65-4.03-8.93-2.88s-4.91,4.6-3.39,7.18c-11.48-2.64-24.24,2.42-30.92,10.31-6.68,7.89-8.14,17.94-6.93,27.4-9.88-3.1-21.94-1.18-29.56,4.72-8.18-9.92-13.06-21.53-14.57-33.33l-84.87-3.65c.31,10.92-3.93,21.9-11.89,30.8-4.08-7.86-14.11-13.83-24.57-12.08,2.75-10.67.96-22.17-5.83-31.63-6.79-9.46-18.72-16.66-32.19-18.58-13.47-1.93-28.21,1.74-37.25,9.92,1.08-3.11-1-6.27-4.06-8.38s-7.69-2.66-11.39-1.36c-2.67-6.83-5.45-13.7-9.88-19.92-4.43-6.22-10.67-11.83-18.76-14.96-8.05-3.1-17.56-3.53-26.16-1.56-8.59,1.97-16.23,6.26-21.87,11.78-4.11-3.58-10.09-5.76-16.18-5.91-6.09-.15-12.22,1.75-16.6,5.13-.66,58.29-6.59,116.75-7.25,175.04,97.38,4.36,196.04,5.99,293.51,3.24,97.7-2.75,195.17-9.06,292.61-15.38-2.87-59.57-5.4-115.38-8.28-174.95Z"/>
          <path class="st10" d="M498.07,244.01c-5.47-5.25-13.64-8.03-21.87-6.16-8.24,1.87-14.75,7.85-15.91,14.6-4.56-5.96-14.25-8.78-22.88-7.52-8.63,1.26-16.02,6.12-20.43,12.15-4.41,6.03-6.08,13.14-6.15,20.12-5.03-2.34-11.67-2.29-16.66.11-4.98,2.41-8.09,7.07-7.81,11.71-3.87-3.74-10.15-5.62-16.24-5.52-6.09.1-11.98,2.01-17.01,4.75-13.79,7.52-21.23,21.77-18.18,34.86-6.79-2.43-17.01,2.04-18.49,7.84-6.69-4.7-16.02-6.93-24.86-5.94-8.84.99-17.03,5.17-21.84,11.15-17.79-17.41-25.92-39.92-25.06-62.35l-59.24-1.28c6.15,20.98-5.45,44.52-27.88,56.58-2.91-5.65-12.46-8.39-19.23-5.52,2.27-8.45-2.81-17.84-12.08-22.33-9.28-4.5-22.09-3.78-30.49,1.71,2.77-5.96,4.01-12.52,2.23-18.72-1.77-6.2-6.86-11.96-14.18-14.51-8.58-2.99-18.85-1.18-26.76,2.82-7.91,4-13.94,9.91-19.83,15.71.92-4.43-6.2-8.41-11.13-6.21,2.87-8.84,3.6-18.43-.61-26.92-4.21-8.49-14.14-15.56-25.6-16.01-11.46-.45-23.14,7.23-22.65,16.35-3.16-5.21-9.58-9.09-16.74-10.11-7.16-1.02-14.87.85-20.1,4.87.14,46.15-.09,92.06.05,138.21,161.26-6.1,322.84-6.78,484.18-2.03,28.54.84,55.59,1.2,84.14,1.93-3.56-48.11-7.12-96.22-10.68-144.33Z"/>
          <path class="st11" d="M-53.67,281.02c4.86-2.62,11.73-2.64,16.61-.05,4.89,2.6,7.5,7.65,6.32,12.23,3.8-7.2,13.68-11.87,23.49-11.71,9.81.16,19.12,4.81,24.31,11.44,5.18,6.63,6.38,14.99,4.07,22.58,1.95-1.77,5.51-2.25,8.09-1.09,2.57,1.17,3.87,3.85,2.95,6.09,6.39-8.21,19.92-12.42,31.61-9.84,11.69,2.58,20.56,11.73,20.73,21.38,3.31-1.96,8.22-2.01,11.59-.11,3.37,1.9,4.95,5.59,3.73,8.73,9.99-8.85,26.14-12.99,40.75-10.44,14.61,2.55,27.09,11.69,31.5,23.06-67.36,3.27-136.03,6.64-203.39,9.91-4.89.24-10.17.4-14.29-1.71-3.66-1.88-5.68-5.19-7.3-8.4-11.55-22.81-12.04-49.17-.75-72.06Z"/>
          <path class="st11" d="M292.97,351.69c1.23-7.03,7.4-13.38,15.65-16.08,8.24-2.71,18.25-1.67,25.35,2.62.4-2.35,2.6-4.45,5.44-5.19,2.84-.74,6.17-.07,8.24,1.65,2.92-8.56,13.58-15.04,24.73-15.03,11.15,0,21.79,6.5,24.69,15.07,2.27-4.59,10.46-6.49,15.47-3.59-6.37-7.85-9.31-17.7-6.44-26.76,2.87-9.06,12.07-16.98,23.59-18.79,11.52-1.81,24.58,3.39,28.38,12.23-1.38-6.47,2.82-13.46,10.01-16.66,7.2-3.21,16.88-2.4,23.09,1.92,3.47,24.27,4.1,49.04,1.63,73.38-66.19,5.03-134.17,3.64-199.82-4.77Z"/>
        </g>
        <g>
          <g>
            <g>
              <path class="st15" d="M162.49,203.72c-33.27,13.23-47.68,55.78-48.04,81.16-.06,4.37,3.28,8.11,7.83,8.75h.08c3.45.5,6.87-.93,8.89-3.62,18.79-24.95,44.33-27.92,44.33-27.92-2.17-43.36-13.1-58.36-13.1-58.36Z"/>
              <path class="st1" d="M127,286.64c-2.28,3.02-6.11,4.63-9.98,4.08h-.09c-.09-.03-.18-.05-.28-.06,1.4,1.56,3.37,2.65,5.64,2.97h.08c3.45.5,6.87-.93,8.89-3.62,18.79-24.95,44.33-27.92,44.33-27.92-.11-2.26-.25-4.42-.41-6.53-6.23,1.14-30.01,6.95-48.18,31.08Z"/>
            </g>
            <g>
              <path class="st15" d="M279.12,203.72c33.27,13.23,47.68,55.78,48.04,81.16.06,4.37-3.28,8.11-7.83,8.75h-.08c-3.45.5-6.87-.93-8.89-3.62-18.79-24.95-44.33-27.92-44.33-27.92,2.17-43.36,13.1-58.36,13.1-58.36Z"/>
              <path class="st2" d="M314.62,286.64c2.28,3.02,6.11,4.63,9.98,4.08h.09c.09-.03.18-.05.28-.06-1.4,1.56-3.37,2.65-5.64,2.97h-.08c-3.45.5-6.87-.93-8.89-3.62-18.79-24.95-44.33-27.92-44.33-27.92.11-2.26.25-4.42.41-6.53,6.23,1.14,30.01,6.95,48.18,31.08Z"/>
            </g>
            <g>
              <path class="st9" d="M159.31,212.29c-12.1,6.26-21.26,16.13-26.57,28.15-1.34,3.04,3.88,4.36,5.21,1.36,4.75-10.76,13.31-19.52,24.09-25.09,3.05-1.58.33-6-2.73-4.42h0Z"/>
              <path class="st9" d="M130.32,247.11c-.51,1.04-1.02,2.09-1.53,3.13-.59,1.21-.4,2.82.97,3.5,1.19.6,3.06.38,3.7-.92.51-1.04,1.02-2.09,1.53-3.13.59-1.21.4-2.82-.97-3.5-1.19-.6-3.06-.38-3.7.92h0Z"/>
            </g>
          </g>
          <g>
            <path class="st15" d="M264.12,293.39c-8.84,4.82-21.27,7.19-30.54,8.35-8.46,1.05-17.04,1.05-25.51,0-9.26-1.16-21.69-3.52-30.53-8.35,0,0-.73-11.32,2.1-19.59.12-.35.24-.69.37-1.02h81.63c.64,1.63,1.13,3.41,1.49,5.21,1.51,7.44,1,15.4,1,15.4Z"/>
            <path class="st1" d="M263.12,277.99c-27.41,6.72-56.99,5.27-83.49-4.19.12-.35.24-.69.37-1.02h81.63c.64,1.63,1.13,3.41,1.49,5.21Z"/>
          </g>
          <path class="st14" d="M280.07,193.18c-3.52,49.72-18.46,79.59-18.46,79.59,0,0-17.41,6.55-40.8,6.55s-40.26-6.35-40.79-6.55t-.02,0s-14.86-29.72-18.43-79.21c1.11.21,2.23.43,3.35.62.05.01.1.02.16.03.96.18,1.93.34,2.89.5.29.05.58.1.87.15.62.1,1.24.2,1.87.29.44.07.89.14,1.33.21.89.13,1.8.27,2.7.39.53.07,1.07.15,1.6.21.65.1,1.31.18,1.97.26.72.1,1.43.18,2.15.27,1.24.15,2.48.29,3.73.41,1.84.2,3.7.38,5.56.53.79.07,1.59.14,2.4.2,1.38.12,2.78.21,4.17.3.63.04,1.27.08,1.91.12.48.03.96.06,1.45.08.6.04,1.21.07,1.8.1,1.01.05,2.03.1,3.05.14,10.78.44,21.58.35,32.09-.18.7-.04,1.4-.07,2.1-.12.4-.02.79-.04,1.18-.07,1.78-.11,3.55-.23,5.32-.36.94-.07,1.89-.15,2.83-.22.84-.07,1.67-.14,2.51-.21,3.82-.35,7.58-.75,11.25-1.2.07-.01.14-.02.22-.03,1.13-.14,2.26-.29,3.38-.44,1.97-.27,3.92-.55,5.83-.85.6-.09,1.19-.18,1.79-.28,1.28-.21,2.54-.42,3.79-.64.51-.08,1.01-.17,1.51-.27.58-.1,1.16-.21,1.73-.32Z"/>
          <path class="st11" d="M280.07,193.18c-.58.11-1.15.21-1.73.32-.5.1-1,.18-1.51.27-1.25.22-2.51.44-3.79.64-.6.1-1.19.19-1.79.28-1.91.3-3.87.58-5.83.85-1.12.15-2.25.3-3.38.44-.08,0-.15.01-.22.03-3.68.45-7.44.86-11.25,1.2-.83.07-1.67.14-2.51.21-.94.07-1.89.15-2.83.22-1.77.13-3.54.25-5.32.36-.4.02-.79.04-1.18.07-.7.04-1.4.07-2.1.11h0c1.31,1.78,2.06,3.8,2.06,5.94,0,7.08-8.08,12.82-18.04,12.82s-18.04-5.74-18.04-12.82c0-2.07.69-4.03,1.92-5.76-1.02-.04-2.04-.09-3.05-.14-.6-.03-1.21-.06-1.8-.1-.49-.02-.97-.05-1.45-.08-.64-.04-1.27-.07-1.91-.12-1.39-.09-2.78-.19-4.17-.3-.8-.06-1.6-.13-2.4-.2-1.86-.15-3.72-.33-5.56-.53-1.24-.13-2.49-.27-3.73-.41-.72-.08-1.44-.17-2.15-.27-.66-.08-1.31-.16-1.97-.26-.54-.07-1.07-.14-1.6-.21-.9-.13-1.8-.26-2.7-.39-.44-.07-.89-.13-1.33-.21-.62-.09-1.24-.19-1.87-.29-.29-.05-.58-.1-.87-.15-.96-.16-1.93-.32-2.89-.5-.05,0-.1-.01-.16-.03-1.12-.19-2.24-.41-3.35-.62-.77-10.67-1.02-22.25-.47-34.66.67-15.3,2.4-29.09,4.89-41.46,2.13.34,4.29.66,6.45.95.84.11,1.68.21,2.52.32.92.11,1.84.22,2.76.33.79.09,1.58.18,2.38.26.79.09,1.59.17,2.38.24.96.1,1.92.19,2.89.27,1.07.1,2.15.18,3.22.27,1.27.1,2.54.2,3.81.28.5.04,1,.07,1.49.1.75.04,1.5.09,2.25.13,2.66.15,5.32.27,7.98.35,11.02.34,22.03.14,32.71-.52,1.95-.12,3.89-.26,5.82-.41.59-.04,1.18-.09,1.77-.14,1.28-.1,2.56-.22,3.83-.34.61-.06,1.24-.12,1.84-.18,3.78-.38,7.5-.81,11.13-1.29.06,0,.12-.01.17-.02.05,0,.09-.01.13-.02,1.1-.15,2.21-.3,3.31-.46,1.8-.26,3.56-.53,5.31-.82.99-.16,1.96-.32,2.93-.49.75-.13,1.49-.27,2.23-.4,2.66,12.77,4.52,27.09,5.21,43.05.54,12.26.3,23.72-.44,34.28Z"/>
          <path class="st15" d="M275.3,115.86c-.74.13-1.49.27-2.23.4-.97.17-1.94.33-2.93.49-1.75.29-3.52.56-5.31.82-1.1.16-2.2.32-3.31.46-.05,0-.09.01-.13.01-.06.01-.12.02-.17.03-3.63.48-7.35.91-11.13,1.29-.61.06-1.23.12-1.84.18-1.27.12-2.54.24-3.83.34-.58.05-1.17.1-1.77.14-1.93.15-3.87.29-5.82.41,1.18,1.7,1.85,3.62,1.85,5.66,0,7.08-8.08,12.81-18.04,12.81s-18.04-5.74-18.04-12.81c0-1.83.54-3.57,1.51-5.14-2.66-.08-5.32-.2-7.98-.35-.75-.04-1.5-.08-2.25-.13-.5-.03-1-.06-1.49-.1-1.28-.08-2.54-.18-3.81-.28-1.08-.08-2.15-.17-3.22-.27-.96-.08-1.93-.18-2.89-.27-.79-.07-1.59-.15-2.38-.24-.8-.08-1.59-.17-2.38-.26-.93-.11-1.84-.22-2.76-.33-.84-.11-1.68-.21-2.52-.32-2.16-.29-4.32-.61-6.45-.95,12.3-61.18,43.06-87.36,54.82-87.36,4.59,0,12.09,4,20.25,12.53,12.55,13.09,26.65,36.87,34.24,73.24Z"/>
          <path class="st9" d="M195.11,64.9c-16.25,25.3-24.41,54.8-23.32,84.41.12,3.29,5.52,3.3,5.4,0-1.06-28.76,6.79-57.24,22.58-81.82,1.81-2.82-2.86-5.4-4.66-2.58h0Z"/>
          <path class="st0" d="M280.07,193.18c-3.52,49.72-18.46,79.59-18.46,79.59,0,0-17.41,6.55-40.8,6.55s-40.26-6.35-40.79-6.55c17.71,3.72,54.17.4,69.65-8.63,5.01-13.69,9.79-38.77,12.15-68.14,1.95-24.4,2.23-51.74-.44-77.96h0c-2.86-28.14-9.12-54.96-20.32-75.43,12.55,13.09,26.65,36.87,34.24,73.24,2.66,12.77,4.52,27.09,5.21,43.05.54,12.26.3,23.72-.44,34.28Z"/>
        </g>
        <g>
          <text class="st5" transform="translate(190.8 93.23) scale(1.05 1)"><tspan x="0" y="0">MISSION</tspan></text>
          <text class="st6" transform="translate(196.94 169.06) scale(1.05 1)"><tspan x="0" y="0">VISION</tspan></text>
          <text class="st6" transform="translate(193.74 240.65) scale(1.05 1)"><tspan x="0" y="0">VALUES</tspan></text>
        </g>
      </g>
    </g>
  </g>
</svg>