<?xml version="1.0" encoding="UTF-8"?>
<svg xmlns="http://www.w3.org/2000/svg" version="1.1" viewBox="0 0 686.16 467.93">
  <!-- Generator: Adobe Illustrator 29.0.0, SVG Export Plug-In . SVG Version: 2.1.0 Build 186)  -->
  <defs>
    <style>
      .st0, .st1, .st2, .st3, .st4, .st5, .st6, .st7, .st8 {
        stroke: #263238;
      }

      .st0, .st1, .st3, .st4, .st8 {
        stroke-miterlimit: 10;
      }

      .st0, .st9, .st6 {
        fill: none;
      }

      .st1 {
        fill: #828282;
      }

      .st10, .st4, .st7 {
        fill: #263238;
      }

      .st2, .st9, .st5, .st6, .st7 {
        stroke-linecap: round;
        stroke-linejoin: round;
      }

      .st2, .st3 {
        fill: #16a34a;
      }

      .st9 {
        stroke: #a1a1a1;
      }

      .st11 {
        opacity: .7;
      }

      .st11, .st12 {
        fill: #d4f7e5;
      }

      .st5, .st8 {
        fill: #fff;
      }
    </style>
  </defs>
  <g id="Background_Simple">
    <g>
      <path class="st12" d="M484.4,84.2c-107.56,44.29-206.09-63.62-313.94-43.35-53.87,10.13-100.19,47.51-129.96,92.43C8.63,181.38-7.41,244.12,13.52,299.76c5.83,15.49,14.48,29.81,25.19,42.41,60.98,71.76,190.62,111.05,279.4,74.56.41-.17.82-.34,1.23-.51,98.44-41.63,170.32,9.69,255.41-14.45,96-27.24,118.92-160.91,84.53-241.98-9.56-22.55-26.12-42.53-45.51-57.32-37.06-28.27-85.98-36.13-129.37-18.26Z"/>
      <path class="st11" d="M484.4,84.2c-107.56,44.29-206.09-63.62-313.94-43.35-53.87,10.13-100.19,47.51-129.96,92.43C8.63,181.38-7.41,244.12,13.52,299.76c5.83,15.49,14.48,29.81,25.19,42.41,60.98,71.76,190.62,111.05,279.4,74.56.41-.17.82-.34,1.23-.51,98.44-41.63,170.32,9.69,255.41-14.45,96-27.24,118.92-160.91,84.53-241.98-9.56-22.55-26.12-42.53-45.51-57.32-37.06-28.27-85.98-36.13-129.37-18.26Z"/>
    </g>
  </g>
  <g id="Floor">
    <ellipse class="st12" cx="334.14" cy="458.57" rx="269.95" ry="9.36"/>
  </g>
  <g id="Puzzle">
    <g>
      <path class="st0" d="M609.35,267.73c-15.67,5.81-30.59-4.87-36.14-10.44-.22-.2-.42-.41-.62-.61,11.75,66.29,30.52,145.88,30.52,145.88,0,0-77.78-14.1-112.46-23.28.16,1.18.52,2.49,1.14,3.98,5.73,13.44,16.13,31.94-6.17,50.53-22.3,18.59-58.64,5.33-66.7-19.33-5.19-15.88,6.07-30.37,11.84-35.7,4.44-4.09,9.31-9.96,6.38-14.55-35.52-8.62-52.08-8.31-95.92-4.81,3.2-8.33,8.83-22.62,15.85-38.84,11.11-25.72,12.51-51.43,3.47-70.2-9.04-18.76-17.38,19.46-45.88,11.81-28.49-7.64-32.66-50.04-21.54-68.11,11.11-18.07,29.19-15.98,45.87-6.95,16.68,9.04,19.46,2.78,19.46,2.78,0,0,0-13.9-5.57-52.82-3.64-25.53-10.27-47.47-14.41-59.55,4.03.54,22.95,1.87,26.73,2.17,99.36,7.84,210.07,3.74,210.07,3.74,0,0-16.9,50.73-11.54,110.78,1.91,2.91,5.35,4.87,11.55,1.93,13.2-6.25,31.27-17.38,50.74,4.17,19.46,21.55,7.64,58.39-16.68,67.42Z"/>
      <path class="st0" d="M357.07,320.55c-7.02,16.22-12.65,30.51-15.85,38.84-21.67,1.73-43.88,5.86-66.17,13.28-87.57,29.19-186.96,4.87-186.96,4.87,0,0,20.13-50.6,24.36-126.42-3.34-2.38-7.06,2.08-11.16,6.18-5.57,5.57-20.48,16.25-36.14,10.44-24.33-9.04-36.14-45.88-16.68-67.42,19.45-21.55,37.53-10.42,50.74-4.17,8.62,4.08,11.91-1.31,13.15-5.55-3.62-78.4-15.94-100.09-15.94-100.09,0,0,42.79-6.87,96.12-11.65,4.19-1.43,9.6-4.97,5.03-13.47-6.9-12.87-18.9-30.37,1.65-50.89,20.55-20.5,57.92-10.53,68.16,13.32,6.59,15.36-3.34,30.79-8.62,36.61-3.5,3.88-7.33,7.46-6.18,10.49,30.63-1.15,60.96-.75,85.89,2.6,4.14,12.08,10.77,34.01,14.41,59.55,5.57,38.92,5.57,52.82,5.57,52.82,0,0-2.78,6.25-19.46-2.78-16.68-9.03-34.75-11.11-45.87,6.95-11.12,18.08-6.95,60.47,21.54,68.11,28.5,7.65,36.84-30.57,45.88-11.81,9.04,18.76,7.64,44.48-3.47,70.2Z"/>
    </g>
  </g>
  <g id="Plants">
    <g>
      <g>
        <path class="st10" d="M60.75,453.13c.19.05.39-.07.45-.26,5.02-16.1,1.21-33.96-9.95-46.6-.14-.16-.38-.17-.54-.03-.16.14-.17.38-.03.54,10.98,12.44,14.73,30.02,9.79,45.87-.06.2.05.42.25.48,0,0,.02,0,.03,0Z"/>
        <g>
          <path class="st10" d="M56.2,437.28c4.69-.35,6.49,7.04,6.32,7.13-.07.8-.17,1.61-.28,2.42-.22-1.06-2.13-2.92-5.4-4.3-3.19-1.48-5.12-5.08-.64-5.25Z"/>
          <path class="st10" d="M69.79,436.9c4.62-.17,2.54,5.84-1.06,6.78-3.49,1.04-5.84,2.24-6.42,3.15.17-.8.32-1.6.45-2.4.16.09,2.67-7.2,7.04-7.53Z"/>
        </g>
        <g>
          <path class="st10" d="M55.42,430.34c4.57-1.12,7.58,5.77,7.43,5.89.06.79.11,1.59.13,2.39-.4-.99-2.6-2.48-6.05-3.27-3.4-.9-5.9-4.09-1.51-5.01Z"/>
          <path class="st10" d="M68.75,427.69c4.52-.94,3.48,5.28.09,6.79-3.27,1.6-5.37,3.16-5.79,4.13.03-.8.04-1.6.03-2.4.17.06,1.42-7.46,5.67-8.52Z"/>
        </g>
        <g>
          <path class="st10" d="M53.5,423.66c4.32-1.86,8.43,4.4,8.3,4.53.2.77.37,1.54.53,2.32-.56-.9-2.97-1.99-6.51-2.18-3.5-.31-6.5-3.03-2.32-4.67Z"/>
          <path class="st10" d="M66.2,418.82c4.3-1.68,4.31,4.61,1.22,6.66-2.96,2.11-4.77,4-5.02,5.02-.1-.79-.23-1.57-.37-2.36.18.04.16-7.56,4.17-9.32Z"/>
        </g>
        <g>
          <path class="st10" d="M50.48,417.39c3.95-2.56,9.05,2.95,8.94,3.09.32.72.62,1.45.91,2.19-.7-.79-3.26-1.46-6.78-1.06-3.5.28-6.92-1.91-3.07-4.23Z"/>
          <path class="st10" d="M62.19,410.48c3.96-2.38,5.03,3.85,2.32,6.38-2.56,2.58-4.04,4.74-4.12,5.79-.23-.76-.48-1.51-.76-2.26.18.02-1.11-7.49,2.55-9.91Z"/>
        </g>
        <g>
          <path class="st10" d="M46.42,411.66c3.46-3.18,9.46,1.43,9.37,1.59.44.66.86,1.34,1.27,2.02-.83-.66-3.46-.9-6.87.08-3.4.86-7.16-.75-3.77-3.69Z"/>
          <path class="st10" d="M56.79,402.88c3.5-3.01,5.64,2.99,3.4,5.95-2.09,2.98-3.18,5.36-3.08,6.41-.36-.71-.73-1.41-1.13-2.11.19-.01-2.38-7.24.81-10.25Z"/>
        </g>
        <g>
          <path class="st10" d="M53.3,409.34c.12.01-2.3-6.42-4.98-9.07-2.56-2.68-5.17-1.39-5.55.18-.41,1.57,1.45,3.36,3.29,4.51,1.91.99,7.29,4.27,7.25,4.38Z"/>
          <path class="st10" d="M53.24,409.59s.02,0,.03,0c.11.01.21-.05.26-.15,0,0,0-.01,0-.02.02-.07.04-.12-.02-.2-.24-1.25-2.73-6.86-5.03-9.13-1.26-1.32-2.74-1.87-4.07-1.52-.96.26-1.7.97-1.91,1.82-.55,2.13,2.46,4.2,3.4,4.79,1.86.96,6.76,3.95,7.17,4.31.04.05.09.09.15.1ZM45.91,399.06c.64.15,1.4.53,2.22,1.39,2.11,2.09,4.05,6.51,4.69,8.23-.45-.3-1.17-.73-2.28-1.41-1.44-.87-3.35-2-4.37-2.53-1.76-1.1-3.53-2.79-3.16-4.22.16-.67.77-1.24,1.55-1.45.32-.08.78-.14,1.35-.01Z"/>
        </g>
      </g>
      <g>
        <path class="st10" d="M66.8,455.12c.19.14.47.12.63-.07,13.36-15.32,17.83-36.86,11.68-56.22-.08-.24-.34-.38-.58-.3-.24.08-.38.34-.3.58,6.06,19.05,1.66,40.25-11.49,55.33-.17.19-.15.49.04.65,0,0,.02.01.03.02Z"/>
        <g>
          <path class="st10" d="M69.49,435.43c5.34,1.9,3.74,10.91,3.5,10.93-.47.85-.97,1.69-1.49,2.53.27-1.28-.92-4.26-3.86-7.36-2.8-3.18-3.18-8.09,1.84-6.09Z"/>
          <path class="st10" d="M84.65,441.62c5.17,2.05-.04,7.68-4.47,6.96-4.36-.56-7.53-.37-8.61.35.57-.8,1.13-1.61,1.66-2.43.14.17,6.45-6.64,11.42-4.88Z"/>
        </g>
        <g>
          <path class="st10" d="M72,427.41c5.58.98,5.55,10.05,5.33,10.1-.32.91-.65,1.81-1.02,2.7.04-1.29-1.66-3.99-5.08-6.54-3.31-2.64-4.52-7.38.77-6.26Z"/>
          <path class="st10" d="M87.98,430.96c5.44,1.16,1.27,7.51-3.2,7.53-4.38.17-7.46.87-8.4,1.74.42-.87.82-1.75,1.2-2.63.16.15,5.19-7.54,10.4-6.64Z"/>
        </g>
        <g>
          <path class="st10" d="M73.12,419.11c5.66.04,7.15,8.95,6.95,9.03-.16.94-.34,1.88-.54,2.81-.18-1.27-2.31-3.64-6.11-5.56-3.71-2.04-5.69-6.5-.29-6.28Z"/>
          <path class="st10" d="M89.48,419.94c5.56.23,2.5,7.18-1.89,7.94-4.29.89-7.2,2.09-7.98,3.09.27-.92.52-1.84.74-2.78.18.13,3.85-8.26,9.13-8.25Z"/>
        </g>
        <g>
          <path class="st10" d="M72.84,410.72c5.59-.9,8.55,7.65,8.36,7.75,0,.95-.02,1.91-.07,2.86-.39-1.21-2.88-3.19-6.96-4.46-3.99-1.39-6.7-5.46-1.34-6.15Z"/>
          <path class="st10" d="M89.11,408.8c5.52-.7,3.67,6.68-.54,8.16-4.08,1.6-6.75,3.26-7.35,4.38.11-.95.2-1.9.26-2.86.2.11,2.42-8.8,7.62-9.68Z"/>
        </g>
        <g>
          <path class="st10" d="M71.15,402.44c5.37-1.83,9.74,6.18,9.56,6.3.16.94.3,1.89.42,2.84-.59-1.13-3.38-2.68-7.61-3.25-4.17-.71-7.53-4.31-2.37-5.9Z"/>
          <path class="st10" d="M86.85,397.8c5.33-1.62,4.77,6.04.86,8.21-3.75,2.27-6.11,4.37-6.51,5.57-.05-.96-.12-1.92-.22-2.87.22.08.9-9.14,5.87-10.91Z"/>
        </g>
        <g>
          <path class="st10" d="M79.86,403.23c.13.07.58-8.2-1.09-12.42-1.52-4.19-5.02-4.05-6.21-2.5-1.21,1.54-.04,4.41,1.43,6.57,1.62,2.02,5.96,8.25,5.86,8.35Z"/>
          <path class="st10" d="M79.67,403.47s.02.02.03.02c.11.06.26.05.36-.04,0,0,.01-.01.02-.02.06-.06.1-.11.08-.23.34-1.49.32-8.89-1.11-12.51-.75-2.06-2.11-3.4-3.75-3.65-1.18-.18-2.35.24-2.99,1.08-1.64,2.08.67,5.83,1.42,6.93,1.58,1.97,5.53,7.64,5.82,8.24.01.08.06.14.12.19ZM76.71,388.3c.63.47,1.29,1.27,1.77,2.61,1.32,3.33,1.3,9.15,1.18,11.35-.35-.54-.93-1.38-1.83-2.67-1.17-1.67-2.72-3.83-3.59-4.91-1.4-2.07-2.53-4.79-1.43-6.19.51-.66,1.45-.99,2.41-.84.39.06.93.22,1.49.64Z"/>
        </g>
      </g>
    </g>
    <g>
      <g>
        <path class="st10" d="M622.17,456.25c-.14.03-.28-.04-.33-.18-3.77-11.49-1.23-24.33,6.63-33.51.1-.12.27-.13.39-.03.12.1.13.27.03.39-7.74,9.04-10.23,21.68-6.52,32.98.05.14-.03.3-.18.35,0,0-.01,0-.02,0Z"/>
        <g>
          <path class="st10" d="M625.25,444.84c-3.37-.2-4.58,5.11-4.45,5.18.06.58.14,1.15.23,1.73.15-.76,1.49-2.12,3.82-3.14,2.27-1.1,3.62-3.7.4-3.77Z"/>
          <path class="st10" d="M615.51,444.72c-3.31-.07-1.76,4.22.83,4.85,2.52.71,4.21,1.54,4.64,2.19-.13-.57-.25-1.14-.35-1.72-.11.06-1.99-5.13-5.13-5.32Z"/>
        </g>
        <g>
          <path class="st10" d="M625.74,439.86c-3.29-.75-5.37,4.22-5.26,4.3-.04.57-.06,1.14-.07,1.72.28-.71,1.83-1.81,4.3-2.41,2.42-.68,4.19-3,1.03-3.61Z"/>
          <path class="st10" d="M616.15,438.1c-3.25-.63-2.43,3.82,0,4.87,2.36,1.11,3.89,2.2,4.2,2.9-.03-.57-.05-1.15-.05-1.72-.12.05-1.1-5.33-4.16-6.05Z"/>
        </g>
        <g>
          <path class="st10" d="M627.04,435.05c-3.11-1.29-5.99,3.25-5.9,3.34-.13.55-.25,1.11-.35,1.67.39-.65,2.11-1.46,4.64-1.63,2.5-.26,4.62-2.24,1.61-3.37Z"/>
          <path class="st10" d="M617.89,431.72c-3.1-1.16-3.04,3.35-.8,4.79,2.14,1.48,3.46,2.81,3.65,3.54.07-.57.15-1.13.24-1.69-.13.03-.2-5.42-3.09-6.64Z"/>
        </g>
        <g>
          <path class="st10" d="M629.14,430.52c-2.86-1.79-6.46,2.21-6.38,2.31-.22.52-.43,1.05-.63,1.58.5-.57,2.32-1.08,4.85-.83,2.51.16,4.94-1.44,2.16-3.06Z"/>
          <path class="st10" d="M620.67,425.7c-2.86-1.66-3.56,2.81-1.59,4.6,1.86,1.82,2.95,3.35,3.01,4.1.16-.55.33-1.09.52-1.63-.13.01.71-5.38-1.93-7.07Z"/>
        </g>
        <g>
          <path class="st10" d="M631.99,426.37c-2.52-2.24-6.77,1.13-6.7,1.24-.31.48-.6.97-.89,1.46.59-.49,2.47-.68,4.92-.02,2.45.58,5.13-.62,2.66-2.68Z"/>
          <path class="st10" d="M624.46,420.19c-2.54-2.12-4.01,2.2-2.37,4.3,1.53,2.11,2.34,3.81,2.28,4.56.25-.51.51-1.02.79-1.52-.14,0,1.63-5.22-.69-7.34Z"/>
        </g>
        <g>
          <path class="st10" d="M627.03,424.79c-.09,0,1.58-4.63,3.47-6.55,1.8-1.95,3.69-1.05,3.98.07.31,1.12-1,2.43-2.31,3.27-1.36.73-5.18,3.14-5.15,3.22Z"/>
          <path class="st10" d="M627.08,424.96s-.02,0-.02,0c-.08,0-.15-.03-.19-.1,0,0,0-.01,0-.02-.02-.05-.03-.09,0-.14.16-.9,1.88-4.95,3.51-6.6.89-.96,1.95-1.37,2.9-1.13.69.17,1.23.68,1.39,1.28.42,1.52-1.72,3.04-2.38,3.47-1.32.71-4.8,2.91-5.1,3.17-.03.04-.06.06-.11.08ZM632.22,417.33c-.46.11-1,.4-1.58,1.02-1.49,1.52-2.83,4.71-3.27,5.95.32-.22.83-.54,1.62-1.04,1.02-.64,2.38-1.47,3.1-1.86,1.25-.81,2.5-2.04,2.22-3.06-.12-.48-.56-.88-1.12-1.02-.23-.06-.56-.09-.97,0Z"/>
        </g>
      </g>
      <g>
        <path class="st10" d="M617.85,457.74c-.14.11-.33.09-.45-.04-9.74-10.83-13.18-26.22-8.98-40.17.05-.18.24-.28.41-.22.18.05.28.24.22.41-4.14,13.72-.75,28.87,8.84,39.53.12.14.11.35-.02.47,0,0-.01.01-.02.02Z"/>
        <g>
          <path class="st10" d="M615.71,443.66c-3.81,1.42-2.56,7.86-2.39,7.87.35.61.71,1.2,1.09,1.8-.21-.91.62-3.06,2.69-5.32,1.97-2.31,2.19-5.84-1.39-4.35Z"/>
          <path class="st10" d="M604.91,448.26c-3.69,1.53.11,5.5,3.28,4.94,3.12-.45,5.39-.34,6.18.16-.42-.57-.83-1.14-1.22-1.72-.1.13-4.69-4.69-8.24-3.38Z"/>
        </g>
        <g>
          <path class="st10" d="M613.82,437.93c-3.99.77-3.87,7.26-3.71,7.3.24.65.49,1.29.76,1.93-.04-.92,1.14-2.88,3.57-4.74,2.34-1.93,3.16-5.34-.62-4.48Z"/>
          <path class="st10" d="M602.4,440.66c-3.89.89-.83,5.4,2.38,5.37,3.14.07,5.36.54,6.04,1.16-.31-.62-.61-1.24-.89-1.87-.11.11-3.81-5.35-7.52-4.65Z"/>
        </g>
        <g>
          <path class="st10" d="M612.93,432c-4.06.09-5.03,6.49-4.88,6.55.12.67.26,1.34.42,2.01.12-.91,1.62-2.63,4.32-4.06,2.63-1.5,4.01-4.72.14-4.5Z"/>
          <path class="st10" d="M601.21,432.77c-3.98.23-1.72,5.17,1.44,5.67,3.08.59,5.19,1.42,5.75,2.13-.2-.66-.39-1.32-.56-1.98-.12.1-2.85-5.88-6.64-5.82Z"/>
        </g>
        <g>
          <path class="st10" d="M613.03,425.99c-4.02-.58-6.05,5.58-5.91,5.65,0,.68.04,1.37.08,2.05.27-.87,2.03-2.32,4.94-3.27,2.85-1.04,4.74-3.99.89-4.43Z"/>
          <path class="st10" d="M601.36,424.79c-3.96-.44-2.56,4.83.48,5.84,2.94,1.1,4.88,2.26,5.32,3.06-.09-.68-.16-1.36-.22-2.04-.14.08-1.83-6.28-5.57-6.86Z"/>
        </g>
        <g>
          <path class="st10" d="M614.16,420.03c-3.87-1.25-6.91,4.53-6.78,4.62-.11.68-.19,1.36-.27,2.04.41-.82,2.39-1.96,5.42-2.41,2.98-.55,5.35-3.17,1.63-4.25Z"/>
          <path class="st10" d="M602.86,416.87c-3.84-1.1-3.35,4.38-.53,5.89,2.71,1.59,4.43,3.06,4.73,3.92.02-.69.07-1.37.13-2.06-.15.06-.74-6.54-4.32-7.75Z"/>
        </g>
        <g>
          <path class="st10" d="M607.93,420.69c-.09.05-.51-5.87.64-8.92,1.04-3.02,3.56-2.95,4.42-1.86.89,1.09.07,3.16-.95,4.73-1.14,1.46-4.18,5.98-4.11,6.05Z"/>
          <path class="st10" d="M608.06,420.86s-.02.01-.02.02c-.08.05-.19.04-.26-.02,0,0,0,0-.01-.02-.04-.04-.08-.08-.06-.16-.26-1.07-.33-6.37.66-8.98.51-1.49,1.48-2.46,2.65-2.66.84-.14,1.69.15,2.15.74,1.2,1.47-.42,4.19-.94,4.98-1.11,1.43-3.88,5.54-4.08,5.97,0,.05-.04.1-.08.14ZM610.02,409.95c-.45.35-.91.92-1.24,1.89-.91,2.4-.83,6.57-.72,8.15.25-.39.65-1,1.28-1.93.82-1.21,1.91-2.77,2.52-3.56.98-1.5,1.76-3.46.96-4.45-.37-.47-1.05-.7-1.73-.58-.28.05-.67.17-1.06.48Z"/>
        </g>
      </g>
    </g>
  </g>
  <g id="Characters">
    <g>
      <polygon class="st5" points="341.19 219.04 336.46 218.73 335.99 232.13 341.19 231.81 341.19 219.04"/>
      <polygon class="st7" points="373.03 217 341.19 219.04 341.24 234.83 374.64 241.24 373.03 217"/>
      <path class="st5" d="M336.46,218.73s-13.08-5.52-14.81-5.52-6.93,6.93-8.35,9.3c-1.42,2.36-.47,3.78.79,5.2s5.83,3.31,8.98,2.99c3.15-.32,13.08-1.42,13.08-1.42l.32-10.56Z"/>
      <g>
        <g>
          <path class="st1" d="M218.48,439.79s-3.17-.2-3.37.79.79,10.91,1.78,11.7,2.97,1.39,7.73,1.59,11.5-.79,11.5-.79l-.79-11.3-16.86-1.98Z"/>
          <path class="st8" d="M214.78,340.35s0,16.31-2.2,25.56c-2.2,9.26,1.45,28.88,4.1,39.9,2.64,11.02,2.2,20.27,2.2,20.27,0,0-4.85,6.61-3.97,9.7.88,3.09,1.62,4.31,5.15,5.19,3.53.88,3.97-.79,8.95,2.74,6.19,4.39,14.1,6.17,16.31,3.53,2.2-2.64-.88-3.97-2.64-5.29-1.76-1.32-5.73-7.49-8.82-11.9-3.09-4.41-1.32-19.83-1.32-33.06s6.48-51.8,6.48-51.8l-24.24-4.85Z"/>
          <path class="st8" d="M231.97,343.44s-5.29,22.48-3.53,32.62c1.76,10.14,2.77,38.13,2.33,49.59-.22,5.73-2.65,9.3-3.39,11.65-.94,2.98-.33,6.29,1.85,8.52,1.16,1.18,2.6,2.09,4.31,2.09,4.85,0,5.6-.23,12.22,2.85,6.61,3.09,13.66,3.09,17.19,1.32,3.53-1.76,2.2-3.09-1.76-4.85-3.97-1.76-7.07-7.13-13.12-11.53-3.35-2.43-3.35-12.48-3.35-12.48,0,0,7.97-56.44,9.73-67.02,1.76-10.58,1.32-18.51,1.32-18.51l-23.8,5.73Z"/>
          <path class="st1" d="M227,442.17l.4,12.3s.4.59,7.93.99c7.54.4,6.74-.4,17.06,1.39s13.09-2.18,13.29-2.78c.2-.6-.2-3.77-.2-3.77,0,0-3.97,2.18-13.09.99-9.12-1.19-12.3-3.37-16.26-5.95s-9.12-3.17-9.12-3.17Z"/>
          <path class="st3" d="M248.07,435.71l-3.21,13.4s4.16,2.18,7.54,2.18l3.37-8.33s-3.09-5.37-7.69-7.25Z"/>
        </g>
        <path class="st8" d="M272.09,207.88s-.17-1.88,1.03-4.11c1.2-2.22.17-4.28-1.71-2.74-1.88,1.54-2.74,4.79-2.74,4.79l3.42,2.05Z"/>
        <rect class="st8" x="232.72" y="178.96" width="35.94" height="65.38" transform="translate(28.8 -30.03) rotate(7.27)"/>
        <g>
          <path class="st3" d="M215.3,226.84s-8.83,15.34-14.64,33.47c-5.81,18.13-4.18,84.61-3.95,85.31.23.7,4.42,3.02,13.25,3.02s15.11-.46,15.11-.46c0,0,5.81,3.02,12.09,2.79,6.28-.23,13.25-3.02,13.25-3.02,0,0,.93.93,5.35,0,4.42-.93,8.37-3.02,8.37-3.02l4.18-2.32s-3.25-30.45-6.04-41.38-4.88-58.81-5.35-60.9c-.46-2.09.46,4.18-.46-2.09-.93-6.28-2.92-11.2-2.92-11.2l-38.23-.19Z"/>
          <path class="st3" d="M210.71,289.51c.57,1.26,1.17,2.47,1.81,3.58"/>
          <path class="st3" d="M204.15,266.82s1.84,10.88,5.52,20.2"/>
          <path class="st3" d="M207.4,289.37s2.56,4.65,6.28,10.69"/>
          <line class="st3" x1="225.53" y1="337.39" x2="225.53" y2="316.8"/>
          <line class="st3" x1="225.53" y1="346.32" x2="225.53" y2="342.28"/>
          <path class="st3" d="M232.74,243.79c-.21,1.76-.38,3.44-.46,4.9"/>
          <path class="st3" d="M235.53,226.61s-1.4,7.1-2.38,14.05"/>
          <line class="st3" x1="225.3" y1="227.31" x2="222.28" y2="239.16"/>
          <path class="st3" d="M261.8,309.83s1.63,21.15.93,27.89"/>
        </g>
        <path class="st4" d="M238.93,153.5s10.28,6.17,10.28,13.2-3.08,9.43-2.57,10.45c.51,1.03,4.97-2.4,5.14.17.17,2.57-1.37,8.23-5.48,9.08-4.11.86-9.43-1.54-13.2-11.82-3.77-10.28,3.6-21.08,5.83-21.08Z"/>
        <path class="st3" d="M221.11,158.44s-10.31,1.12-15.18,14.62c-4.87,13.49,7.5,42.73,8.43,44.79s.94,9,.94,9l38.23.19s-1.12-22.87-2.81-32.42-5.06-21.55-10.68-28.3c-5.62-6.75-8.81-10.12-18.93-7.87Z"/>
        <path class="st4" d="M214.93,220.29c.37,2.81.37,6.56.37,6.56l38.23.19s-.17-3.37-.47-8.06h-38.14v1.31Z"/>
        <g>
          <path class="st8" d="M270.72,213.01s1.88-4.62,1.37-5.13c-.51-.51-3.94-3.25-4.79-3.25s-7.19.51-7.19,1.37,1.71,1.2,1.71,1.2c0,0-1.54,1.03-1.37,1.88.17.86,3.17,1.61,3.17,1.61l7.1,2.32Z"/>
          <path class="st0" d="M263.02,206.85s2.91-.17,3.42,0c.51.17,4.28,3.08,4.28,3.08"/>
        </g>
        <path class="st2" d="M216.97,182.32l27.74,42.71s4.26,2.05,7.09,3.31c2.84,1.26,11.19.63,18.91,0s38.01-5.36,38.01-5.36c0,0,1.89,2.84,3.78,4.57,1.89,1.73,5.36,3.94,6.46,4.1,1.1.16,4.1-.95,4.1-.95,0,0,1.73,1.26,3.15,1.1,1.42-.16,2.05-.47,2.21-1.1.16-.63-.47-5.52-.95-6.93-.47-1.42-4.26-5.2-4.26-5.2,0,0-5.52-4.73-6.46-4.89s-12.92.47-12.92.47l-40.22-3.47s1.26-.63-1.26-1.89c-2.52-1.26-5.04-1.42-5.04-1.42,0,0-22.06-44.92-25.69-48.07-3.62-3.15-11.03-1.89-15.76,2.52-4.73,4.41-4.26,9.77-4.26,9.77"/>
        <path class="st5" d="M328.43,230.71c.16-.63-.47-5.52-.95-6.93-.47-1.42-4.26-5.2-4.26-5.2,0,0-5.52-4.73-6.46-4.89s-12.92.47-12.92.47l-31.75-2.86-2.94,17.17c.52-.04,1.04-.08,1.55-.13,7.72-.63,38.01-5.36,38.01-5.36,0,0,1.89,2.84,3.78,4.57,1.89,1.73,5.36,3.94,6.46,4.1,1.1.16,4.1-.95,4.1-.95,0,0,1.73,1.26,3.15,1.1,1.42-.16,2.05-.47,2.21-1.1Z"/>
        <path class="st6" d="M260.31,211.32s-7.88,4.89-9.46,8.67"/>
        <path class="st6" d="M257.79,210.38s-8.98,3.15-10.87,5.36"/>
        <polygon class="st8" points="241.68 149.9 236.88 160.36 230.02 148.02 232.08 145.62 241.68 149.9"/>
        <g>
          <path class="st8" d="M246.64,112.2s3.08,5.31,3.6,8.91c.51,3.6.17,7.88.17,7.88,0,0,4.46,6,4.46,7.54s-3.6,3.08-3.6,3.08c0,0-1.03,7.71-1.2,9.43-.17,1.71-1.71,3.6-3.43,3.6s-12.51-3.43-14.05-3.94-6.34-13.37-2.74-22.45,16.79-14.05,16.79-14.05Z"/>
          <path class="st10" d="M246.82,128.65c0,1.04-.46,1.89-1.03,1.89s-1.03-.84-1.03-1.89.46-1.89,1.03-1.89,1.03.84,1.03,1.89Z"/>
          <path class="st0" d="M243.9,124.88s2.57-1.37,4.28.17"/>
          <path class="st0" d="M248.7,142.02s-2.06.34-3.77-2.23"/>
        </g>
        <path class="st4" d="M251.27,106.72s-3.94,5.31-10.28,15.77c-6.34,10.45-6.86,27.76-6.86,27.76,0,0,5.31,6.86,6.68,13.02s-1.71,8.91-1.71,8.91c0,0-2.79-9.46-7.48-12.87-4.69-3.41-9.49-3.66-10.51-.88s4.28,8.95,1.88,14.09-11.65,9.94-10.97,15.6,4.97,10.11,3.6,16.97-8.57,9.6-12.17,7.2c-3.6-2.4-2.23-4.46-1.89-4.97.34-.51,1.89-2.57-.51-4.97s-9.43-7.54-7.71-12.17c1.71-4.63,8.23-5.83,6.17-11.65-2.06-5.83-10.28-14.05-6.86-20.57,3.43-6.51,10.63-7.2,8.91-15.6-1.71-8.4-3.26-9.25-1.37-17.31,1.89-8.05,10.8-18.34,14.74-21.25s15.6-5.48,18.34-5.31,9.43,2.91,11.65,3.6c2.23.69,7.54,1.54,6.34,4.63Z"/>
      </g>
      <g>
        <path class="st5" d="M309.42,220.43s-3.61,4.16-3.05,5.13c.55.97,2.5,1.66,2.5,1.66,0,0,2.08-3.33,2.36-5.27.28-1.94-.55-2.08-1.8-1.53Z"/>
        <path class="st5" d="M313.3,222.51s-4.43,3.61-4.43,4.72.69,2.08,1.53,1.66c.83-.42,3.61-2.91,3.88-4.72.28-1.8-.02-1.66-.98-1.66Z"/>
        <path class="st5" d="M314.3,225.33s-3.23,2.99-3.07,3.78c.16.79,1.26,1.34,1.89,1.34s2.75-2.12,3.3-3.7c.55-1.57-.31-2.67-2.12-1.42Z"/>
        <path class="st5" d="M316.27,227.37s-2.28,3.62-2.05,4.01,1.42,1.49,1.97.71,2.36-2.91,2.2-4.33c-.16-1.42-1.26-1.34-2.12-.39Z"/>
      </g>
      <g>
        <path class="st7" d="M393.28,158.71s-8.25,7.05-9.06,9.26c-.81,2.21-.81,4.83-.81,4.83,0,0-10.87,12.48-11.68,18.32s2.21,16.11,2.21,16.11l24.36-47.51-5.03-1.01Z"/>
        <g>
          <path class="st7" d="M451.73,449.61l-.08,5.03s-8.5,1.49-15.3.85l-.21-3.61,15.59-2.26Z"/>
          <path class="st7" d="M419.08,428.68s-.73,4.95-1.84,6.63-2.62,3.98-7.37,5.93c-4.75,1.95-16.8,6.05-16.24,8.28.56,2.23,1.67,3.35,2.79,3.63,1.12.28,9.95,1.7,17.21,1.7s16.34.34,19.13-.77c2.79-1.12,5.58-2.23,8.65-2.23s9.21-.56,10.33-2.23c1.12-1.67-.56-9.49-1.4-11.72s-1.97-5.67-1.97-5.67l-29.29-3.54Z"/>
        </g>
        <path class="st7" d="M430.04,288.87s.98,61.45,1.3,66.98c.33,5.53,7.15,34.79,12.35,49.09s5.6,29.8,5.6,29.8c0,0-10.15,2.06-12.43,2.39s-11.38-1.95-11.38-1.95c0,0-6.83-54.95-6.83-87.79s2.28-56.9,2.28-56.9l9.1-1.63Z"/>
        <g>
          <path class="st7" d="M436.01,453.23l-.08,5.03s-8.5,1.49-15.3.85l-.21-3.61,15.59-2.26Z"/>
          <path class="st7" d="M403.35,432.29s-.73,4.95-1.84,6.63c-1.12,1.67-2.62,3.98-7.37,5.93-4.75,1.95-16.8,6.05-16.24,8.28.56,2.23,1.67,3.35,2.79,3.63,1.12.28,9.95,1.7,17.21,1.7s16.34.34,19.13-.77c2.79-1.12,5.58-2.23,8.65-2.23s9.21-.56,10.33-2.23c1.12-1.67-.56-9.49-1.4-11.72-.84-2.23-1.97-5.67-1.97-5.67l-29.29-3.54Z"/>
        </g>
        <path class="st7" d="M383.87,287.57s4.55,43.24,6.83,53.32c2.28,10.08,9.1,42.27,9.1,42.27,0,0,4.23,32.84,4.23,34.14v5.2s-3.46,3.62-3.46,5.24,1.58,9.05,1.58,9.05c0,0,6.12,1.8,14.25,2.77,8.07.97,17.58.28,17.58.28,0,0,.28-20.17-1.99-39.03-2.28-18.86-8.12-48.54-8.12-57.97s1.63-28.94,1.95-30.24c.33-1.3,1.3-21.78,1.3-21.78l-43.24-3.25Z"/>
        <g>
          <path class="st5" d="M384.7,99.63s-5.7,10.44-5.7,12.75.99,3.62.66,4.28c-.33.66-5.43,7.73-5.76,9.54-.33,1.81,3.29,4.11,3.78,4.6s.99,9.21,1.64,11.68,2.8,4.44,4.6,4.44,4.11-.66,4.11-.66l9.04,6.08,24.83-14.64-.33-5.26s7.66-12.79,8.16-15.26c.49-2.47.84-13.51-1.63-17.62-2.47-4.11-13.82-9.28-19.9-11.09-6.08-1.81-17.43,2.94-19.89,4.59-2.47,1.64-5.59,3.62-5.1,4.77.49,1.15,1.48,1.81,1.48,1.81Z"/>
          <path class="st7" d="M428.11,99.56c-2.47-4.11-13.82-9.28-19.9-11.09-6.08-1.81-17.43,2.94-19.89,4.59-2.47,1.64-5.59,3.62-5.1,4.77.49,1.15,1.48,1.81,1.48,1.81,0,0,1.48.33,2.63-.66,1.15-.99.82-2.14,7.89-3.45,7.07-1.32,8.77,3.21,6.3,5.67s-7.07,5.59-6.25,8.22c.82,2.63,8.22,5.92,8.22,5.92,0,0-.66,2.96,0,3.62.66.66,1.81.82,1.81.82,0,0,4.93-5.59,7.24-4.44,2.3,1.15,5.26,6.58,4.93,9.21-.33,2.63-4.28,7.4-4.28,7.4l-2.8.66s5.1,3.29,11.18-.16c0,0,7.66-12.79,8.16-15.26.49-2.47.84-13.51-1.63-17.62Z"/>
          <path class="st10" d="M384.91,118.29c0,1.09-.4,1.97-.9,1.97s-.9-.88-.9-1.97.4-1.97.9-1.97.9.88.9,1.97Z"/>
          <path class="st6" d="M381.3,114.02s3.45-2.3,5.76,0"/>
          <path class="st6" d="M381.3,132.11s3.29.33,5.76-1.64"/>
          <path class="st6" d="M382.45,121.25s1.48,2.96,3.62,2.96"/>
          <polygon class="st7" points="388.04 146.25 393.63 143.45 393.3 149.37 388.04 146.25"/>
        </g>
        <polygon class="st5" points="421.92 135.73 393.79 153.65 392.15 165.16 425.7 140 421.92 135.73"/>
        <path class="st7" d="M425.7,140s-31.74,19.41-37.17,29.6c-5.43,10.2-16.12,23.68-16.45,32.07-.33,8.39,0,74.66-.16,79.59-.16,4.93,16.12,14.97,33.55,16.61,17.43,1.64,34.53-6.08,36.18-7.07s4.93-3.95,4.93-3.95c0,0-4.93-30.09-4.93-34.04s-1.32-12.83-1.32-12.83l3.62-29.44s-1.48-37.5-3.45-46.21c-1.97-8.72-10.85-23.85-10.85-23.85,0,0-1.64-1.81-3.95-.49Z"/>
        <path class="st9" d="M373.08,197.05c-.22.65-.41,1.28-.56,1.9l2.36-3.52s14.14-13.81,17.93-18.75c3.78-4.93,11.51-11.18,11.51-11.18l1.15-4.77,1.64,2.63s6.91-8.22,11.84-11.35c4.93-3.12,11.18-6.58,11.18-6.58"/>
        <rect class="st2" x="369.91" y="224.09" width="63.97" height="46.72" transform="translate(108.09 -121.92) rotate(19.88)"/>
        <g>
          <path class="st5" d="M406.46,249.95s-4.87,2.53-5.65,2.73c-.78.19-11.3-1.17-12.27-.78-.97.39-3.9,2.14-5.45,2.53-1.56.39-.97,2.92.97,3.51s6.82-.78,6.82-.78l1.36,1.56s-4.09,11.49-3.12,12.47c.97.97,1.75,1.95,2.73,1.56.97-.39,2.73-.97,2.73-.97,0,0,4.48,1.75,5.45,2.14.97.39,4.29.58,5.07.19.78-.39,1.56-1.36,2.34-2.53.78-1.17,4.09-10.71,4.09-10.71l1.36-3.51-6.43-7.4Z"/>
          <path class="st7" d="M414.84,162.28s-4.29,1.56-5.65,11.88c-1.36,10.32,1.95,18.51,3.9,21.43,1.95,2.92,18.02,25.06,18.02,25.06,0,0-1.95,1.75-1.75,2.73l.19.97-25.81,25,9.94,10.13s31.74-15.23,39.26-21.49c6.02-5.01,9.16-15.39,8.96-17.54-.19-2.14-20.94-46.88-24.06-52.53s-6.62-9.16-9.35-9.94"/>
          <path class="st6" d="M431.3,223.58s15.39-3.9,15.97-1.95"/>
          <path class="st9" d="M450,220.07s-4.68-2.14-8.57-1.36"/>
        </g>
        <path class="st9" d="M409.19,174.17s.88,9.72,2.62,14.21c1.74,4.48,19.43,30.15,19.43,30.15,0,0-2.99-.5-2.49,1.25.5,1.74.6,3.62.6,3.62l-3.34,2.86"/>
      </g>
      <path class="st5" d="M332.37,217.78s-7.41-4.1-9.77-5.83-5.04-.79-5.52-.47-3.62,5.36-4.1,6.3.95,1.58,2.21,1.42,5.52-2.99,5.52-2.99l5.36,4.26"/>
    </g>
  </g>
  <g id="Gears">
    <path class="st0" d="M682.02,329.68v-10.74l-13.65-2.16c-.68-2.55-1.69-4.97-2.99-7.19l8.13-11.19-7.59-7.59-11.19,8.13c-2.23-1.3-4.64-2.31-7.19-2.99l-2.16-13.65h-10.74l-2.16,13.65c-2.55.68-4.96,1.69-7.19,2.99l-11.19-8.13-7.59,7.59,8.13,11.19c-1.3,2.23-2.31,4.64-2.99,7.19l-13.65,2.16v10.74l13.65,2.16c.68,2.55,1.69,4.96,2.99,7.19l-8.13,11.19,7.59,7.59,11.19-8.13c2.23,1.3,4.64,2.31,7.19,2.99l2.16,13.65h10.74l2.16-13.65c2.55-.68,4.96-1.69,7.19-2.99l11.19,8.13,7.59-7.59-8.13-11.19c1.3-2.23,2.31-4.64,2.99-7.19l13.65-2.16ZM640,340.9c-9.16,0-16.59-7.43-16.59-16.59s7.43-16.59,16.59-16.59,16.59,7.43,16.59,16.59-7.43,16.59-16.59,16.59Z"/>
    <path class="st0" d="M538.86,147.54v-9.16l-11.65-1.85c-.58-2.18-1.44-4.24-2.55-6.14l6.93-9.55-6.48-6.48-9.55,6.93c-1.9-1.11-3.96-1.97-6.14-2.55l-1.85-11.65h-9.16l-1.85,11.65c-2.18.58-4.24,1.44-6.14,2.55l-9.55-6.93-6.48,6.48,6.93,9.55c-1.11,1.9-1.97,3.96-2.55,6.14l-11.65,1.85v9.16l11.65,1.85c.58,2.18,1.44,4.24,2.55,6.14l-6.93,9.55,6.48,6.48,9.55-6.93c1.9,1.11,3.96,1.97,6.14,2.55l1.85,11.65h9.16l1.85-11.65c2.18-.58,4.24-1.44,6.14-2.55l9.55,6.93,6.48-6.48-6.93-9.55c1.11-1.9,1.97-3.96,2.55-6.14l11.65-1.85ZM503,157.11c-7.82,0-14.16-6.34-14.16-14.16s6.34-14.16,14.16-14.16,14.16,6.34,14.16,14.16-6.34,14.16-14.16,14.16Z"/>
    <path class="st0" d="M163.87,352.36v-6.77l-8.61-1.36c-.43-1.61-1.07-3.13-1.88-4.54l5.12-7.05-4.79-4.79-7.05,5.12c-1.41-.82-2.93-1.46-4.54-1.88l-1.36-8.61h-6.77l-1.36,8.61c-1.61.43-3.13,1.07-4.54,1.88l-7.05-5.12-4.79,4.79,5.12,7.05c-.82,1.41-1.46,2.93-1.88,4.54l-8.61,1.36v6.77l8.61,1.36c.43,1.61,1.07,3.13,1.88,4.54l-5.12,7.05,4.79,4.79,7.05-5.12c1.41.82,2.93,1.46,4.54,1.88l1.36,8.61h6.77l1.36-8.61c1.61-.43,3.13-1.07,4.54-1.88l7.05,5.12,4.79-4.79-5.12-7.05c.82-1.41,1.46-2.93,1.88-4.54l8.61-1.36ZM137.37,359.43c-5.78,0-10.46-4.68-10.46-10.46s4.68-10.46,10.46-10.46,10.46,4.68,10.46,10.46-4.68,10.46-10.46,10.46Z"/>
    <path class="st0" d="M93.14,82.64v-9.95l-12.65-2.01c-.63-2.36-1.57-4.6-2.77-6.66l7.53-10.36-7.04-7.04-10.36,7.53c-2.07-1.2-4.3-2.14-6.66-2.77l-2.01-12.65h-9.95l-2.01,12.65c-2.36.63-4.6,1.57-6.66,2.77l-10.36-7.53-7.04,7.04,7.53,10.36c-1.2,2.07-2.14,4.3-2.77,6.66l-12.65,2.01v9.95l12.65,2.01c.63,2.36,1.57,4.6,2.77,6.66l-7.53,10.36,7.04,7.04,10.36-7.53c2.07,1.2,4.3,2.14,6.66,2.77l2.01,12.65h9.95l2.01-12.65c2.36-.63,4.6-1.57,6.66-2.77l10.36,7.53,7.04-7.04-7.53-10.36c1.2-2.07,2.14-4.3,2.77-6.66l12.65-2.01ZM54.22,93.03c-8.49,0-15.37-6.88-15.37-15.37s6.88-15.37,15.37-15.37,15.37,6.88,15.37,15.37-6.88,15.37-15.37,15.37Z"/>
  </g>
</svg>