<?xml version="1.0" encoding="UTF-8"?>
<svg xmlns="http://www.w3.org/2000/svg" version="1.1" xmlns:xlink="http://www.w3.org/1999/xlink" viewBox="0 0 374.76 371.96">
  <!-- Generator: Adobe Illustrator 29.0.0, SVG Export Plug-In . SVG Version: 2.1.0 Build 186)  -->
  <defs>
    <style>
      .st0 {
        stroke-miterlimit: 10;
      }

      .st0, .st1, .st2, .st3, .st4, .st5, .st6, .st7 {
        stroke: #263238;
      }

      .st0, .st7, .st8 {
        fill: none;
      }

      .st9 {
        clip-path: url(#clippath-6);
      }

      .st10 {
        clip-path: url(#clippath-7);
      }

      .st11 {
        clip-path: url(#clippath-4);
      }

      .st12, .st13 {
        fill-opacity: .7;
        opacity: .3;
      }

      .st14 {
        fill: #263238;
      }

      .st1 {
        fill: #16a34a;
      }

      .st1, .st2, .st3, .st4, .st5, .st6, .st7, .st8 {
        stroke-linecap: round;
        stroke-linejoin: round;
      }

      .st15 {
        clip-path: url(#clippath-9);
      }

      .st16 {
        clip-path: url(#clippath-10);
      }

      .st17, .st13, .st5, .st18 {
        fill: #fff;
      }

      .st2 {
        fill: #757575;
      }

      .st19 {
        clip-path: url(#clippath-11);
      }

      .st20 {
        clip-path: url(#clippath-1);
      }

      .st21 {
        clip-path: url(#clippath-5);
      }

      .st22 {
        clip-path: url(#clippath-8);
      }

      .st23, .st3, .st24 {
        fill: #92e3a9;
      }

      .st25 {
        fill: #d4f7e5;
      }

      .st25, .st18 {
        opacity: .7;
      }

      .st26 {
        clip-path: url(#clippath-3);
      }

      .st27 {
        clip-path: url(#clippath-12);
      }

      .st28 {
        opacity: .2;
      }

      .st29, .st6 {
        fill: #999;
      }

      .st4, .st30 {
        fill: #bfbfbf;
      }

      .st24 {
        opacity: .4;
      }

      .st8 {
        stroke: #fff;
      }

      .st31 {
        clip-path: url(#clippath-2);
      }

      .st32 {
        clip-path: url(#clippath);
      }
    </style>
    <clipPath id="clippath">
      <path class="st4" d="M127.07,169.69l4.01,8.47s16.54,34.19,26.67,73.33c.24.93,5.48,19.47,1.28,65.64l2.4,8.1-2.62,13.38s3.94,5.69,3.8,7.55c0,0-9.72,1.81-12.95,3.55-2.52,1.36-10.09,8.83-10.09,8.83-2.15-.44-2.33-9.13-2.33-9.13,0,0-4.5-77.07-5.78-80.39-1.28-3.32-9.18-17.64-21.47-50.41,0,0-.28,45.77-3.56,57.35-2.92,10.3.54,39.13.54,39.13l-1.97,32.09s6.92,7.19,1.31,9.12c0,0-3.75-7.21-14.43-8.85-5.43-.83-12.2,8.81-12.2,8.81-2.37-.76,1.01-12.87,1.01-12.87-7.57-57.12-1.98-46.78-3.49-74.7-.97-17.92-6.06-94.58-.09-100.81l49.99,1.81Z"/>
    </clipPath>
    <clipPath id="clippath-1">
      <path class="st3" d="M142,25.76h21.95c1.04,0,1.88.84,1.88,1.88v15.7h-25.71v-15.7c0-1.04.84-1.88,1.88-1.88Z" transform="translate(-2.53 14.2) rotate(-5.27)"/>
    </clipPath>
    <clipPath id="clippath-2">
      <path class="st3" d="M179.84,22.27h21.95c1.04,0,1.88.84,1.88,1.88v15.7h-25.71v-15.7c0-1.04.84-1.88,1.88-1.88Z" transform="translate(-2.05 17.67) rotate(-5.27)"/>
    </clipPath>
    <clipPath id="clippath-3">
      <path class="st3" d="M245.17,31.19l6.63,71.88-115.82,10.69-6.63-71.88c-.23-2.51,1.61-4.72,4.11-4.95l106.76-9.85c2.5-.23,4.72,1.6,4.95,4.11Z"/>
    </clipPath>
    <clipPath id="clippath-4">
      <path class="st5" d="M302.44,316.91s-12.99-4.79-15.55,4.79c0,0,2.32,10.55.93,16.32-1.39,5.76-8.38,16.79-8.82,18.89-.85,4.09-.21,4.37-.21,4.37,0,0,5.09,2.94,11.93-.21,6.83-3.15,18.68-16.71,20.53-19.5,1.86-2.79-5.8-13.83-5.8-13.83l-3.02-10.83Z"/>
    </clipPath>
    <clipPath id="clippath-5">
      <path class="st3" d="M182.83,146.38h21.95c1.04,0,1.88.84,1.88,1.88v15.7h-25.71v-15.7c0-1.04.84-1.88,1.88-1.88Z" transform="translate(14.01 -16.03) rotate(4.91)"/>
    </clipPath>
    <clipPath id="clippath-6">
      <path class="st3" d="M220.69,149.63h21.95c1.04,0,1.88.84,1.88,1.88v15.7h-25.71v-15.7c0-1.04.84-1.88,1.88-1.88Z" transform="translate(14.42 -19.26) rotate(4.91)"/>
    </clipPath>
    <clipPath id="clippath-7">
      <path class="st3" d="M285.14,168.17l-6.18,71.92-115.88-9.96,6.18-71.92c.22-2.51,2.42-4.36,4.92-4.14l106.82,9.18c2.5.22,4.36,2.41,4.14,4.92Z"/>
    </clipPath>
    <clipPath id="clippath-8">
      <path class="st5" d="M336.75,330.59s-5.54-3.96-17.01-3.16c0,0-.83,13.75-2.39,17.75-1.56,4-9.78,10.93-11.31,12.11-1.53,1.19-1.53,5.34-1.53,5.34h34.81s-.59-9.2-2.77-17.66l.2-14.39Z"/>
    </clipPath>
    <clipPath id="clippath-9">
      <path class="st6" d="M345.63,190.01s-22.21,4.35-43.99-2.71c-4.81-1.56-9.61-3.68-14.14-6.53,0,0,.06-1.4.1-3.69.18-8.94.13-31.43-4.58-37.04-2.96-3.51-5.35-25.21.44-36.18l17.71-14.24c24.52,4.79,29.7,11.28,33.75,25.28.75,2.56,1.45,5.37,2.23,8.47.85,3.38,1.65,7.51,2.41,12.05,3.68,22.38,6.07,54.59,6.07,54.59Z"/>
    </clipPath>
    <clipPath id="clippath-10">
      <path class="st3" d="M162.29,279.09h21.95c1.04,0,1.88.84,1.88,1.88v15.7h-25.71v-15.7c0-1.04.84-1.88,1.88-1.88Z"/>
    </clipPath>
    <clipPath id="clippath-11">
      <path class="st3" d="M200.29,279.09h21.95c1.04,0,1.88.84,1.88,1.88v15.7h-25.71v-15.7c0-1.04.84-1.88,1.88-1.88Z"/>
    </clipPath>
    <clipPath id="clippath-12">
      <path class="st3" d="M265.37,293.01v72.19h-116.31v-72.19c0-2.52,2.04-4.55,4.55-4.55h107.21c2.51,0,4.55,2.03,4.55,4.55Z"/>
    </clipPath>
  </defs>
  <g id="Background_Simple">
    <path class="st18" d="M13.89,88.86s-27.88,71.99,11.3,144.5c39.17,72.52,119.88,110.8,184.47,143.55,64.59,32.75,131.66,16.8,163.53-36.84,31.87-53.64-11.85-91.93-11.9-168.42-.05-76.49,11.45-96.74-29.96-161.36-41.41-64.62-143.06-78.93-219.9-31C34.59,27.23,13.89,88.86,13.89,88.86Z"/>
    <g>
      <path class="st23" d="M55.97,34.25c13.45-16.08,31.63-28.52,53.31-28.26,36.99.46,56.98,33.2,78.22,58.47,11.01,13.1,23.49,25.74,39.83,31.9,24.52,9.23,51.81,3.84,75.7-4.73,10.7-3.84,23.37-9.24,35.42-6.48,36.63,8.38,32.81,53.09,26.76,81.39-8.17,38.21-21.45,78.9-48.36,108.27-64.43,70.29-180.38,27.2-238.49-28.89-4.27-4.12-8.37-8.43-12.21-12.95-9.95-11.7-18.5-24.6-25.16-38.45-18.75-38.94-21.32-86.29-5.08-126.54,4.72-11.7,11.56-23.55,20.07-33.73Z"/>
      <path class="st25" d="M55.97,34.25c13.45-16.08,31.63-28.52,53.31-28.26,36.99.46,56.98,33.2,78.22,58.47,11.01,13.1,23.49,25.74,39.83,31.9,24.52,9.23,51.81,3.84,75.7-4.73,10.7-3.84,23.37-9.24,35.42-6.48,36.63,8.38,32.81,53.09,26.76,81.39-8.17,38.21-21.45,78.9-48.36,108.27-64.43,70.29-180.38,27.2-238.49-28.89-4.27-4.12-8.37-8.43-12.21-12.95-9.95-11.7-18.5-24.6-25.16-38.45-18.75-38.94-21.32-86.29-5.08-126.54,4.72-11.7,11.56-23.55,20.07-33.73Z"/>
    </g>
  </g>
  <g id="Floor">
    <line class="st7" y1="365.21" x2="391.91" y2="365.21"/>
  </g>
  <g id="Window">
    <g>
      <polyline class="st7" points="237.93 162.58 237.93 15.44 247.04 15.44"/>
      <line class="st7" x1="237.93" y1="180.09" x2="237.93" y2="176.18"/>
      <polyline class="st7" points="270.47 15.44 364.47 15.44 364.47 193.8 237.93 193.8"/>
      <line class="st7" x1="258.94" y1="15.44" x2="267.2" y2="15.44"/>
      <rect class="st7" x="242.69" y="20.19" width="117.03" height="168.87"/>
      <polyline class="st7" points="354.27 29.23 354.27 99.35 248.13 99.35 248.13 94.78"/>
      <polyline class="st7" points="248.13 84.06 248.13 25.17 354.27 25.17"/>
      <line class="st7" x1="248.13" y1="91.26" x2="248.13" y2="86.82"/>
      <line class="st7" x1="336.35" y1="104.62" x2="359.71" y2="104.62"/>
      <line class="st7" x1="328.04" y1="104.62" x2="331.35" y2="104.62"/>
      <line class="st7" x1="242.69" y1="104.62" x2="324.09" y2="104.62"/>
      <polyline class="st7" points="295.32 99.35 295.32 96.94 305.1 96.94 305.1 98.31 301.2 98.31 301.2 99.35"/>
      <path class="st7" d="M242.89,167.81s1.62,1.23,2.76,8.66c0,0,1.97-11.87,4.35-12.06,2.38-.19,1.9,7.73,1.9,7.73,0,0,.4-3.9,2.26-3.72,1.87.18,0,8.05,0,8.05,0,0,2.24-6.13,4.36-6.03,2.12.1-1.41,11.12-1.41,11.12,0,0,5.44-3.94,7.65-2.01,2.2,1.93-1.22,6.79-1.22,6.79,0,0,7.8-1.69,9.02,2.89"/>
      <path class="st7" d="M272.55,184.79s3.4-2.23,6.07-1.19c0,0-1.7-2.59,0-4.18,1.7-1.59,3.89,4.18,3.89,4.18,0,0,.24-9.65,3.64-9.17,3.4.49,0,9.17,0,9.17,0,0,6.07-5.39,7.53-3.51s-.97,4.7-.97,4.7c0,0,3.64-1.16,6.32,1.55,0,0,4.07-4.15,8.6-4.75,0,0-3.01-8.74-1.55-10.5,1.46-1.76,4.11,7.62,4.11,7.62,0,0,1.16-6.1,4.96-6.58,0,0-3.16-1.72-2.23-4.33s5.31.61,5.31.61c0,0-1.8-4.59,1.05-5.85,2.84-1.26,4.03,3.84,4.03,3.84,0,0,.79-5.34,4.13-5.05,3.32.29,2.26,6.44,2.26,6.44,0,0,3.15-4.89,4.84-4.39,3.37,1,2.35,8.72,2.35,8.72,0,0,4.71-3.27,5.92-1.76,1.31,1.62-4.9,5.81-4.9,5.81,0,0,4.67.52,7.58,3.24"/>
      <path class="st7" d="M359.71,169.58s-.54-4.9-5.44-5.16c-4.9-.26,1.35,10.75,1.35,10.75,0,0-4.04-3.35-5.5-2.32-1.45,1.03,4.15,6.7,4.15,6.7,0,0-2.69-2.49-5.52-1.72-2.83.77,1.62,8.66,1.62,8.66,0,0-5.9-1.55-12.46,1.46"/>
    </g>
  </g>
  <g id="Table">
    <g>
      <g>
        <line class="st7" x1="192.64" y1="321.42" x2="192.64" y2="364.95"/>
        <line class="st7" x1="192.64" y1="307.18" x2="192.64" y2="316.51"/>
        <polyline class="st7" points="9.44 365.21 9.44 284.11 192.64 284.11 192.64 301.91"/>
        <polyline class="st7" points="36.13 292.97 20.24 292.97 20.24 357.77"/>
        <polyline class="st7" points="181.85 364.95 181.85 292.97 45.37 292.97"/>
        <line class="st7" x1="174.23" y1="275.71" x2="169.18" y2="275.71"/>
        <polyline class="st7" points="161.94 275.71 4.89 275.71 4.89 284.05 197.2 284.05 197.2 275.71 177.45 275.71"/>
      </g>
      <g>
        <g>
          <path class="st7" d="M15.72,222.27s15.05,1.19,15.68,12.29c0,0-15.24,7.02-15.68-12.29Z"/>
          <path class="st7" d="M45.5,225.02s8.41-11.37,22-5.54c0,0-8.3,13.75-22,5.54Z"/>
          <path class="st7" d="M66.34,189.13s2.42,21.87-17.49,15.85c0,0,6.32-16.08,17.49-15.85Z"/>
          <path class="st7" d="M41.9,176.95s15.75,8.49,4.17,21.38c0,0-11.04-9.2-4.17-21.38Z"/>
          <path class="st7" d="M22.52,196.5s17.12-1.73,17.12,14.12c0,0-17.12.67-17.12-14.12Z"/>
          <path class="st7" d="M35.35,243.51c-.25-5.32-.25-12.16,3-19.39,7.49-16.68,10.03-30.73,6.11-40.63"/>
          <path class="st7" d="M28.15,200.76s10.26,4.08,13.75,14.65"/>
          <path class="st7" d="M60.93,197.88s-5.93,8.08-15.98,7.21"/>
          <path class="st7" d="M60.93,221.81s-16.42,4.73-22.95,3.18"/>
          <path class="st7" d="M20.63,227.27s7.34,8.06,14.73,7.93"/>
        </g>
        <path class="st0" d="M54.88,243.51H19.19c-.48,0-.87.39-.87.87v2.71c0,.48.39.87.87.87h1.04l3.18,27.76h27.25l3.18-27.76h1.04c.48,0,.87-.39.87-.87v-2.71c0-.48-.39-.87-.87-.87Z"/>
        <line class="st7" x1="22.52" y1="247.95" x2="43.28" y2="247.95"/>
        <line class="st7" x1="47.2" y1="247.95" x2="50.32" y2="247.95"/>
      </g>
    </g>
  </g>
  <g id="Character_2">
    <g>
      <path class="st14" d="M79.36,365.21s-1.71-6.53.29-8.94c3.59-4.34-.44-7.98,3.16-9.49l1.51,1.75c.29-1.78-.55-7.18,6.13-7.89,8.08-.85,8.23,5.03,8.66,6.96l-.13-2.71c3.44,0,1.66,3.44,6.88,9.06,3.98,4.29,3.99,9.79,3.77,11.25h-30.28Z"/>
      <path class="st14" d="M140.97,365.21c-3.25-1.45-.26-13.7-.26-13.7,0,0-4.37-2.94,0-5.98,0,0,4.89,4.75,12.41,2.02,0,0,.85-8.2,5.98-7.15,0,0,1.32,5.2,4.32,8.16,8.15,8.04,18.69,8.96,20.45,12.84.53,1.16-.11,3.81-.11,3.81h-42.79Z"/>
      <g>
        <g>
          <path class="st30" d="M127.07,169.69l4.01,8.47s16.54,34.19,26.67,73.33c.24.93,5.48,19.47,1.28,65.64l2.4,8.1-2.62,13.38s3.94,5.69,3.8,7.55c0,0-9.72,1.81-12.95,3.55-2.52,1.36-10.09,8.83-10.09,8.83-2.15-.44-2.33-9.13-2.33-9.13,0,0-4.5-77.07-5.78-80.39-1.28-3.32-9.18-17.64-21.47-50.41,0,0-.28,45.77-3.56,57.35-2.92,10.3.54,39.13.54,39.13l-1.97,32.09s6.92,7.19,1.31,9.12c0,0-3.75-7.21-14.43-8.85-5.43-.83-12.2,8.81-12.2,8.81-2.37-.76,1.01-12.87,1.01-12.87-7.57-57.12-1.98-46.78-3.49-74.7-.97-17.92-6.06-94.58-.09-100.81l49.99,1.81Z"/>
          <g class="st32">
            <path class="st28" d="M74.22,196.08c26.73,2.11,49.89-6.64,59.93-11.21-1.9-4.29-3.08-6.71-3.08-6.71l-4.01-8.47-49.99-1.81c-2.15,2.24-2.86,13.67-2.85,28.2Z"/>
            <path class="st28" d="M110.19,219.2c12.17,32.35,19.98,46.51,21.26,49.82.73,1.91,2.52,28.08,3.92,50.05,1.61-19.98,3.25-41.07,3.4-45.21.3-8.23-5.65-19.53-6.55-22.45-.9-2.91,1.13-6.08,1.13-6.08l-10.71-13.5c.36-4.58-5.3-24.57-5.3-24.57-3.37,3.19-6.34,9.98-7.14,11.93Z"/>
          </g>
          <path class="st7" d="M127.07,169.69l4.01,8.47s16.54,34.19,26.67,73.33c.24.93,5.48,19.47,1.28,65.64l2.4,8.1-2.62,13.38s3.94,5.69,3.8,7.55c0,0-9.72,1.81-12.95,3.55-2.52,1.36-10.09,8.83-10.09,8.83-2.15-.44-2.33-9.13-2.33-9.13,0,0-4.5-77.07-5.78-80.39-1.28-3.32-9.18-17.64-21.47-50.41,0,0-.28,45.77-3.56,57.35-2.92,10.3.54,39.13.54,39.13l-1.97,32.09s6.92,7.19,1.31,9.12c0,0-3.75-7.21-14.43-8.85-5.43-.83-12.2,8.81-12.2,8.81-2.37-.76,1.01-12.87,1.01-12.87-7.57-57.12-1.98-46.78-3.49-74.7-.97-17.92-6.06-94.58-.09-100.81l49.99,1.81Z"/>
        </g>
        <path class="st7" d="M109.97,218.62s6.11-11.8,11.32-15.08"/>
        <path class="st7" d="M123.58,199.72s-18.56,5.65-24.99,6.74"/>
        <path class="st7" d="M114.08,180.77c.8,15.45,6.25,18.09.98,21.46,0,0,.14,7.23-2.47,11.81"/>
        <path class="st7" d="M81.55,174.87s2.19,23.75-5.12,28.22"/>
        <path class="st7" d="M76.44,182.52s-.55,15.81,0,28.55c0,0,1.83,53.85,3.65,60.61,1.83,6.76-2.81,16.97-2.41,46.21"/>
        <path class="st7" d="M93.98,340.8c-1.73-.33-3.56-.18-5.12.68"/>
        <path class="st7" d="M104.97,347.19c-2.29-2.19-4.96-4.11-7.87-5.39"/>
        <path class="st7" d="M101.91,222.35c-4.1,4.59-10.59,13.26-17.25,14"/>
        <path class="st7" d="M108.23,214.86c-1.26,1.59-2.56,3.15-3.88,4.7"/>
        <path class="st7" d="M102.38,268.69s-9.32,12.69-14.43,13.42"/>
        <path class="st7" d="M113.35,216.33s16.6,46.23,22.37,50.8c0,0,.66,33.99.84,45.86.18,11.88,2.92,27.66,2.92,27.66"/>
        <path class="st7" d="M157.2,340.3s-6.4,2.21-9.5,3.62c-3.11,1.41-4.2,4.52-4.2,4.52"/>
        <path class="st7" d="M141.03,250.45c-8.92-5.6-20.66-12.58-25.4-22.43"/>
        <path class="st7" d="M148.79,255.06c-1.69-.93-3.35-1.91-4.99-2.9"/>
        <path class="st7" d="M120.72,187.02c-4.79-.07-10.04-.7-14.13-3.4"/>
        <path class="st7" d="M128.33,186.58c-1.37.19-2.75.31-4.14.38"/>
      </g>
      <path class="st14" d="M137.21,80.42c-3.66-5.54-22.31-6.95-34.28-6.95s-26.5-2.02-33.06,11.5c-5.01,10.31,6.52,64.83,6.52,64.83l-2.83,23.54c21.68,6.8,58.83,5.3,58.83,5.3l-5-21.28s13.48-71.4,9.82-76.94Z"/>
      <path class="st5" d="M95.83,59.77s1.61,12.83-3.28,15.6c0,0,2.44,9.41,10.98,9.99,8.54.58,12.36-8.62,12.36-8.62l-20.07-16.97Z"/>
      <g>
        <g>
          <path class="st23" d="M142,25.76h21.95c1.04,0,1.88.84,1.88,1.88v15.7h-25.71v-15.7c0-1.04.84-1.88,1.88-1.88Z" transform="translate(-2.53 14.2) rotate(-5.27)"/>
          <g class="st20">
            <path class="st12" d="M142,25.76h21.95c1.04,0,1.88.84,1.88,1.88v15.7h-25.71v-15.7c0-1.04.84-1.88,1.88-1.88Z" transform="translate(-2.53 14.2) rotate(-5.27)"/>
            <rect class="st13" x="158.01" y="26.65" width="6.33" height="12.66" transform="translate(-2.35 14.95) rotate(-5.27)"/>
          </g>
          <path class="st7" d="M142,25.76h21.95c1.04,0,1.88.84,1.88,1.88v15.7h-25.71v-15.7c0-1.04.84-1.88,1.88-1.88Z" transform="translate(-2.53 14.2) rotate(-5.27)"/>
        </g>
        <g>
          <path class="st23" d="M179.84,22.27h21.95c1.04,0,1.88.84,1.88,1.88v15.7h-25.71v-15.7c0-1.04.84-1.88,1.88-1.88Z" transform="translate(-2.05 17.67) rotate(-5.27)"/>
          <g class="st31">
            <path class="st12" d="M179.84,22.27h21.95c1.04,0,1.88.84,1.88,1.88v15.7h-25.71v-15.7c0-1.04.84-1.88,1.88-1.88Z" transform="translate(-2.05 17.67) rotate(-5.27)"/>
            <rect class="st13" x="197.93" y="23.08" width="3.82" height="12.66" transform="translate(-1.86 18.49) rotate(-5.27)"/>
          </g>
          <path class="st7" d="M179.84,22.27h21.95c1.04,0,1.88.84,1.88,1.88v15.7h-25.71v-15.7c0-1.04.84-1.88,1.88-1.88Z" transform="translate(-2.05 17.67) rotate(-5.27)"/>
        </g>
        <path class="st1" d="M171.95,24.65h21.95c1.04,0,1.88.84,1.88,1.88v14.05h-25.71v-14.05c0-1.04.84-1.88,1.88-1.88Z" transform="translate(-2.22 16.95) rotate(-5.27)"/>
        <path class="st1" d="M209.71,19.51h21.95c1.04,0,1.88.84,1.88,1.88v15.7h-25.71v-15.7c0-1.04.84-1.88,1.88-1.88Z" transform="translate(-1.67 20.4) rotate(-5.27)"/>
        <rect class="st13" x="187.88" y="23.9" width="6.33" height="12.66" transform="translate(-1.97 17.69) rotate(-5.27)"/>
        <rect class="st13" x="225.31" y="20.44" width="6.33" height="12.66" transform="translate(-1.49 21.11) rotate(-5.27)"/>
        <g>
          <path class="st23" d="M245.17,31.19l6.63,71.88-115.82,10.69-6.63-71.88c-.23-2.51,1.61-4.72,4.11-4.95l106.76-9.85c2.5-.23,4.72,1.6,4.95,4.11Z"/>
          <g class="st26">
            <path class="st12" d="M245.17,31.19l6.63,71.88-115.82,10.69-6.63-71.88c-.23-2.51,1.61-4.72,4.11-4.95l106.76-9.85c2.5-.23,4.72,1.6,4.95,4.11Z"/>
          </g>
          <path class="st7" d="M245.17,31.19l6.63,71.88-115.82,10.69-6.63-71.88c-.23-2.51,1.61-4.72,4.11-4.95l106.76-9.85c2.5-.23,4.72,1.6,4.95,4.11Z"/>
        </g>
        <path class="st1" d="M245.17,31.19l6.63,71.88-85.94,7.93-6.63-71.88c-.23-2.51,1.61-4.72,4.11-4.95l76.88-7.09c2.5-.23,4.72,1.6,4.95,4.11Z"/>
        <path class="st13" d="M239.59,34.29l-73.47,6.78c-1.03.1-1.95-.67-2.04-1.7h0c-.1-1.03.66-1.95,1.7-2.04l73.47-6.78c1.03-.1,1.95.67,2.04,1.7h0c.1,1.03-.67,1.95-1.7,2.04Z"/>
      </g>
      <g>
        <path class="st14" d="M110.49,34.34s-16.95-3.4-18.85,7.51c-1.9,10.91,4.32,15.55,4.32,15.55l14.52-23.06Z"/>
        <path class="st5" d="M96,63.39c-1.74-4.86-2.37-10.58-.87-16.89,1.66-7.01,10.01-16.63,22.65-7.88,6.52,4.51,6.91,14.3,4.89,23.26-.48,2.14-.12,4.23-.83,6.19-2.5,6.9-7.07,12.21-9.57,12.34-4.18.2-12.52-4.84-12.17-9.24"/>
        <path class="st7" d="M112.84,60.22s-3.37-2.44-6.61-.44"/>
        <path class="st7" d="M119.21,59.77s2.55-2.34,4.21-2.01"/>
        <path class="st14" d="M108.08,63.96c0,.62.32,1.12.71,1.12s.71-.5.71-1.12-.32-1.12-.71-1.12-.71.5-.71,1.12Z"/>
        <ellipse class="st14" cx="119.21" cy="63.34" rx=".71" ry="1.12"/>
        <path class="st7" d="M117.78,62.13c-1.25,1.62.5,7.8,0,8.23-.5.44-3.68-.81-3.68-.81,0,0-.75-.94.81-1.43"/>
        <path class="st7" d="M114.9,73.46s-4.27,0-5.41-1.55"/>
        <path class="st2" d="M104.73,50.36l-.33,5.16s-3.66,1.89-4.57,3.81-.58,4.01-.58,4.01c0,0-2.22-3.88-3.41-3.56-.43.12-.43,1.74-.43,1.74,0,0-4.97-11.15-.48-17.06s9.82,5.91,9.82,5.91Z"/>
        <path class="st5" d="M97.68,62.21s-1-3.74-4.37-4.74-1.06,7.98,1.81,9.17c2.87,1.19,3.59,2,3.76.94"/>
        <path class="st14" d="M93.09,49.71c-.28-.38-1.51-9.98,4.83-14.32,6.35-4.34,17.08-3.86,23.92,2.12,6.83,5.98,4.88,16.35,0,19.89v-4.33s-2.25,4.34-9,4.7l2.06-3.18s-3.31,1.95-9.17,1.83c0,0,2.75-2.2,2.35-4.15,0,0-9.29,5.23-14.99-2.57Z"/>
      </g>
      <path class="st5" d="M94.28,84.39c-4.68.56-11.33,6.67-6.97,17.52,2.77,6.88,25.53,2.79,25.53,2.79,8.44-3.47,20.77-16,29.82-21.81,0,0-1.91-11.99-4.11-10.3-10.22,7.83-18.64,8.37-32.9,15.23,0,0-8.42-3.78-11.36-3.43Z"/>
      <path class="st5" d="M104.73,97.71c-.14,4.48,1.7,5.27,4.8,6.33"/>
      <path class="st5" d="M137.84,73.46c.21-.65,3.96-7.3,5.07-9s5.85-3.22,7.7-4.24c1.85-1.02,1.98-2.57,3.03-1.46,1.05,1.11,0,3.64-5.54,6.33,0,0,4.42.21,5.9,0,1.48-.21,2.8-1.56,3.46-.62.66.94.79,2.6-2.51,3.61-3.3,1.02-4.88.96-4.88.96,0,0,4.22.99,4.75,1.38s1.32,1.3,2.11,1.44c.79.14,1.65,1.02.2,2.05-1.45,1.03-3.36.07-3.36.07,0,0,3.82,1.85,2.64,3.03-1.19,1.19-5.01.92-5.01.92,0,0-5.67,6.86-10.42,5.41"/>
      <path class="st7" d="M144.61,64.46s1.05.15,1.38,1.33c.33,1.19,1.29,1.25,1.89,2.57s.42,3.37,1.01,4.06c.59.69,0,3.66,0,3.66"/>
      <path class="st8" d="M95.27,83.53c-2.45-3.12-7.95-1.71-7.95-1.71"/>
      <path class="st8" d="M84.32,76.08s5.66.83,7.33,5.54"/>
      <path class="st8" d="M94.28,105.9s-5.52,4.27-13.92-1.87"/>
      <path class="st8" d="M87.32,107.19s-2.8,3.87-9.63,3.82"/>
      <path class="st8" d="M122.39,155.88s-14.44,11.5-29.11,10.03"/>
      <path class="st8" d="M83.36,130.59s22.42,16.44,39.03,17.49"/>
    </g>
  </g>
  <g id="Character_3">
    <g>
      <path class="st14" d="M274.67,132.87l-4.04,21.75-32.62,19.82,4.51,8.28s37.71-11.51,38.63-14.19c.91-2.69,9.62-31.18,9.62-31.18l-16.09-4.48Z"/>
      <path class="st6" d="M288.91,96.11l-2.18,26.36-1.15,13.83c-6.29,3.06-12.44-1.54-12.82-1.84-.01-.01-.02-.01-.02-.01,1.77-5.01,3.76-33.34,16.17-38.34Z"/>
      <path class="st14" d="M286.73,122.47l-1.15,13.83c-6.29,3.06-12.44-1.54-12.82-1.84.27.12,3.58,1.52,5.73-.01,0,0-1.85-2.11-1.98-2.64-.13-.52,1.98-.66,1.98-.66,0,0-1.4-11.21,2.33-15.95,1.46-1.86,3.74,1.94,5.91,7.27Z"/>
      <g>
        <path class="st3" d="M311.55,340.22l1.04,2.93s-2.41,4.05-5.08,7.15c0,0-1.03-.33-2.64,1.12-1.62,1.45-1.76,3.76-1.76,3.76,0,0-7.63,9.16-17.33,9.29-9.7.13-6.77-4.75-6.77-4.75l32.54-19.51Z"/>
        <g>
          <path class="st17" d="M302.44,316.91s-12.99-4.79-15.55,4.79c0,0,2.32,10.55.93,16.32-1.39,5.76-8.38,16.79-8.82,18.89-.85,4.09-.21,4.37-.21,4.37,0,0,5.09,2.94,11.93-.21,6.83-3.15,18.68-16.71,20.53-19.5,1.86-2.79-5.8-13.83-5.8-13.83l-3.02-10.83Z"/>
          <g class="st11">
            <path class="st24" d="M302.44,316.91s-12.99-4.79-15.55,4.79c0,0,2.32,10.55.93,16.32-1.39,5.76-8.38,16.79-8.82,18.89-.85,4.09-.21,4.37-.21,4.37,0,0,5.09,2.94,11.93-.21,6.83-3.15,18.68-16.71,20.53-19.5,1.86-2.79-5.8-13.83-5.8-13.83l-3.02-10.83Z"/>
          </g>
          <path class="st7" d="M302.44,316.91s-12.99-4.79-15.55,4.79c0,0,2.32,10.55.93,16.32-1.39,5.76-8.38,16.79-8.82,18.89-.85,4.09-.21,4.37-.21,4.37,0,0,5.09,2.94,11.93-.21,6.83-3.15,18.68-16.71,20.53-19.5,1.86-2.79-5.8-13.83-5.8-13.83l-3.02-10.83Z"/>
        </g>
        <path class="st7" d="M295.79,330.46s2.16,9.57-3.25,18.81"/>
        <path class="st3" d="M292.54,351.76s-1.39,3.96-5.57,5.14c-4.18,1.18-7.97,0-7.97,0l3.12-6.33s4.53,2.08,10.41,1.18Z"/>
        <path class="st7" d="M294.37,347.95s-6.8.41-10.35-.98"/>
        <path class="st7" d="M295.63,344.19s-6.36.97-9.91-1.04"/>
        <path class="st7" d="M296.72,340.03s-5.57.81-9.21-.91"/>
        <path class="st7" d="M297.33,335.31s-6.2,1.94-9.13,0"/>
        <path class="st3" d="M298.26,323.64l1.08,6.81s-8.2,5.41-13.62-1.34l.02-7.11s2.01,4.79,12.51,1.64Z"/>
      </g>
      <path class="st14" d="M291.14,170.77c-8.31,26.33-34.1,68.56-31.48,79.36,1.43,5.9,9.94,39.34,16.59,54.04,2.54,5.61,8,9.36,8,9.36l3.95,8.47c9.63,4.19,13.08-4.34,13.08-4.34l-1.94-9.6c5.16-9.38,2.96-9.38-3.71-58-.79-5.73,12.5-23.44,12.5-23.44l6.83,44.54,1.11,36.5,3.55,11.28s.87,10.59.8,11.23h15.82l1.75-11.64s7.35-6.93,7.35-14.93-1.58-48.75,0-60.62c1.58-11.87-3.71-67.21-3.71-67.21l-50.49-5.01Z"/>
      <g>
        <g>
          <path class="st23" d="M182.83,146.38h21.95c1.04,0,1.88.84,1.88,1.88v15.7h-25.71v-15.7c0-1.04.84-1.88,1.88-1.88Z" transform="translate(14.01 -16.03) rotate(4.91)"/>
          <g class="st21">
            <path class="st12" d="M182.83,146.38h21.95c1.04,0,1.88.84,1.88,1.88v15.7h-25.71v-15.7c0-1.04.84-1.88,1.88-1.88Z" transform="translate(14.01 -16.03) rotate(4.91)"/>
            <rect class="st13" x="198.99" y="148.75" width="6.33" height="12.66" transform="translate(14.03 -16.75) rotate(4.91)"/>
          </g>
          <path class="st7" d="M182.83,146.38h21.95c1.04,0,1.88.84,1.88,1.88v15.7h-25.71v-15.7c0-1.04.84-1.88,1.88-1.88Z" transform="translate(14.01 -16.03) rotate(4.91)"/>
        </g>
        <g>
          <path class="st23" d="M220.69,149.63h21.95c1.04,0,1.88.84,1.88,1.88v15.7h-25.71v-15.7c0-1.04.84-1.88,1.88-1.88Z" transform="translate(14.42 -19.26) rotate(4.91)"/>
          <g class="st9">
            <path class="st12" d="M220.69,149.63h21.95c1.04,0,1.88.84,1.88,1.88v15.7h-25.71v-15.7c0-1.04.84-1.88,1.88-1.88Z" transform="translate(14.42 -19.26) rotate(4.91)"/>
            <rect class="st13" x="238.94" y="152.07" width="3.82" height="12.66" transform="translate(14.46 -20.05) rotate(4.91)"/>
          </g>
          <path class="st7" d="M220.69,149.63h21.95c1.04,0,1.88.84,1.88,1.88v15.7h-25.71v-15.7c0-1.04.84-1.88,1.88-1.88Z" transform="translate(14.42 -19.26) rotate(4.91)"/>
        </g>
        <path class="st1" d="M212.72,148.95h21.95c1.04,0,1.88.84,1.88,1.88v15.7h-25.71v-15.7c0-1.04.84-1.88,1.88-1.88Z" transform="translate(14.34 -18.58) rotate(4.91)"/>
        <path class="st1" d="M250.58,152.2h21.95c1.04,0,1.88.84,1.88,1.88v15.7h-25.71v-15.7c0-1.04.84-1.88,1.88-1.88Z" transform="translate(14.75 -21.82) rotate(4.91)"/>
        <rect class="st13" x="228.88" y="151.32" width="6.33" height="12.66" transform="translate(14.36 -19.3) rotate(4.91)"/>
        <rect class="st13" x="266.33" y="154.54" width="6.33" height="12.66" transform="translate(14.77 -22.5) rotate(4.91)"/>
        <g>
          <path class="st23" d="M285.14,168.17l-6.18,71.92-115.88-9.96,6.18-71.92c.22-2.51,2.42-4.36,4.92-4.14l106.82,9.18c2.5.22,4.36,2.41,4.14,4.92Z"/>
          <g class="st10">
            <path class="st12" d="M285.14,168.17l-6.18,71.92-115.88-9.96,6.18-71.92c.22-2.51,2.42-4.36,4.92-4.14l106.82,9.18c2.5.22,4.36,2.41,4.14,4.92Z"/>
          </g>
          <path class="st7" d="M285.14,168.17l-6.18,71.92-115.88-9.96,6.18-71.92c.22-2.51,2.42-4.36,4.92-4.14l106.82,9.18c2.5.22,4.36,2.41,4.14,4.92Z"/>
        </g>
        <path class="st1" d="M285.14,168.17l-6.18,71.92-85.99-7.39,6.18-71.92c.22-2.51,2.42-4.36,4.92-4.14l76.93,6.61c2.5.22,4.36,2.41,4.14,4.92Z"/>
        <path class="st13" d="M279.11,170.23l-73.51-6.32c-1.03-.09-1.8-1-1.71-2.03h0c.09-1.03,1-1.8,2.03-1.71l73.51,6.32c1.03.09,1.8,1,1.71,2.03h0c-.09,1.03-1,1.8-2.03,1.71Z"/>
      </g>
      <g>
        <g>
          <path class="st17" d="M336.75,330.59s-5.54-3.96-17.01-3.16c0,0-.83,13.75-2.39,17.75-1.56,4-9.78,10.93-11.31,12.11-1.53,1.19-1.53,5.34-1.53,5.34h34.81s-.59-9.2-2.77-17.66l.2-14.39Z"/>
          <g class="st22">
            <path class="st24" d="M336.75,330.59s-5.54-3.96-17.01-3.16c0,0-.83,13.75-2.39,17.75-1.56,4-9.78,10.93-11.31,12.11-1.53,1.19-1.53,5.34-1.53,5.34h34.81s-.59-9.2-2.77-17.66l.2-14.39Z"/>
          </g>
          <path class="st7" d="M336.75,330.59s-5.54-3.96-17.01-3.16c0,0-.83,13.75-2.39,17.75-1.56,4-9.78,10.93-11.31,12.11-1.53,1.19-1.53,5.34-1.53,5.34h34.81s-.59-9.2-2.77-17.66l.2-14.39Z"/>
        </g>
        <path class="st7" d="M329.56,332.37s-.82,12.66-2.79,15.96c-1.96,3.3-3.86,5.01-3.86,5.01"/>
        <path class="st3" d="M321.92,355.12s-1.75,2.18-3.69,2.47c-1.95.3-12.19-.3-12.19-.3l4.18-3.61s8.54-1.43,11.7,1.44Z"/>
        <path class="st7" d="M325.58,352.15s-7.42-4.27-12.71-1.05"/>
        <path class="st7" d="M327.37,349.25s-5.18-4.05-11.29-1.83"/>
        <path class="st7" d="M329.56,344.84s-5.58-4.33-11.46-1.57"/>
        <path class="st7" d="M330.32,339.33s-6.76-3.64-11.69-.88"/>
        <path class="st3" d="M339.32,362.63v2.57h-3.99s-3.43-1.98-6.69,0h-18.79c-3.26,0-5.74-1.29-5.74-1.29l.4-1.29h34.81Z"/>
        <path class="st3" d="M334.33,329.8l-.89,5.6s-10.45-3.39-16.22-1.19v-6.9s10.75-3.78,17.11,2.48Z"/>
      </g>
      <g>
        <path class="st29" d="M345.63,190.01s-22.21,4.35-43.99-2.71c-4.81-1.56-9.61-3.68-14.14-6.53,0,0,.06-1.4.1-3.69.18-8.94.13-31.43-4.58-37.04-2.96-3.51-5.35-25.21.44-36.18l17.71-14.24c24.52,4.79,29.7,11.28,33.75,25.28.75,2.56,1.45,5.37,2.23,8.47.85,3.38,1.65,7.51,2.41,12.05,3.68,22.38,6.07,54.59,6.07,54.59Z"/>
        <g class="st15">
          <path class="st28" d="M339.56,135.42l-10,44.67s-14.45,4.04-27.92,7.21c-4.81-1.56-9.61-3.68-14.14-6.53,0,0,.06-1.4.1-3.69,12.1-6.19,29.76-15.29,29.62-15.72-.23-.67,0-24.01,0-24.01,0,0,15.95-3.71,17.7-22.45.75,2.56,1.45,5.37,2.23,8.47.85,3.38,1.65,7.51,2.41,12.05Z"/>
        </g>
        <path class="st7" d="M345.63,190.01s-22.21,4.35-43.99-2.71c-4.81-1.56-9.61-3.68-14.14-6.53,0,0,.06-1.4.1-3.69.18-8.94.13-31.43-4.58-37.04-2.96-3.51-5.35-25.21.44-36.18l17.71-14.24c24.52,4.79,29.7,11.28,33.75,25.28.75,2.56,1.45,5.37,2.23,8.47.85,3.38,1.65,7.51,2.41,12.05,3.68,22.38,6.07,54.59,6.07,54.59Z"/>
      </g>
      <path class="st5" d="M301.97,70.98s-7.82,11.2,2.58,19.94c0,0-12.62,14.17-16.77,12.22-1.75-.82,0-5.93,0-5.93l-7.32-13.53,21.51-12.68Z"/>
      <g>
        <path class="st5" d="M299.4,76.73c2.45-10.67,1.27-26.56-13.68-25.15-10.48.99-17.95,6.79-15.04,20.85,1.23,5.94,2.24,14.34,7.68,21.91,1.51,2.1,17.31-5.33,16.36-11.34"/>
        <path class="st7" d="M278.01,70.11s3.14-1.44,6.49.63"/>
        <path class="st7" d="M270.49,71.42s.5-1.36,2.25-1.03"/>
        <path class="st5" d="M274.23,73.64s-3.08,5.61-3.09,6.41c0,.8,3.79,1.06,3.79,1.06"/>
        <path class="st14" d="M280.85,74.8c.02.61-.27,1.11-.65,1.13-.38.01-.7-.47-.72-1.08-.02-.61.27-1.11.65-1.13.38-.01.7.47.72,1.08Z"/>
        <path class="st7" d="M276.5,85.2s5.92-1.11,6.96-3.19"/>
        <path class="st14" d="M270.45,62.8l4.6-1.34s6.45-2.95,7.82-2.58c1.37.37,4.15,4.7,4.07,7.14,0,0,4.33,3.81,4.88,9.36l1.33-.61s-.07-4.97,2.77-4.87,4.12,3.53,3.92,4.6c-.2,1.07-3.29,5.51-3.29,5.51,0,0,7.11-1.06,7.35-14.96.23-13.9-15.05-16.3-22.48-15.7-7.43.6-11.32.42-11.32.42l.42,3.97-3.04.79,2.27,2.77-2.48,1.14,3.19,4.36Z"/>
      </g>
      <path class="st8" d="M296.21,214.79s18.11,4.79,23.01,18.27"/>
      <path class="st8" d="M304.51,222.03s-9.79,16.29-24.76,24.75"/>
      <path class="st8" d="M290.76,313.64s5.56-1.25,7.07-3.41"/>
      <path class="st8" d="M321.72,315.71s5.44-2.82,10.85,0"/>
      <path class="st8" d="M339.32,239.87s-9.13,23.65-13.75,25.84"/>
      <path class="st8" d="M299.35,202.83c.25,2.57,11.02,14.48,19.87,19.21"/>
      <path class="st8" d="M308.52,192.78s2.15,4.71.76,10.05,0,8.86,0,8.86"/>
      <path class="st7" d="M288.91,143.59s16.83,21.79,34.92,28.94"/>
      <path class="st7" d="M306.37,108.39s-.06,14.81,10.62,21.49"/>
      <g>
        <path class="st5" d="M312.38,129.99c-2.26,2.23.21,30.08.21,30.08,0,0-13.14,5.15-17.24,8.46s-23.59,10.91-23.59,10.91c0,0-3,10.22.75,10.57,3.74.35,42.47-12.85,51.33-17.48,0,0,5.77-34.03,5.73-42.65"/>
        <path class="st5" d="M273.3,178.83c-1.8-.34-4.96-1.52-6.68-1.13-1.71.4-4.75,2.24-7.91,3.03-3.16.79-1.85,1.98,0,2.37,1.85.4,4.09,0,4.09,0l-2.56,2.51s-4.06,2.11-4.56,2.11c-.92,0-4.22.9-3.96,2.3.26,1.4,2.11,1.24,4.22,1.32,0,0-3.36.67-3.03,2.59.23,1.31,3.96.13,5.93.13,0,0-1.58,1.71-.4,2.24s3.79-.79,3.79-.79c0,0-.1,1.42,1.09,1.57s4.15-1.04,6.16-2.23,3.81-2.73,5.71-4.22c1.9-1.49,2.59-1.67,2.59-1.67"/>
        <path class="st7" d="M255.94,191.33s1.98-.12,2.77-.32c.79-.2,1.58-.46,1.58-.46"/>
        <path class="st7" d="M258.84,194.05s2.24-.33,3.43-1.19"/>
        <path class="st7" d="M262.24,195.5s1.61-.2,2.5-.92"/>
        <path class="st7" d="M260.56,186.34s-.73,1.65,0,2.57c.73.92,1.58.98,1.71,2.04.13,1.06,1.85,1,2.47,1.66.63.66,1.09,1.89,3.07,1.98"/>
      </g>
      <path class="st6" d="M311.55,101.11c-6.81,15.41,0,36.79,0,36.79,0,0,16.47,5.6,18.02,3.19,1.54-2.42,4.3-14.23,4.77-19.69"/>
      <path class="st7" d="M329.56,123.11s-7.03,9.63-12.57,9.76"/>
    </g>
  </g>
  <g id="Character_1">
    <g>
      <path class="st14" d="M83.98,252.29s5.33-3.43,12.65-1.58c7.32,1.85,26.3,29.01,28.94,31.65,2.64,2.64,7.58,4.05,12.13,8.79,7.2,7.51,17.67,14.15,18.73,14.15s1.91-.66,3.23-.92c1.32-.26,11.54-1.19,11.54-1.19,0,0,3.43.76,0,2.23s-3.16,2.78-3.16,2.78c0,0-.69,1.11.69,2.16,1.38,1.05,2.19.48,4.16,3.27s-2.78,1.21-2.78,1.21c0,0,1.05,3.02-1.05,2.7-2.11-.32-.26,2.93-3.69,2.49-3.43-.44-10.77-5.07-12.62-9.92,0,0-29.93-14.31-34.42-18-4.48-3.69-23.32-23.47-24.65-23.74"/>
      <g>
        <g>
          <path class="st23" d="M162.29,279.09h21.95c1.04,0,1.88.84,1.88,1.88v15.7h-25.71v-15.7c0-1.04.84-1.88,1.88-1.88Z"/>
          <g class="st16">
            <path class="st12" d="M162.29,279.09h21.95c1.04,0,1.88.84,1.88,1.88v15.7h-25.71v-15.7c0-1.04.84-1.88,1.88-1.88Z"/>
            <rect class="st13" x="178.41" y="280.74" width="6.33" height="12.66"/>
          </g>
          <path class="st7" d="M162.29,279.09h21.95c1.04,0,1.88.84,1.88,1.88v15.7h-25.71v-15.7c0-1.04.84-1.88,1.88-1.88Z"/>
        </g>
        <g>
          <path class="st23" d="M200.29,279.09h21.95c1.04,0,1.88.84,1.88,1.88v15.7h-25.71v-15.7c0-1.04.84-1.88,1.88-1.88Z"/>
          <g class="st19">
            <path class="st12" d="M200.29,279.09h21.95c1.04,0,1.88.84,1.88,1.88v15.7h-25.71v-15.7c0-1.04.84-1.88,1.88-1.88Z"/>
            <rect class="st13" x="218.49" y="280.74" width="3.82" height="12.66"/>
          </g>
          <path class="st7" d="M200.29,279.09h21.95c1.04,0,1.88.84,1.88,1.88v15.7h-25.71v-15.7c0-1.04.84-1.88,1.88-1.88Z"/>
        </g>
        <path class="st1" d="M192.29,279.09h21.95c1.04,0,1.88.84,1.88,1.88v15.7h-25.71v-15.7c0-1.04.84-1.88,1.88-1.88Z"/>
        <path class="st1" d="M230.29,279.09h21.95c1.04,0,1.88.84,1.88,1.88v15.7h-25.71v-15.7c0-1.04.84-1.88,1.88-1.88Z"/>
        <rect class="st13" x="208.41" y="280.74" width="6.33" height="12.66"/>
        <rect class="st13" x="245.99" y="280.74" width="6.33" height="12.66"/>
        <g>
          <path class="st23" d="M265.37,293.01v72.19h-116.31v-72.19c0-2.52,2.04-4.55,4.55-4.55h107.21c2.51,0,4.55,2.03,4.55,4.55Z"/>
          <g class="st27">
            <path class="st12" d="M265.37,293.01v72.19h-116.31v-72.19c0-2.52,2.04-4.55,4.55-4.55h107.21c2.51,0,4.55,2.03,4.55,4.55Z"/>
          </g>
          <path class="st7" d="M265.37,293.01v72.19h-116.31v-72.19c0-2.52,2.04-4.55,4.55-4.55h107.21c2.51,0,4.55,2.03,4.55,4.55Z"/>
        </g>
        <path class="st1" d="M265.37,293.01v72.19h-86.31v-72.19c0-2.52,2.04-4.55,4.55-4.55h77.21c2.51,0,4.55,2.03,4.55,4.55Z"/>
        <path class="st13" d="M259.54,295.58h-73.78c-1.04,0-1.88-.84-1.88-1.88h0c0-1.04.84-1.88,1.88-1.88h73.78c1.04,0,1.88.84,1.88,1.88h0c0,1.04-.84,1.88-1.88,1.88Z"/>
      </g>
      <g>
        <path class="st2" d="M122.93,365.2c-6.01,0-14.43-3.86-24.14-7.94-10.07-4.24-21.54-8.72-33.18-9.39-4.34-.25-1.71,17.33-1.71,17.33h-9.5s-9.36-12.52-10.42-23.73c0,0,7.66-4.73,9.5-5.01.38-.06,1.09-.08,1.91-.09,2.06-.02,4.81.09,4.81.09,0,0-.01,0-.02-.01-.44-.26-7.45-4.48-11.32-8.77-3.19-3.54-4.65-9.13-4.76-12.47-.05-1.66.73-6.6.73-6.6l49.92.83s.54.38,1.5,1.09c5.79,4.22,26.95,19.94,37.53,31.79,3.42,3.83,5.73,7.25,6.07,9.75,1.58,11.55-7.85,13.13-16.92,13.13Z"/>
        <path class="st14" d="M133.78,342.32l-24.28,5.55s-6.33,3.38-10.71,9.39c-10.07-4.24-21.54-8.72-33.18-9.39-4.34-.25-1.71,17.33-1.71,17.33h-9.5s-9.36-12.52-10.42-23.73c0,0,8.84,12.6,10.95,18.96,0,0,3.43-11.84,8.97-16.59,0,0-3.73-4.35-8.51-7.47,2.06-.02,4.81.09,4.81.09,0,0-.01,0-.02-.01-.44-.26-7.45-4.48-11.32-8.77-3.19-3.54-4.48-9.14-4.76-12.47-.14-1.64.06-6.6.06-6.6,0,0,37.23,5.31,52.09,1.92,5.79,4.22,26.95,19.94,37.53,31.79Z"/>
        <path class="st7" d="M94.76,341.47s19.78,9.91,25.05,13.79c5.27,3.88,6.85,2.82,6.85,2.82"/>
        <path class="st7" d="M48.87,340.41s4.75,7.25,5.01,9.43"/>
      </g>
      <path class="st14" d="M128.42,201.26s10.56-4.59,9.57,14.9c-.99,19.49,2.57,20.48,2.57,20.48,0,0-26.51,10.88-33.23,1.58-6.73-9.3-.34-34.75,21.09-36.96Z"/>
      <path class="st5" d="M126.93,236.63s-10.9,5.14-11.89,9.89c-.99,4.75-14.64-2.39-14.64-2.39l9.89-14.22,16.64,6.73Z"/>
      <path class="st2" d="M55.49,288.8c-25.04,31.83-4.71,47.2,23.63,44.66l-5.68,8.97,14.25,2.47s10.94-7.14,25.84-14.77c25.36-12.99,35.6-12.22,32.97-25.23-2.64-13.01-33.69-21.45-64.85-7.74,0,0-16.93-20.1-26.16-8.36Z"/>
      <g>
        <path class="st5" d="M64.21,358.08s6.51-18.02,9.23-18.99,12.94,2.9,14.25,5.8c0,0,3.47-5.32,4.9-3.06,1.42,2.27-.63,5.96,0,8.86.63,2.9,7.65,6.86,10.47,7.38,2.82.53,4.4,2.11,4.4,3.69v3.43h-43.25s-1.58-2.94,0-7.12Z"/>
        <path class="st7" d="M92.59,347.87s-5.73,2.83-7.83,2.04c-2.09-.79,1.07,4.75,1.86,5.27s5.96-1.85,5.96-1.85"/>
        <path class="st7" d="M69.62,344.9s7.77.15,10.15,2.97"/>
        <path class="st7" d="M64.21,358.08s12.4,2.9,13.45,2.9,5.01-1.45,5.01-1.45c0,0,3.4,1.71,5.65,2.77,2.26,1.05,17.03,0,17.03,0"/>
      </g>
      <path class="st7" d="M79.12,333.46c11.85-1.29,34.83-15.87,42.8-20.94,7.96-5.07,10.07-3.75,10.07-3.75"/>
      <path class="st1" d="M44.16,308.61l1.89-14.35,4.56-3.44c7.38-17.93,40.87-51.42,49.99-51.31,13.71.16,16.13,14.55,17.82,30.3,1.69,15.75-19.67,13.38-19.67,13.38v3.96l-12.15,6.29,7.36-.23s-21.16,20.57-49.8,15.41Z"/>
      <g>
        <path class="st5" d="M103.5,211.72c2.87-8.99,16.01-11.4,20.72-9.92,2.96.93,7.08,4.19,8.91,8.13,1.2,2.58-1.31,7.17.48,9.84,2.56,3.83,2.34,11.91,1.42,16.96-.49,2.7-11.73,4.31-20.91-1.98-9.86-6.75-13.4-14.3-10.62-23.02Z"/>
        <path class="st14" d="M116.77,199.16s11.56-1.89,11.64,1.09c.51,19.73-11.31,23.87-11.31,23.87,0,0-4.83-3.85-5.92-1.21-1.09,2.64,1.71,9.93,5.12,10.09,0,0-2.64,3.44-.14,8.24,0,0-19.58,3.27-21.2-5.81,0,0,1.09-4.3,1.62-9.58,1.27-12.71-1.7-21.27,20.18-26.7Z"/>
        <path class="st5" d="M132.21,219.26c2.41,2.18,4.14,2.18,4.11,2.95-.09,2.44-3.03,3.65-3.03,3.65"/>
        <path class="st7" d="M133.26,229.91s-2.43.96-5.27.13"/>
        <path class="st14" d="M126.86,207.16s7.68-2.23,6.27,10.25c0,0,3.21-4.34,3.2-9.24-.02-8.46-11.33-6.77-11.33-6.77l1.47,5.99"/>
        <path class="st7" d="M133.84,213.27s-.64-.57-2.04-.37"/>
        <path class="st7" d="M128.66,213.13s-4.13.23-5.92,3.03"/>
        <path class="st14" d="M127.67,219.7c.06.66-.22,1.23-.63,1.27-.41.04-.79-.47-.86-1.13-.06-.66.22-1.23.63-1.27.41-.04.79.47.86,1.13Z"/>
      </g>
      <path class="st7" d="M79.77,336.46s9.2.97,11.2,5.01"/>
      <path class="st5" d="M103.06,246.26s5.33-3.43,12.65-1.58c7.32,1.85,26.3,29.01,28.94,31.65,2.64,2.64,7.58,4.05,12.13,8.79,7.2,7.51,17.67,14.15,18.73,14.15s1.91-.66,3.23-.92c1.32-.26,11.54-1.19,11.54-1.19,0,0,3.43.76,0,2.23s-3.16,2.78-3.16,2.78c0,0-.69,1.11.69,2.16,1.38,1.05,2.19.48,4.16,3.27s-2.78,1.21-2.78,1.21c0,0,1.05,3.02-1.05,2.7-2.11-.32-.26,2.93-3.69,2.49-3.43-.44-10.77-5.07-12.62-9.92,0,0-29.93-14.31-34.42-18-4.48-3.69-23.32-23.47-24.65-23.74"/>
      <path class="st1" d="M98.76,243.36s14.76-3.96,19.91-1.05,14.91,16.35,14.91,16.35c0,0-11.89,10.65-15.57,9.68-3.68-.97-14.94-2.56-14.94-2.56"/>
      <path class="st7" d="M111.55,267.08s-5.35,2.94-7.32,2.94"/>
      <path class="st7" d="M103.06,252.33c.44.79.29,9.44,9.69,12.13"/>
      <path class="st7" d="M52.87,291.1s20.04,3.43,26.9-2.64"/>
      <path class="st7" d="M86.61,293.43s-5-.88-6.84,1.69c-1.85,2.57-11.87,4.94-11.87,4.94"/>
      <path class="st7" d="M46.41,312.52s-2.89,12.46,9.44,18.03"/>
      <path class="st7" d="M52.87,313.38s.07,6.13,2.04,9.49l6.13,1.98,6.86-3.82s-1.45-7.85-1.58-9.43"/>
    </g>
  </g>
</svg>